,pitch,velocity,start,end,duration,dstart,velocity_quantized,duration_quantized,dstart_quantized
0,50,77,0.6136363636363636,0.6818181818181818,0.06818181818181812,0.013636363636363558,75,0.05,0
1,74,90,0.6272727272727272,0.9340909090909091,0.3068181818181819,0.04318181818181821,90,0.30000000000000004,0.05
2,49,78,0.6704545454545454,0.7704545454545454,0.09999999999999998,0.08636363636363642,80,0.1,0.1
3,50,73,0.7568181818181818,1.1318181818181818,0.375,0.14318181818181808,75,0.4,0.15000000000000002
4,72,85,0.8999999999999999,1.0409090909090908,0.14090909090909087,0.12045454545454559,85,0.15000000000000002,0.1
5,70,79,1.0204545454545455,1.175,0.15454545454545454,0.12272727272727257,80,0.15000000000000002,0.1
6,69,77,1.143181818181818,1.2545454545454544,0.11136363636363633,0.006818181818181834,75,0.1,0
7,38,77,1.15,1.6772727272727272,0.5272727272727273,0.10681818181818192,75,0.55,0.1
8,67,78,1.2568181818181818,1.3977272727272727,0.14090909090909087,0.12045454545454537,80,0.15000000000000002,0.1
9,65,82,1.3772727272727272,1.5136363636363637,0.13636363636363646,0.11590909090909096,80,0.15000000000000002,0.1
10,64,81,1.4931818181818182,1.6045454545454545,0.11136363636363633,0.10909090909090913,80,0.1,0.1
11,62,81,1.6022727272727273,1.7272727272727273,0.125,0.1068181818181817,80,0.1,0.1
12,65,78,1.709090909090909,1.8272727272727272,0.11818181818181817,0.11363636363636354,80,0.1,0.1
13,64,76,1.8227272727272725,1.909090909090909,0.08636363636363642,0.10000000000000009,75,0.1,0.1
14,62,76,1.9227272727272726,2.034090909090909,0.11136363636363655,0.12045454545454537,75,0.1,0.1
15,70,66,2.043181818181818,2.134090909090909,0.09090909090909083,0.11590909090909118,65,0.1,0.1
16,67,59,2.159090909090909,2.234090909090909,0.07499999999999973,0.125,60,0.05,0.1
17,62,64,2.284090909090909,2.4,0.11590909090909074,0.02045454545454506,65,0.1,0
18,38,62,2.3045454545454542,2.359090909090909,0.054545454545454675,0.10227272727272751,60,0.05,0.1
19,67,55,2.4068181818181817,2.502272727272727,0.09545454545454524,0.125,55,0.1,0.1
20,70,68,2.5318181818181817,2.620454545454545,0.0886363636363634,0.00909090909090926,70,0.1,0
21,43,69,2.540909090909091,2.5795454545454546,0.03863636363636358,0.11590909090909074,70,0.05,0.1
22,67,61,2.6568181818181817,2.7409090909090907,0.084090909090909,0.10681818181818192,60,0.1,0.1
23,62,61,2.7636363636363637,2.8613636363636363,0.09772727272727266,0,60,0.1,0
24,46,75,2.7636363636363637,2.809090909090909,0.045454545454545414,0.11363636363636331,75,0.05,0.1
25,67,50,2.877272727272727,2.9636363636363634,0.08636363636363642,0.11363636363636376,50,0.1,0.1
26,50,79,2.9909090909090907,3.061363636363636,0.07045454545454533,0.020454545454545503,80,0.05,0
27,70,74,3.0113636363636362,3.1045454545454545,0.09318181818181825,0.040909090909091006,75,0.1,0.05
28,49,74,3.0522727272727272,3.1477272727272725,0.09545454545454524,0.05909090909090908,75,0.1,0.05
29,67,74,3.1113636363636363,3.209090909090909,0.09772727272727266,0.03863636363636358,75,0.1,0.05
30,50,75,3.15,3.418181818181818,0.2681818181818181,0.07727272727272716,75,0.25,0.1
31,62,67,3.227272727272727,3.375,0.14772727272727293,0.1454545454545455,65,0.15000000000000002,0.15000000000000002
32,67,64,3.3727272727272726,3.4727272727272727,0.10000000000000009,0.10227272727272707,65,0.1,0.1
33,69,68,3.4749999999999996,3.5954545454545452,0.12045454545454559,0.12954545454545485,70,0.1,0.15000000000000002
34,67,66,3.6045454545454545,3.6999999999999997,0.09545454545454524,0.10227272727272707,65,0.1,0.1
35,38,70,3.7068181818181816,3.759090909090909,0.05227272727272725,0.018181818181818077,70,0.05,0
36,62,68,3.7249999999999996,3.8499999999999996,0.125,0.12727272727272743,70,0.1,0.15000000000000002
37,67,64,3.852272727272727,3.9568181818181816,0.1045454545454545,0.08863636363636385,65,0.1,0.1
38,41,87,3.940909090909091,3.9909090909090907,0.04999999999999982,0.018181818181818077,85,0.05,0
39,69,79,3.959090909090909,4.059090909090909,0.09999999999999964,0.1045454545454545,80,0.1,0.1
40,65,72,4.0636363636363635,4.161363636363636,0.09772727272727266,0.10909090909090935,70,0.1,0.1
41,45,84,4.172727272727273,4.215909090909091,0.04318181818181799,0.006818181818181834,85,0.05,0
42,62,68,4.179545454545455,4.297727272727273,0.11818181818181817,0.11818181818181817,70,0.1,0.1
43,65,63,4.297727272727273,4.3977272727272725,0.09999999999999964,0.12045454545454515,65,0.1,0.1
44,50,83,4.418181818181818,4.488636363636363,0.07045454545454533,0.002272727272726982,85,0.05,0
45,69,76,4.420454545454545,4.5227272727272725,0.10227272727272751,0.05909090909090953,75,0.1,0.05
46,49,77,4.4795454545454545,4.584090909090909,0.1045454545454545,0.040909090909091006,75,0.1,0.05
47,65,75,4.5204545454545455,4.631818181818182,0.11136363636363633,0.052272727272726804,75,0.1,0.05
48,50,81,4.572727272727272,4.879545454545454,0.30681818181818166,0.06818181818181834,80,0.30000000000000004,0.05
49,62,71,4.640909090909091,4.779545454545454,0.13863636363636367,0.11136363636363633,70,0.15000000000000002,0.1
50,65,78,4.752272727272727,4.861363636363636,0.10909090909090935,0.12272727272727302,80,0.1,0.1
51,67,85,4.875,4.993181818181818,0.11818181818181817,0.10227272727272663,85,0.1,0.1
52,64,78,4.977272727272727,5.088636363636363,0.11136363636363633,0.12727272727272787,80,0.1,0.15000000000000002
53,58,94,5.1045454545454545,5.179545454545455,0.07500000000000018,0.009090909090908816,95,0.1,0
54,62,75,5.113636363636363,5.222727272727273,0.10909090909090935,0.10227272727272751,75,0.1,0.1
55,64,72,5.215909090909091,5.340909090909091,0.125,0.1159090909090903,70,0.1,0.1
56,67,77,5.331818181818181,5.447727272727272,0.11590909090909118,0.0022727272727278702,75,0.1,0
57,52,82,5.334090909090909,5.390909090909091,0.05681818181818166,0.1363636363636358,80,0.05,0.15000000000000002
58,64,66,5.470454545454545,5.5636363636363635,0.0931818181818187,0.09772727272727355,65,0.1,0.1
59,55,86,5.568181818181818,5.631818181818182,0.06363636363636349,0.009090909090908816,85,0.05,0
60,61,70,5.577272727272727,5.665909090909091,0.08863636363636385,0.10909090909090935,70,0.1,0.1
61,64,68,5.6863636363636365,5.818181818181818,0.13181818181818183,0.12954545454545396,70,0.15000000000000002,0.15000000000000002
62,49,69,5.8159090909090905,5.863636363636363,0.04772727272727284,0,70,0.05,0
63,67,72,5.8159090909090905,5.922727272727273,0.10681818181818237,0.13409090909090882,70,0.1,0.15000000000000002
64,64,65,5.949999999999999,6.040909090909091,0.09090909090909172,0.09772727272727355,65,0.1,0.1
65,57,69,6.047727272727273,6.093181818181818,0.04545454545454497,0.020454545454544615,70,0.05,0
66,61,64,6.0681818181818175,6.111363636363636,0.043181818181818876,0.09545454545454568,65,0.05,0.1
67,64,67,6.163636363636363,6.245454545454545,0.08181818181818201,0.12727272727272787,65,0.1,0.15000000000000002
68,50,66,6.290909090909091,6.736363636363636,0.4454545454545453,0,65,0.45,0
69,65,82,6.290909090909091,6.9795454545454545,0.6886363636363635,0.10681818181818148,80,0.7000000000000001,0.1
70,62,85,6.3977272727272725,6.538636363636363,0.14090909090909065,0.125,85,0.15000000000000002,0.1
71,60,76,6.5227272727272725,6.656818181818181,0.13409090909090882,0.11363636363636331,75,0.15000000000000002,0.1
72,58,81,6.636363636363636,6.747727272727272,0.11136363636363633,0.1136363636363642,80,0.1,0.1
73,57,79,6.75,6.868181818181818,0.11818181818181817,0.11136363636363633,80,0.1,0.1
74,55,73,6.861363636363636,6.995454545454545,0.13409090909090882,0.1159090909090903,75,0.15000000000000002,0.1
75,53,72,6.977272727272727,7.136363636363636,0.15909090909090917,0.1136363636363642,70,0.15000000000000002,0.1
76,52,63,7.090909090909091,7.29090909090909,0.1999999999999993,0.12727272727272698,65,0.2,0.15000000000000002
77,50,61,7.218181818181818,7.334090909090909,0.11590909090909118,0.14090909090909065,60,0.1,0.15000000000000002
78,53,63,7.3590909090909085,7.493181818181818,0.1340909090909097,0.10227272727272751,65,0.15000000000000002,0.1
79,52,53,7.461363636363636,7.5681818181818175,0.10681818181818148,0.10681818181818148,55,0.1,0.1
80,50,61,7.5681818181818175,7.66590909090909,0.09772727272727266,0.13863636363636367,60,0.1,0.15000000000000002
81,58,67,7.706818181818181,7.788636363636363,0.08181818181818201,0.10681818181818237,65,0.1,0.1
82,55,55,7.8136363636363635,7.927272727272727,0.11363636363636331,0.12954545454545396,55,0.1,0.15000000000000002
83,50,61,7.9431818181818175,8.047727272727272,0.1045454545454545,0.009090909090909705,60,0.1,0
84,62,73,7.952272727272727,7.988636363636363,0.036363636363636154,0.15227272727272645,75,0.05,0.15000000000000002
85,55,49,8.104545454545454,8.177272727272728,0.07272727272727408,0.09545454545454568,50,0.05,0.1
86,67,73,8.2,8.23409090909091,0.03409090909091006,0.0068181818181827225,75,0.05,0
87,58,61,8.206818181818182,8.288636363636364,0.08181818181818201,0.1477272727272716,60,0.1,0.15000000000000002
88,55,44,8.354545454545454,8.429545454545455,0.07500000000000107,0.08181818181818201,45,0.1,0.1
89,70,74,8.436363636363636,8.477272727272727,0.040909090909091006,0.018181818181817633,75,0.05,0
90,50,58,8.454545454545453,8.565909090909091,0.11136363636363811,0.15909090909091006,60,0.1,0.15000000000000002
91,55,40,8.613636363636363,8.677272727272728,0.06363636363636438,0.07727272727272805,40,0.05,0.1
92,74,70,8.690909090909091,8.727272727272727,0.036363636363635266,0.013636363636361892,70,0.05,0
93,58,57,8.704545454545453,8.76590909090909,0.0613636363636374,0.040909090909091006,55,0.05,0.05
94,73,73,8.745454545454544,8.813636363636363,0.06818181818181834,0.0704545454545471,75,0.05,0.05
95,74,77,8.815909090909091,9.120454545454544,0.3045454545454529,0.006818181818180946,75,0.30000000000000004,0
96,55,52,8.822727272727272,8.909090909090908,0.08636363636363598,0.11363636363636331,50,0.1,0.1
97,50,60,8.936363636363636,9.075,0.13863636363636367,0.13863636363636367,60,0.15000000000000002,0.15000000000000002
98,55,58,9.075,9.172727272727272,0.09772727272727266,0.10909090909090935,60,0.1,0.1
99,57,65,9.184090909090909,9.309090909090909,0.125,0.13181818181818095,65,0.1,0.15000000000000002
100,55,60,9.31590909090909,9.415909090909091,0.10000000000000142,0.12727272727272876,60,0.1,0.15000000000000002
101,62,78,9.443181818181818,9.479545454545454,0.036363636363635266,0,80,0.05,0
102,50,60,9.443181818181818,9.563636363636363,0.12045454545454426,0.14318181818181763,60,0.1,0.15000000000000002
103,55,59,9.586363636363636,9.672727272727272,0.08636363636363598,0.10454545454545361,60,0.1,0.1
104,57,69,9.69090909090909,9.795454545454545,0.10454545454545539,0.0068181818181827225,70,0.1,0
105,65,90,9.697727272727272,9.74090909090909,0.04318181818181799,0.12045454545454604,90,0.05,0.1
106,53,59,9.818181818181818,9.915909090909091,0.09772727272727266,0.10681818181818059,60,0.1,0.1
107,50,69,9.924999999999999,10.038636363636364,0.11363636363636509,0.002272727272726982,70,0.1,0
108,69,86,9.927272727272726,9.975,0.04772727272727373,0.14090909090909243,85,0.05,0.15000000000000002
109,53,57,10.068181818181818,10.122727272727273,0.054545454545454675,0.07727272727272627,55,0.05,0.1
110,57,66,10.145454545454545,10.247727272727273,0.1022727272727284,0.02954545454545432,65,0.1,0.05
111,74,81,10.174999999999999,10.227272727272727,0.05227272727272769,0.05000000000000071,80,0.05,0.05
112,73,85,10.225,10.334090909090909,0.10909090909090935,0.009090909090909705,85,0.1,0
113,53,72,10.23409090909091,10.375,0.14090909090909065,0.07499999999999929,70,0.15000000000000002,0.05
114,74,86,10.309090909090909,10.556818181818182,0.24772727272727302,0.06136363636363562,85,0.25,0.05
115,50,69,10.370454545454544,10.504545454545454,0.1340909090909097,0.12954545454545574,70,0.15000000000000002,0.15000000000000002
116,53,76,10.5,10.597727272727273,0.09772727272727266,0.10909090909090935,75,0.1,0.1
117,55,84,10.60909090909091,10.73181818181818,0.12272727272727124,0.10909090909090757,85,0.1,0.1
118,52,78,10.718181818181817,10.836363636363636,0.11818181818181905,0.11818181818181905,80,0.1,0.1
119,50,69,10.836363636363636,10.98181818181818,0.14545454545454461,0.04545454545454497,70,0.15000000000000002,0.05
120,67,90,10.881818181818181,10.945454545454545,0.06363636363636438,0.10454545454545539,90,0.05,0.1
121,52,62,10.986363636363636,11.1,0.11363636363636331,0.12272727272727302,60,0.1,0.1
122,73,97,11.10909090909091,11.168181818181818,0.05909090909090864,0.002272727272726982,95,0.05,0
123,55,69,11.111363636363636,11.25,0.13863636363636367,0.14090909090909065,70,0.15000000000000002,0.15000000000000002
124,52,64,11.252272727272727,11.386363636363637,0.1340909090909097,0.11363636363636331,65,0.15000000000000002,0.1
125,76,99,11.36590909090909,11.429545454545455,0.06363636363636438,0.018181818181817633,100,0.05,0
126,49,67,11.384090909090908,11.524999999999999,0.14090909090909065,0.14772727272727337,65,0.15000000000000002,0.15000000000000002
127,52,68,11.531818181818181,11.620454545454544,0.08863636363636296,0.08636363636363598,70,0.1,0.1
128,73,94,11.618181818181817,11.677272727272726,0.05909090909090864,0.013636363636363669,95,0.05,0
129,55,68,11.631818181818181,11.781818181818181,0.15000000000000036,0.13863636363636367,70,0.15000000000000002,0.15000000000000002
130,52,66,11.770454545454545,11.863636363636363,0.0931818181818187,0.09772727272727266,65,0.1,0.1
131,69,83,11.868181818181817,11.924999999999999,0.05681818181818166,0.002272727272726982,85,0.05,0
132,49,65,11.870454545454544,12.020454545454545,0.15000000000000036,0.15000000000000036,65,0.15000000000000002,0.15000000000000002
133,52,61,12.020454545454545,12.10909090909091,0.08863636363636473,0.08636363636363598,60,0.1,0.1
134,74,85,12.10681818181818,12.424999999999999,0.31818181818181834,0.015909090909092427,85,0.30000000000000004,0
135,53,69,12.122727272727273,12.288636363636362,0.16590909090908923,0.12727272727272698,70,0.15000000000000002,0.15000000000000002
136,50,64,12.25,12.424999999999999,0.17499999999999893,0.1363636363636349,65,0.15000000000000002,0.15000000000000002
137,52,69,12.386363636363635,12.534090909090908,0.14772727272727337,0,70,0.15000000000000002,0
138,72,81,12.386363636363635,12.536363636363635,0.15000000000000036,0.11818181818181905,80,0.15000000000000002,0.1
139,53,67,12.504545454545454,12.649999999999999,0.14545454545454461,0,65,0.15000000000000002,0
140,70,79,12.504545454545454,12.659090909090908,0.15454545454545432,0.1159090909090903,80,0.15000000000000002,0.1
141,69,84,12.620454545454544,12.73409090909091,0.11363636363636509,0.009090909090909705,85,0.1,0
142,55,70,12.629545454545454,12.725,0.09545454545454568,0.10454545454545539,70,0.1,0.1
143,67,87,12.73409090909091,12.877272727272727,0.14318181818181763,0.006818181818180946,85,0.15000000000000002,0
144,57,72,12.74090909090909,12.868181818181817,0.12727272727272698,0.10454545454545539,70,0.15000000000000002,0.1
145,65,85,12.845454545454546,12.970454545454546,0.125,0.01590909090909065,85,0.1,0
146,59,70,12.861363636363636,12.979545454545454,0.11818181818181728,0.09318181818181692,70,0.1,0.1
147,64,81,12.954545454545453,13.063636363636363,0.10909090909090935,0.02954545454545432,80,0.1,0.05
148,61,64,12.984090909090908,13.072727272727272,0.08863636363636473,0.0931818181818187,65,0.1,0.1
149,65,91,13.077272727272726,13.127272727272727,0.05000000000000071,0.02045454545454639,90,0.05,0
150,62,71,13.097727272727273,13.220454545454546,0.12272727272727302,0.12954545454545396,70,0.1,0.15000000000000002
151,60,69,13.227272727272727,13.368181818181817,0.14090909090909065,0.12954545454545396,70,0.15000000000000002,0.15000000000000002
152,69,94,13.35681818181818,13.686363636363636,0.32954545454545503,0.002272727272726982,95,0.35000000000000003,0
153,59,68,13.359090909090908,13.484090909090908,0.125,0.12954545454545574,70,0.1,0.15000000000000002
154,57,70,13.488636363636363,13.620454545454544,0.13181818181818095,0.125,70,0.15000000000000002,0.1
155,59,73,13.613636363636363,13.706818181818182,0.0931818181818187,0.09999999999999964,75,0.1,0.1
156,67,80,13.713636363636363,13.868181818181817,0.15454545454545432,0.004545454545453964,80,0.15000000000000002,0
157,60,68,13.718181818181817,13.859090909090908,0.14090909090909065,0.11818181818181905,70,0.15000000000000002,0.1
158,69,82,13.836363636363636,13.988636363636363,0.15227272727272734,0.009090909090907928,80,0.15000000000000002,0
159,59,71,13.845454545454544,14.006818181818181,0.16136363636363704,0.10454545454545539,70,0.15000000000000002,0.1
160,57,75,13.95,14.029545454545454,0.07954545454545503,0.002272727272726982,75,0.1,0
161,71,87,13.952272727272726,14.047727272727272,0.09545454545454568,0.09999999999999964,85,0.1,0.1
162,55,72,14.052272727272726,14.193181818181818,0.14090909090909243,0.013636363636363669,70,0.15000000000000002,0
163,72,93,14.06590909090909,14.206818181818182,0.14090909090909243,0.1022727272727284,95,0.15000000000000002,0.1
164,53,72,14.168181818181818,14.313636363636363,0.14545454545454461,0.013636363636363669,70,0.15000000000000002,0
165,74,92,14.181818181818182,14.34090909090909,0.15909090909090828,0.1159090909090903,90,0.15000000000000002,0.1
166,76,88,14.297727272727272,14.468181818181817,0.17045454545454497,0.002272727272726982,90,0.15000000000000002,0
167,52,69,14.299999999999999,14.424999999999999,0.125,0.10681818181818237,70,0.1,0.1
168,77,90,14.406818181818181,14.534090909090908,0.12727272727272698,0.020454545454544615,90,0.15000000000000002,0
169,50,74,14.427272727272726,14.547727272727272,0.12045454545454604,0.10000000000000142,75,0.1,0.1
170,79,89,14.527272727272727,14.69090909090909,0.16363636363636225,0.022727272727271597,90,0.15000000000000002,0
171,52,79,14.549999999999999,14.586363636363636,0.03636363636363704,0.10909090909090935,80,0.05,0.1
172,77,84,14.659090909090908,14.797727272727272,0.13863636363636367,0.12272727272727302,85,0.15000000000000002,0.1
173,76,75,14.781818181818181,14.902272727272727,0.12045454545454604,0,75,0.1,0
174,55,78,14.781818181818181,14.825,0.04318181818181799,0.12727272727272698,80,0.05,0.15000000000000002
175,74,72,14.909090909090908,15.040909090909091,0.13181818181818272,0.11363636363636331,70,0.15000000000000002,0.1
176,48,80,15.022727272727272,15.336363636363636,0.3136363636363644,0.0068181818181827225,80,0.30000000000000004,0
177,76,84,15.029545454545454,15.14090909090909,0.11136363636363633,0.13409090909090793,85,0.1,0.15000000000000002
178,72,75,15.163636363636362,15.281818181818181,0.11818181818181905,0.1454545454545464,75,0.1,0.15000000000000002
179,70,80,15.309090909090909,15.447727272727272,0.13863636363636367,0,80,0.15000000000000002,0
180,50,71,15.309090909090909,15.45,0.14090909090909065,0.10909090909090935,70,0.15000000000000002,0.1
181,69,79,15.418181818181818,15.559090909090909,0.14090909090909065,0.011363636363636687,80,0.15000000000000002,0
182,52,67,15.429545454545455,15.577272727272726,0.1477272727272716,0.12045454545454426,65,0.15000000000000002,0.1
183,67,80,15.549999999999999,15.659090909090908,0.10909090909090935,0.018181818181817633,80,0.1,0
184,53,68,15.568181818181817,15.663636363636362,0.09545454545454568,0.10681818181818237,70,0.1,0.1
185,65,76,15.674999999999999,15.795454545454545,0.12045454545454604,0.004545454545453964,75,0.1,0
186,55,68,15.679545454545453,15.822727272727272,0.1431818181818194,0.11136363636363811,70,0.15000000000000002,0.1
187,64,75,15.790909090909091,15.89090909090909,0.09999999999999964,0.009090909090907928,75,0.1,0
188,57,65,15.799999999999999,15.902272727272727,0.1022727272727284,0.09999999999999964,65,0.1,0.1
189,62,72,15.899999999999999,15.986363636363636,0.08636363636363775,0.011363636363636687,70,0.1,0
190,59,66,15.911363636363635,15.99090909090909,0.07954545454545503,0.11136363636363811,65,0.1,0.1
191,64,81,16.022727272727273,16.05681818181818,0.03409090909090651,0.0022727272727252057,80,0.05,0
192,60,64,16.025,16.15909090909091,0.13409090909091148,0.12727272727272876,65,0.15000000000000002,0.15000000000000002
193,58,56,16.152272727272727,16.293181818181818,0.14090909090909065,0.10909090909090935,55,0.15000000000000002,0.1
194,67,71,16.261363636363637,16.631818181818183,0.37045454545454604,0.0318181818181813,70,0.35000000000000003,0.05
195,57,59,16.293181818181818,16.379545454545454,0.08636363636363598,0.09999999999999787,60,0.1,0.1
196,55,57,16.393181818181816,16.527272727272727,0.13409090909091148,0.14772727272727337,55,0.15000000000000002,0.15000000000000002
197,57,61,16.54090909090909,16.645454545454545,0.10454545454545539,0.10454545454545539,60,0.1,0.1
198,65,70,16.645454545454545,16.74772727272727,0.10227272727272663,0.01818181818181941,70,0.1,0
199,58,68,16.663636363636364,16.768181818181816,0.10454545454545183,0.10681818181818059,70,0.1,0.1
200,67,79,16.770454545454545,16.988636363636363,0.2181818181818187,0.0022727272727287584,80,0.2,0
201,57,67,16.772727272727273,16.84090909090909,0.06818181818181657,0.10454545454545183,65,0.05,0.1
202,69,79,16.877272727272725,17.006818181818183,0.12954545454545752,0.009090909090911481,80,0.15000000000000002,0
203,55,71,16.886363636363637,17.006818181818183,0.12045454545454604,0.11590909090908852,70,0.1,0.1
204,70,73,17.002272727272725,17.081818181818182,0.0795454545454568,0.01818181818181941,75,0.1,0
205,53,61,17.020454545454545,17.111363636363635,0.09090909090908994,0.09090909090908994,60,0.1,0.1
206,72,73,17.111363636363635,17.23409090909091,0.1227272727272748,0.0022727272727287584,75,0.1,0
207,51,67,17.113636363636363,17.23181818181818,0.11818181818181728,0.11818181818181728,65,0.1,0.1
208,74,66,17.23181818181818,17.334090909090907,0.10227272727272663,0.009090909090907928,65,0.1,0
209,50,59,17.24090909090909,17.368181818181817,0.12727272727272876,0.10000000000000142,60,0.15000000000000002,0.1
210,75,70,17.34090909090909,17.44090909090909,0.10000000000000142,0.036363636363635266,70,0.1,0.05
211,48,58,17.377272727272725,17.495454545454546,0.11818181818182083,0.09545454545454746,60,0.1,0.1
212,77,72,17.472727272727273,17.570454545454545,0.09772727272727266,0.04772727272727195,70,0.1,0.05
213,50,55,17.520454545454545,17.55,0.029545454545456096,0.07727272727272805,55,0.05,0.1
214,75,64,17.597727272727273,17.71590909090909,0.11818181818181728,0.13409090909090793,65,0.1,0.15000000000000002
215,74,62,17.73181818181818,17.80681818181818,0.07499999999999929,0,60,0.05,0
216,53,62,17.73181818181818,17.770454545454545,0.038636363636364024,0.12045454545454604,60,0.05,0.1
217,72,57,17.852272727272727,17.913636363636364,0.0613636363636374,0.11818181818181728,55,0.05,0.1
218,74,63,17.970454545454544,18.23409090909091,0.26363636363636545,0.0022727272727287584,65,0.25,0
219,46,62,17.972727272727273,18.331818181818182,0.35909090909090935,0.12954545454545396,60,0.35000000000000003,0.15000000000000002
220,77,60,18.102272727272727,18.331818181818182,0.22954545454545539,0.12727272727272876,60,0.25,0.15000000000000002
221,58,68,18.229545454545455,18.331818181818182,0.10227272727272663,0.004545454545453964,70,0.1,0
222,74,59,18.23409090909091,18.331818181818182,0.09772727272727266,0.12272727272727124,60,0.1,0.1
223,72,61,18.35681818181818,18.461363636363636,0.10454545454545539,0.022727272727273373,60,0.1,0
224,60,67,18.379545454545454,18.45,0.07045454545454533,0.11590909090909207,65,0.05,0.1
225,70,60,18.495454545454546,18.57272727272727,0.0772727272727245,0.013636363636361892,60,0.1,0
226,62,66,18.509090909090908,18.545454545454543,0.036363636363635266,0.10909090909090935,65,0.05,0.1
227,74,58,18.618181818181817,18.704545454545453,0.08636363636363598,0.125,60,0.1,0.1
228,70,59,18.743181818181817,18.831818181818182,0.08863636363636473,0.0068181818181827225,60,0.1,0
229,65,72,18.75,18.786363636363635,0.036363636363635266,0.12954545454545396,70,0.05,0.15000000000000002
230,69,51,18.879545454545454,18.93409090909091,0.054545454545454675,0.11136363636363455,50,0.05,0.1
231,58,64,18.99090909090909,19.029545454545453,0.038636363636364024,0.011363636363636687,65,0.05,0
232,67,62,19.002272727272725,19.052272727272726,0.05000000000000071,0.10681818181818414,60,0.05,0.1
233,70,59,19.10909090909091,19.195454545454545,0.08636363636363598,0.12954545454545396,60,0.1,0.15000000000000002
234,62,66,19.238636363636363,19.29090909090909,0.052272727272725916,0.01590909090909065,65,0.05,0
235,67,61,19.254545454545454,19.318181818181817,0.0636363636363626,0.11818181818181728,60,0.05,0.1
236,65,56,19.37272727272727,19.427272727272726,0.054545454545454675,0.1227272727272748,55,0.05,0.1
237,64,67,19.495454545454546,19.845454545454544,0.34999999999999787,0.011363636363633134,65,0.35000000000000003,0
238,55,50,19.50681818181818,19.75,0.24318181818182083,0.125,50,0.25,0.1
239,58,61,19.63181818181818,19.845454545454544,0.21363636363636473,0.11590909090909207,60,0.2,0.1
240,76,76,19.74772727272727,19.845454545454544,0.09772727272727266,0.0022727272727287584,75,0.1,0
241,55,61,19.75,19.88181818181818,0.13181818181817917,0.11136363636363455,60,0.15000000000000002,0.1
242,77,83,19.861363636363635,19.922727272727272,0.0613636363636374,0.01818181818181941,85,0.05,0
243,53,59,19.879545454545454,20.00681818181818,0.1272727272727252,0.0954545454545439,60,0.15000000000000002,0.1
244,79,86,19.974999999999998,20.027272727272727,0.05227272727272947,0.013636363636365445,85,0.05,0
245,52,70,19.988636363636363,20.081818181818182,0.0931818181818187,0.14772727272727337,70,0.1,0.15000000000000002
246,55,64,20.136363636363637,20.245454545454546,0.10909090909090935,0.08409090909090722,65,0.1,0.1
247,82,92,20.220454545454544,20.295454545454543,0.07499999999999929,0.01590909090909065,90,0.05,0
248,52,67,20.236363636363635,20.379545454545454,0.1431818181818194,0.1363636363636367,65,0.15000000000000002,0.15000000000000002
249,50,61,20.37272727272727,20.493181818181817,0.12045454545454604,0.11363636363636331,60,0.1,0.1
250,76,82,20.486363636363635,20.536363636363635,0.05000000000000071,0.0022727272727287584,80,0.05,0
251,49,61,20.488636363636363,20.55681818181818,0.06818181818181657,0.10454545454545539,60,0.05,0.1
252,52,55,20.59318181818182,20.720454545454544,0.1272727272727252,0.11590909090908852,55,0.15000000000000002,0.1
253,49,64,20.709090909090907,20.82272727272727,0.11363636363636331,0.011363636363636687,65,0.1,0
254,79,72,20.720454545454544,20.761363636363637,0.04090909090909278,0.13181818181818272,70,0.05,0.15000000000000002
255,47,54,20.852272727272727,20.94772727272727,0.0954545454545439,0.11590909090909207,55,0.1,0.1
256,45,66,20.96818181818182,21.022727272727273,0.054545454545454675,0.009090909090907928,65,0.05,0
257,73,67,20.977272727272727,21.227272727272727,0.25,0.125,65,0.25,0.1
258,79,55,21.102272727272727,21.331818181818182,0.22954545454545539,0.125,55,0.25,0.1
259,73,65,21.227272727272727,21.331818181818182,0.10454545454545539,0.0068181818181827225,65,0.1,0
260,57,72,21.23409090909091,21.331818181818182,0.09772727272727266,0.13409090909090793,70,0.1,0.15000000000000002
261,59,72,21.368181818181817,21.456818181818182,0.08863636363636473,0.0022727272727287584,70,0.1,0
262,71,42,21.370454545454546,21.40681818181818,0.036363636363635266,0.11363636363636331,40,0.05,0.1
263,69,63,21.48409090909091,21.563636363636363,0.07954545454545325,0.013636363636361892,65,0.1,0
264,61,70,21.49772727272727,21.538636363636364,0.04090909090909278,0.10000000000000142,70,0.05,0.1
265,76,57,21.597727272727273,21.73409090909091,0.1363636363636367,0.14772727272727337,55,0.15000000000000002,0.15000000000000002
266,69,62,21.745454545454546,21.82272727272727,0.0772727272727245,0.02499999999999858,60,0.1,0
267,64,41,21.770454545454545,21.80909090909091,0.038636363636364024,0.0022727272727287584,40,0.05,0
268,65,28,21.772727272727273,21.818181818181817,0.045454545454543194,0.09090909090908994,30,0.05,0.1
269,67,63,21.863636363636363,21.972727272727273,0.10909090909090935,0.12954545454545396,65,0.1,0.15000000000000002
270,57,69,21.993181818181817,22.038636363636364,0.045454545454546746,0,70,0.05,0
271,65,64,21.993181818181817,22.075,0.08181818181818201,0.11818181818181728,65,0.1,0.1
272,73,70,22.111363636363635,22.24090909090909,0.12954545454545396,0.1227272727272748,70,0.15000000000000002,0.1
273,55,71,22.23409090909091,22.284090909090907,0.04999999999999716,0.0022727272727252057,70,0.05,0
274,65,67,22.236363636363635,22.34090909090909,0.10454545454545539,0.1227272727272748,65,0.1,0.1
275,64,73,22.35909090909091,22.427272727272726,0.06818181818181657,0.125,75,0.05,0.1
276,53,74,22.48409090909091,22.752272727272725,0.26818181818181586,0.009090909090907928,75,0.25,0
277,62,87,22.493181818181817,22.64090909090909,0.14772727272727337,0.14772727272727337,85,0.15000000000000002,0.15000000000000002
278,62,69,22.64090909090909,22.76590909090909,0.125,0.10227272727272663,70,0.1,0.1
279,74,88,22.743181818181817,22.802272727272726,0.05909090909090864,0.009090909090907928,90,0.05,0
280,53,73,22.752272727272725,22.888636363636362,0.1363636363636367,0.11363636363636331,75,0.15000000000000002,0.1
281,76,84,22.86590909090909,22.93181818181818,0.06590909090909136,0.004545454545457517,85,0.05,0
282,52,66,22.870454545454546,23.03181818181818,0.16136363636363527,0.10681818181818059,65,0.15000000000000002,0.1
283,77,96,22.977272727272727,23.04090909090909,0.0636363636363626,0.01818181818181941,95,0.05,0
284,50,71,22.995454545454546,23.077272727272724,0.08181818181817846,0.11818181818181728,70,0.1,0.1
285,57,77,23.113636363636363,23.236363636363635,0.12272727272727124,0.12272727272727124,75,0.1,0.1
286,81,97,23.236363636363635,23.313636363636363,0.07727272727272805,0,95,0.1,0
287,50,76,23.236363636363635,23.384090909090908,0.14772727272727337,0.13409090909091148,75,0.15000000000000002,0.15000000000000002
288,48,70,23.370454545454546,23.50681818181818,0.13636363636363313,0.12045454545454248,70,0.15000000000000002,0.1
289,46,79,23.49090909090909,23.602272727272727,0.11136363636363811,0.0068181818181827225,80,0.1,0
290,74,97,23.49772727272727,23.552272727272726,0.054545454545454675,0.13181818181818272,95,0.05,0.15000000000000002
291,53,79,23.629545454545454,23.75,0.12045454545454604,0.10454545454545539,80,0.1,0.1
292,46,79,23.73409090909091,23.88181818181818,0.14772727272726982,0.011363636363636687,80,0.15000000000000002,0
293,72,91,23.745454545454546,23.811363636363634,0.06590909090908781,0.11363636363636331,90,0.05,0.1
294,45,74,23.85909090909091,24,0.14090909090909065,0.14545454545454461,75,0.15000000000000002,0.15000000000000002
295,70,97,24.004545454545454,24.293181818181818,0.288636363636364,0,95,0.30000000000000004,0
296,43,87,24.004545454545454,24.427272727272726,0.42272727272727195,0.14090909090909065,85,0.4,0.15000000000000002
297,79,84,24.145454545454545,24.427272727272726,0.2818181818181813,0.1431818181818194,85,0.30000000000000004,0.15000000000000002
298,55,93,24.288636363636364,24.427272727272726,0.1386363636363619,0.004545454545453964,95,0.15000000000000002,0
299,70,85,24.293181818181818,24.427272727272726,0.13409090909090793,0.10681818181818059,85,0.15000000000000002,0.1
300,69,85,24.4,24.504545454545454,0.10454545454545539,0.027272727272727337,85,0.1,0.05
301,57,81,24.427272727272726,24.545454545454543,0.11818181818181728,0.10227272727272663,80,0.1,0.1
302,67,89,24.529545454545453,24.64772727272727,0.11818181818181728,0.01818181818181941,90,0.1,0
303,58,94,24.547727272727272,24.60681818181818,0.05909090909090864,0.11136363636363455,95,0.05,0.1
304,70,82,24.659090909090907,24.79090909090909,0.13181818181818272,0.125,80,0.15000000000000002,0.1
305,67,85,24.784090909090907,24.870454545454542,0.08636363636363598,0.0068181818181827225,85,0.1,0
306,62,91,24.79090909090909,24.849999999999998,0.05909090909090864,0.12045454545454604,90,0.05,0.1
307,65,76,24.911363636363635,24.99090909090909,0.07954545454545325,0.12272727272727124,75,0.1,0.1
308,55,82,25.034090909090907,25.102272727272727,0.06818181818182012,0.009090909090911481,80,0.05,0
309,63,87,25.043181818181818,25.163636363636364,0.12045454545454604,0.12045454545454604,85,0.1,0.1
310,70,82,25.163636363636364,25.31590909090909,0.15227272727272734,0.13409090909090793,80,0.15000000000000002,0.15000000000000002
311,58,83,25.297727272727272,25.34090909090909,0.04318181818181799,0.011363636363636687,85,0.05,0
312,63,79,25.30909090909091,25.39090909090909,0.08181818181818201,0.09999999999999787,80,0.1,0.1
313,62,76,25.409090909090907,25.479545454545452,0.07045454545454533,0.13409090909091148,75,0.05,0.15000000000000002
314,61,89,25.543181818181818,25.802272727272726,0.25909090909090793,0.013636363636361892,90,0.25,0
315,57,83,25.55681818181818,25.802272727272726,0.24545454545454604,0.11363636363636331,85,0.25,0.1
316,69,85,25.670454545454543,25.825,0.1545454545454561,0.1431818181818194,85,0.15000000000000002,0.15000000000000002
317,61,76,25.813636363636363,25.93409090909091,0.12045454545454604,0.013636363636361892,75,0.1,0
318,64,78,25.827272727272724,25.87272727272727,0.045454545454546746,0.11818181818182083,80,0.05,0.1
319,59,77,25.945454545454545,26.093181818181815,0.14772727272726982,0.1272727272727252,75,0.15000000000000002,0.15000000000000002
320,61,82,26.07272727272727,26.18409090909091,0.11136363636363811,0.004545454545453964,80,0.1,0
321,57,81,26.077272727272724,26.12272727272727,0.045454545454546746,0.12045454545454604,80,0.05,0.1
322,69,80,26.19772727272727,26.327272727272724,0.12954545454545396,0.13409090909091148,80,0.15000000000000002,0.15000000000000002
323,64,79,26.331818181818182,26.386363636363637,0.054545454545454675,0.0022727272727252057,80,0.05,0
324,61,81,26.334090909090907,26.454545454545453,0.12045454545454604,0.13409090909090793,80,0.1,0.15000000000000002
325,69,80,26.468181818181815,26.563636363636363,0.09545454545454746,0.11363636363636687,80,0.1,0.1
326,61,85,26.581818181818182,26.711363636363636,0.12954545454545396,0,85,0.15000000000000002,0
327,57,81,26.581818181818182,26.64090909090909,0.05909090909090864,0.1272727272727252,80,0.05,0.15000000000000002
328,69,81,26.709090909090907,26.82272727272727,0.11363636363636331,0.11590909090909207,80,0.1,0.1
329,64,80,26.825,26.877272727272725,0.052272727272725916,0.009090909090907928,80,0.05,0
330,61,83,26.834090909090907,26.93181818181818,0.09772727272727266,0.13181818181818272,85,0.1,0.15000000000000002
331,69,70,26.96590909090909,27.047727272727272,0.08181818181818201,0.125,70,0.1,0.1
332,61,62,27.09090909090909,27.193181818181817,0.10227272727272663,0.004545454545453964,60,0.1,0
333,55,59,27.095454545454544,27.159090909090907,0.0636363636363626,0.12954545454545396,60,0.05,0.15000000000000002
334,69,53,27.224999999999998,27.336363636363636,0.11136363636363811,0.1363636363636367,55,0.1,0.15000000000000002
335,64,59,27.361363636363635,27.413636363636364,0.05227272727272947,0.01590909090909065,60,0.05,0
336,61,51,27.377272727272725,27.43409090909091,0.05681818181818343,0.10909090909090935,50,0.05,0.1
337,59,57,27.486363636363635,27.62272727272727,0.1363636363636367,0.13181818181818272,55,0.15000000000000002,0.15000000000000002
338,61,58,27.618181818181817,27.706818181818182,0.08863636363636473,0.004545454545453964,60,0.1,0
339,55,49,27.62272727272727,27.672727272727272,0.05000000000000071,0.12272727272727124,50,0.05,0.1
340,69,51,27.745454545454542,27.82272727272727,0.07727272727272805,0.1227272727272748,50,0.1,0.1
341,64,60,27.868181818181817,27.911363636363635,0.04318181818181799,0.009090909090907928,60,0.05,0
342,61,58,27.877272727272725,27.943181818181817,0.06590909090909136,0.1227272727272748,60,0.05,0.1
343,69,53,28,28.111363636363635,0.11136363636363455,0.125,55,0.1,0.1
344,55,47,28.125,28.170454545454543,0.045454545454543194,0.0022727272727252057,45,0.05,0
345,61,52,28.127272727272725,28.195454545454545,0.06818181818182012,0.13409090909091148,50,0.05,0.15000000000000002
346,69,50,28.261363636363637,28.343181818181815,0.08181818181817846,0.1090909090909058,50,0.1,0.1
347,64,57,28.370454545454542,28.409090909090907,0.038636363636364024,0.0022727272727287584,55,0.05,0
348,61,55,28.37272727272727,28.45,0.07727272727272805,0.12272727272727124,55,0.1,0.1
349,69,62,28.495454545454542,28.593181818181815,0.09772727272727266,0.125,60,0.1,0.1
350,53,52,28.620454545454542,28.688636363636363,0.06818181818182012,0.004545454545457517,50,0.05,0
351,62,61,28.625,28.702272727272724,0.0772727272727245,0.14545454545454461,60,0.1,0.15000000000000002
352,69,40,28.770454545454545,28.831818181818182,0.0613636363636374,0.0931818181818187,40,0.05,0.1
353,65,51,28.863636363636363,28.922727272727272,0.05909090909090864,0.011363636363636687,50,0.05,0
354,62,50,28.875,28.956818181818182,0.08181818181818201,0.125,50,0.1,0.1
355,61,54,29,29.099999999999998,0.09999999999999787,0.12272727272727124,55,0.1,0.1
356,62,55,29.12272727272727,29.209090909090907,0.08636363636363598,0.0022727272727287584,55,0.1,0
357,53,54,29.125,29.18409090909091,0.05909090909090864,0.12954545454545396,55,0.05,0.15000000000000002
358,69,57,29.254545454545454,29.331818181818182,0.07727272727272805,0.1363636363636367,55,0.1,0.15000000000000002
359,62,55,29.39090909090909,29.443181818181817,0.052272727272725916,0.009090909090907928,55,0.05,0
360,65,52,29.4,29.436363636363634,0.036363636363635266,0.0954545454545439,50,0.05,0.1
361,69,62,29.495454545454542,29.581818181818182,0.08636363636363953,0.1409090909090942,60,0.1,0.15000000000000002
362,62,57,29.636363636363637,29.690909090909088,0.05454545454545112,0.013636363636361892,55,0.05,0
363,53,46,29.65,29.7,0.05000000000000071,0.0954545454545439,45,0.05,0.1
364,69,54,29.745454545454542,29.827272727272724,0.08181818181818201,0.1409090909090942,55,0.1,0.15000000000000002
365,62,40,29.886363636363637,29.95,0.0636363636363626,0.013636363636361892,40,0.05,0
366,65,45,29.9,29.938636363636363,0.038636363636364024,0.08863636363636473,45,0.05,0.1
367,69,56,29.988636363636363,30.086363636363636,0.09772727272727266,0.1363636363636367,55,0.1,0.15000000000000002
368,64,58,30.125,30.190909090909088,0.06590909090908781,0.013636363636361892,60,0.05,0
369,61,49,30.138636363636362,30.18181818181818,0.04318181818181799,0.11363636363636331,50,0.05,0.1
370,69,55,30.252272727272725,30.370454545454542,0.11818181818181728,0.1431818181818194,55,0.1,0.15000000000000002
371,67,48,30.395454545454545,30.43181818181818,0.036363636363635266,0.125,50,0.05,0.1
372,62,51,30.520454545454545,30.586363636363636,0.06590909090909136,0.10681818181818059,50,0.05,0.1
373,64,59,30.627272727272725,30.718181818181815,0.09090909090908994,0.011363636363636687,60,0.1,0
374,61,54,30.638636363636362,30.693181818181817,0.054545454545454675,0.12727272727272876,55,0.05,0.15000000000000002
375,69,56,30.76590909090909,30.825,0.05909090909090864,0.12045454545454248,55,0.05,0.1
376,67,52,30.886363636363633,30.929545454545455,0.04318181818182154,0.0022727272727287584,50,0.05,0
377,64,55,30.888636363636362,30.94772727272727,0.05909090909090864,0.125,55,0.05,0.1
378,69,49,31.013636363636362,31.07272727272727,0.05909090909090864,0.125,50,0.05,0.1
379,61,50,31.138636363636362,31.2,0.0613636363636374,0.009090909090907928,50,0.05,0
380,64,50,31.14772727272727,31.204545454545453,0.05681818181818343,0.10000000000000142,50,0.05,0.1
381,69,49,31.24772727272727,31.318181818181817,0.07045454545454533,0.1431818181818194,50,0.05,0.15000000000000002
382,64,48,31.39090909090909,31.456818181818182,0.06590909090909136,0.009090909090907928,50,0.05,0
383,67,43,31.4,31.43409090909091,0.03409090909091006,0.09772727272727266,45,0.05,0.1
384,69,55,31.49772727272727,31.547727272727272,0.05000000000000071,0.12272727272727124,55,0.05,0.1
385,65,55,31.620454545454542,31.768181818181816,0.14772727272727337,0.06363636363636616,55,0.15000000000000002,0.05
386,69,70,31.68409090909091,31.779545454545453,0.0954545454545439,0.11818181818181728,70,0.1,0.1
387,71,34,31.802272727272726,31.845454545454544,0.04318181818181799,0.0068181818181827225,35,0.05,0
388,73,64,31.80909090909091,31.904545454545453,0.0954545454545439,0.07954545454545325,65,0.1,0.1
389,74,64,31.888636363636362,32,0.11136363636363811,0.07272727272727408,65,0.1,0.05
390,65,37,31.961363636363636,31.993181818181817,0.0318181818181813,0.05227272727272947,35,0.05,0.05
391,69,67,32.013636363636365,32.08181818181818,0.06818181818181301,0.11363636363635976,65,0.05,0.1
392,65,57,32.127272727272725,32.23863636363636,0.11136363636363455,0.020454545454548168,55,0.1,0
393,62,49,32.14772727272727,32.19090909090909,0.043181818181814435,0.09090909090908639,50,0.05,0.1
394,69,67,32.23863636363636,32.31818181818182,0.07954545454546036,0.15000000000000568,65,0.1,0.15000000000000002
395,74,63,32.388636363636365,32.461363636363636,0.07272727272727053,0.03863636363635692,65,0.05,0.05
396,65,33,32.42727272727272,32.470454545454544,0.04318181818182154,0.08181818181818556,35,0.05,0.1
397,69,59,32.50909090909091,32.57272727272727,0.0636363636363626,0.13181818181818272,60,0.05,0.15000000000000002
398,65,50,32.64090909090909,32.70454545454545,0.0636363636363626,0,50,0.05,0
399,62,52,32.64090909090909,32.68863636363636,0.04772727272727195,0.11136363636363455,50,0.05,0.1
400,69,62,32.752272727272725,32.809090909090905,0.05681818181817988,0.13636363636364024,60,0.05,0.15000000000000002
401,65,55,32.888636363636365,32.93181818181818,0.043181818181814435,0,55,0.05,0
402,74,66,32.888636363636365,33.01136363636363,0.12272727272726769,0.125,65,0.1,0.1
403,69,55,33.013636363636365,33.059090909090905,0.04545454545453964,0.14545454545454106,55,0.05,0.15000000000000002
404,60,59,33.15909090909091,33.211363636363636,0.05227272727272947,0.009090909090907928,60,0.05,0
405,66,70,33.168181818181814,33.25681818181818,0.08863636363636829,0.13636363636364024,70,0.1,0.15000000000000002
406,74,66,33.304545454545455,33.4,0.0954545454545439,0.11363636363635976,65,0.1,0.1
407,69,58,33.418181818181814,33.46363636363636,0.045454545454546746,0.0068181818181827225,60,0.05,0
408,66,68,33.425,33.52045454545454,0.0954545454545439,0.1272727272727252,70,0.1,0.15000000000000002
409,64,63,33.55227272727272,33.64090909090909,0.08863636363636829,0.12045454545454959,65,0.1,0.1
410,60,62,33.67272727272727,33.72272727272727,0.04999999999999716,0.004545454545450411,60,0.05,0
411,66,68,33.67727272727272,33.75909090909091,0.08181818181818556,0.13181818181818272,70,0.1,0.15000000000000002
412,74,64,33.809090909090905,33.861363636363635,0.05227272727272947,0.1227272727272748,65,0.05,0.1
413,69,70,33.93181818181818,33.98409090909091,0.05227272727272947,0.0022727272727252057,70,0.05,0
414,66,73,33.934090909090905,33.98409090909091,0.05000000000000426,0.13181818181818272,75,0.05,0.15000000000000002
415,74,66,34.06590909090909,34.12272727272727,0.05681818181817988,0.11818181818181728,65,0.05,0.1
416,60,67,34.184090909090905,34.23409090909091,0.05000000000000426,0.013636363636365445,65,0.05,0
417,66,73,34.19772727272727,34.25681818181818,0.05909090909091219,0.13863636363636545,75,0.05,0.15000000000000002
418,74,69,34.336363636363636,34.41590909090909,0.07954545454545325,0.11136363636363455,70,0.1,0.1
419,69,71,34.44772727272727,34.49545454545454,0.04772727272727195,0.009090909090907928,70,0.05,0
420,66,71,34.45681818181818,34.559090909090905,0.10227272727272663,0.11590909090909207,70,0.1,0.1
421,74,72,34.57272727272727,34.668181818181814,0.0954545454545439,0.10227272727272663,70,0.1,0.1
422,67,72,34.675,34.78181818181818,0.10681818181818414,0.013636363636365445,70,0.1,0
423,59,63,34.68863636363636,34.76590909090909,0.07727272727272805,0.06818181818182012,65,0.1,0.05
424,69,71,34.75681818181818,34.85,0.0931818181818187,0.06818181818181301,70,0.1,0.05
425,71,74,34.824999999999996,34.92727272727272,0.10227272727272663,0.056818181818186986,75,0.1,0.05
426,72,68,34.88181818181818,34.96363636363636,0.08181818181817846,0.04772727272727195,70,0.1,0.05
427,67,68,34.929545454545455,34.96818181818182,0.038636363636364024,0.004545454545450411,70,0.05,0
428,74,85,34.934090909090905,35.00454545454545,0.07045454545454533,0.15000000000000568,85,0.05,0.15000000000000002
429,71,74,35.08409090909091,35.138636363636365,0.054545454545454675,0.10909090909090224,75,0.05,0.1
430,67,68,35.19318181818181,35.252272727272725,0.05909090909091219,0.125,70,0.05,0.1
431,71,76,35.31818181818181,35.37954545454545,0.0613636363636374,0.1227272727272748,75,0.05,0.1
432,74,83,35.44090909090909,35.53409090909091,0.0931818181818187,0.009090909090907928,85,0.1,0
433,67,73,35.449999999999996,35.49545454545454,0.045454545454546746,0.11136363636364166,75,0.05,0.1
434,71,75,35.56136363636364,35.64090909090909,0.07954545454545325,0.1295454545454504,75,0.1,0.15000000000000002
435,59,75,35.69090909090909,35.76590909090909,0.07500000000000284,0.0068181818181827225,75,0.1,0
436,67,79,35.69772727272727,35.763636363636365,0.06590909090909491,0.11590909090909207,80,0.05,0.1
437,71,83,35.81363636363636,35.90909090909091,0.0954545454545439,0.12045454545454248,85,0.1,0.1
438,67,81,35.934090909090905,35.98863636363636,0.054545454545454675,0.018181818181822962,80,0.05,0
439,74,85,35.95227272727273,36.07272727272727,0.12045454545454248,0.10681818181817704,85,0.1,0.1
440,71,72,36.059090909090905,36.152272727272724,0.0931818181818187,0.11818181818181728,70,0.1,0.1
441,64,83,36.17727272727272,36.25681818181818,0.07954545454546036,0.01136363636364024,85,0.1,0
442,68,91,36.18863636363636,36.30681818181818,0.11818181818181728,0.11818181818181728,90,0.1,0.1
443,74,84,36.30681818181818,36.449999999999996,0.14318181818181586,0.12954545454545752,85,0.15000000000000002,0.15000000000000002
444,71,85,36.43636363636364,36.502272727272725,0.06590909090908781,0.011363636363633134,85,0.05,0
445,68,81,36.44772727272727,36.543181818181814,0.0954545454545439,0.10227272727272663,80,0.1,0.1
446,66,79,36.55,36.65,0.10000000000000142,0.1272727272727252,80,0.1,0.15000000000000002
447,68,83,36.67727272727272,36.77045454545454,0.0931818181818187,0.0068181818181827225,85,0.1,0
448,64,67,36.684090909090905,36.736363636363635,0.05227272727272947,0.0068181818181827225,65,0.05,0
449,65,72,36.69090909090909,36.725,0.03409090909091361,0.09772727272727622,70,0.05,0.1
450,74,82,36.788636363636364,36.89545454545454,0.10681818181817704,0.1295454545454504,80,0.1,0.15000000000000002
451,71,82,36.918181818181814,36.96818181818182,0.05000000000000426,0.002272727272732311,80,0.05,0
452,68,87,36.92045454545455,36.99772727272727,0.07727272727272094,0.12272727272726769,85,0.1,0.1
453,74,81,37.043181818181814,37.127272727272725,0.08409090909091077,0.1227272727272748,80,0.1,0.1
454,68,90,37.16590909090909,37.25681818181818,0.09090909090909349,0.0022727272727252057,90,0.1,0
455,64,78,37.168181818181814,37.236363636363635,0.06818181818182012,0.11590909090909207,80,0.05,0.1
456,74,85,37.28409090909091,37.38636363636363,0.10227272727272663,0.1227272727272748,85,0.1,0.1
457,71,89,37.40681818181818,37.465909090909086,0.059090909090905086,0.0022727272727252057,90,0.05,0
458,68,83,37.40909090909091,37.53181818181818,0.1227272727272748,0.11590909090909207,85,0.1,0.1
459,74,77,37.525,37.67045454545455,0.14545454545454817,0.125,75,0.15000000000000002,0.1
460,57,75,37.65,38.10454545454545,0.45454545454545325,0.004545454545457517,75,0.45,0
461,72,90,37.654545454545456,38.25454545454545,0.5999999999999943,0.12045454545454248,90,0.6000000000000001,0.1
462,69,91,37.775,37.90909090909091,0.13409090909090793,0.13181818181818272,90,0.15000000000000002,0.15000000000000002
463,67,78,37.90681818181818,38.05,0.14318181818181586,0.12045454545454248,80,0.15000000000000002,0.1
464,65,77,38.027272727272724,38.12954545454545,0.10227272727272663,0.10454545454545894,75,0.1,0.1
465,64,70,38.13181818181818,38.25909090909091,0.1272727272727252,0.14090909090909065,70,0.15000000000000002,0.15000000000000002
466,62,70,38.27272727272727,38.42727272727272,0.154545454545449,0.12045454545454248,70,0.15000000000000002,0.1
467,60,66,38.393181818181816,38.54772727272727,0.1545454545454561,0.10909090909090935,65,0.15000000000000002,0.1
468,59,67,38.502272727272725,38.70227272727273,0.20000000000000284,0.13409090909090793,65,0.2,0.15000000000000002
469,57,66,38.63636363636363,38.752272727272725,0.11590909090909207,0.14545454545454817,65,0.1,0.15000000000000002
470,60,59,38.78181818181818,38.92045454545455,0.13863636363636545,0.13409090909090793,60,0.15000000000000002,0.15000000000000002
471,59,45,38.91590909090909,39.03181818181818,0.11590909090909207,0.10681818181818414,45,0.1,0.1
472,57,60,39.02272727272727,39.084090909090904,0.06136363636363029,0.125,60,0.05,0.1
473,65,58,39.14772727272727,39.23181818181818,0.08409090909090366,0.125,60,0.1,0.1
474,62,56,39.27272727272727,39.377272727272725,0.10454545454545183,0.11590909090908497,55,0.1,0.1
475,69,71,39.38863636363636,39.42272727272727,0.03409090909091361,0.015909090909097756,70,0.05,0
476,57,58,39.404545454545456,39.470454545454544,0.06590909090908781,0.14545454545454106,60,0.05,0.15000000000000002
477,62,52,39.55,39.62045454545454,0.07045454545454533,0.09090909090909349,50,0.05,0.1
478,74,68,39.64090909090909,39.67727272727272,0.03636363636363171,0.013636363636365445,70,0.05,0
479,65,58,39.654545454545456,39.72954545454545,0.07499999999999574,0.14318181818181586,60,0.05,0.15000000000000002
480,62,50,39.79772727272727,39.87045454545454,0.07272727272727053,0.0931818181818187,50,0.05,0.1
481,77,75,39.89090909090909,39.92727272727272,0.03636363636363171,0.011363636363633134,75,0.05,0
482,57,58,39.902272727272724,39.96818181818182,0.06590909090909491,0.14999999999999858,60,0.05,0.15000000000000002
483,62,47,40.05227272727272,40.10681818181818,0.054545454545454675,0.0931818181818187,45,0.05,0.1
484,81,67,40.14545454545454,40.18863636363636,0.04318181818182154,0.004545454545457517,65,0.05,0
485,65,49,40.15,40.21818181818182,0.06818181818182012,0.05681818181817988,50,0.05,0.05
486,80,75,40.20681818181818,40.29772727272727,0.09090909090909349,0.04090909090908923,75,0.1,0.05
487,62,52,40.24772727272727,40.375,0.1272727272727323,0.04772727272727906,50,0.15000000000000002,0.05
488,81,71,40.29545454545455,40.55227272727272,0.2568181818181756,0.10454545454545183,70,0.25,0.1
489,57,54,40.4,40.51590909090909,0.11590909090909207,0.13863636363636545,55,0.1,0.15000000000000002
490,62,58,40.538636363636364,40.61818181818182,0.07954545454545325,0.10227272727272663,60,0.1,0.1
491,64,62,40.64090909090909,40.75681818181818,0.11590909090909207,0.14545454545454106,60,0.1,0.15000000000000002
492,62,53,40.78636363636363,40.877272727272725,0.09090909090909349,0.10000000000000142,55,0.1,0.1
493,69,79,40.88636363636363,40.925,0.038636363636364024,0.01590909090909065,80,0.05,0
494,57,56,40.902272727272724,41.00909090909091,0.10681818181818414,0.14772727272727337,55,0.1,0.15000000000000002
495,62,55,41.05,41.10909090909091,0.05909090909091219,0.08636363636363598,55,0.05,0.1
496,72,90,41.13636363636363,41.19318181818181,0.05681818181817988,0.009090909090907928,90,0.05,0
497,64,59,41.14545454545454,41.23181818181818,0.08636363636363598,0.14318181818182296,60,0.1,0.15000000000000002
498,60,50,41.288636363636364,41.38636363636363,0.09772727272726911,0.09999999999999432,50,0.1,0.1
499,76,87,41.38863636363636,41.43636363636364,0.04772727272727906,0.002272727272732311,85,0.05,0
500,57,68,41.39090909090909,41.49090909090909,0.10000000000000142,0.11590909090909207,70,0.1,0.1
501,60,52,41.50681818181818,41.595454545454544,0.08863636363636118,0.11590909090908497,50,0.1,0.1
502,64,62,41.62272727272727,41.72954545454545,0.10681818181818414,0.025000000000005684,60,0.1,0.05
503,81,85,41.64772727272727,41.71363636363636,0.06590909090908781,0.06818181818181301,85,0.05,0.05
504,80,81,41.715909090909086,41.81363636363636,0.09772727272727622,0.029545454545456096,80,0.1,0.05
505,60,64,41.74545454545454,41.85227272727273,0.10681818181818414,0.03409090909090651,65,0.1,0.05
506,81,80,41.77954545454545,42.05681818181818,0.2772727272727309,0.07727272727272805,80,0.30000000000000004,0.1
507,57,66,41.85681818181818,41.99318181818182,0.13636363636364024,0.14545454545454817,65,0.15000000000000002,0.15000000000000002
508,60,67,42.002272727272725,42.10227272727273,0.10000000000000142,0.1227272727272748,65,0.1,0.1
509,62,83,42.125,42.25681818181818,0.13181818181818272,0.1295454545454504,85,0.15000000000000002,0.15000000000000002
510,59,73,42.25454545454545,42.38409090909091,0.12954545454545752,0.1227272727272748,75,0.15000000000000002,0.1
511,74,88,42.377272727272725,42.43636363636364,0.05909090909091219,0.009090909090907928,90,0.05,0
512,57,66,42.38636363636363,42.52045454545454,0.13409090909090793,0.1568181818181813,65,0.15000000000000002,0.15000000000000002
513,59,66,42.543181818181814,42.62954545454545,0.08636363636363598,0.09090909090909349,65,0.1,0.1
514,80,94,42.63409090909091,42.69772727272727,0.0636363636363626,0.011363636363633134,95,0.05,0
515,62,68,42.64545454545454,42.775,0.12954545454545752,0.14545454545454817,70,0.15000000000000002,0.15000000000000002
516,59,67,42.79090909090909,42.90454545454545,0.11363636363635976,0.11363636363635976,65,0.1,0.1
517,83,99,42.90454545454545,42.96363636363636,0.05909090909091219,0.004545454545457517,100,0.05,0
518,56,69,42.90909090909091,43.04772727272727,0.13863636363636545,0.1545454545454561,70,0.15000000000000002,0.15000000000000002
519,59,65,43.06363636363636,43.13636363636363,0.07272727272727053,0.09772727272726911,65,0.05,0.1
520,80,92,43.16136363636363,43.22272727272727,0.0613636363636374,0.004545454545457517,90,0.05,0
521,62,65,43.16590909090909,43.32272727272727,0.1568181818181813,0.14090909090909065,65,0.15000000000000002,0.15000000000000002
522,59,64,43.30681818181818,43.4,0.0931818181818187,0.10227272727272663,65,0.1,0.1
523,56,73,43.40909090909091,43.54090909090909,0.13181818181818272,0.0068181818181827225,75,0.15000000000000002,0
524,76,85,43.41590909090909,43.47727272727273,0.0613636363636374,0.14772727272727337,85,0.05,0.15000000000000002
525,59,62,43.56363636363636,43.652272727272724,0.08863636363636118,0.0931818181818187,60,0.1,0.1
526,81,88,43.65681818181818,43.95227272727273,0.29545454545454675,0.01590909090909065,90,0.30000000000000004,0
527,60,83,43.67272727272727,43.711363636363636,0.038636363636364024,0.26818181818181586,85,0.05,0.25
528,45,80,43.94090909090909,44.01590909090909,0.07500000000000284,0.0022727272727252057,80,0.1,0
529,79,82,43.94318181818181,44.070454545454545,0.1272727272727323,0.12045454545454959,80,0.15000000000000002,0.1
530,77,73,44.06363636363636,44.20454545454545,0.14090909090909065,0.12045454545454248,75,0.15000000000000002,0.1
531,76,80,44.184090909090905,44.31590909090909,0.13181818181818272,0.002272727272732311,80,0.15000000000000002,0
532,48,80,44.18636363636364,44.24772727272727,0.06136363636363029,0.14318181818181586,80,0.05,0.15000000000000002
533,74,74,44.32954545454545,44.44772727272727,0.11818181818181728,0.10227272727272663,75,0.1,0.1
534,52,79,44.43181818181818,44.47272727272727,0.04090909090908923,0.009090909090907928,80,0.05,0
535,72,85,44.44090909090909,44.57272727272727,0.13181818181818272,0.125,85,0.15000000000000002,0.1
536,71,83,44.56590909090909,44.675,0.10909090909090935,0.10681818181818414,85,0.1,0.1
537,57,84,44.67272727272727,44.73181818181818,0.059090909090905086,0.013636363636365445,85,0.05,0
538,69,84,44.68636363636364,44.8,0.11363636363635976,0.10454545454545183,85,0.1,0.1
539,72,77,44.79090909090909,44.92272727272727,0.13181818181818272,0.11818181818181728,75,0.15000000000000002,0.1
540,71,76,44.90909090909091,45.00454545454545,0.0954545454545439,0.0068181818181827225,75,0.1,0
541,60,80,44.91590909090909,44.965909090909086,0.04999999999999716,0.11363636363635976,80,0.05,0.1
542,69,74,45.02954545454545,45.15,0.12045454545454959,0.125,75,0.1,0.1
543,77,83,45.15454545454545,45.288636363636364,0.13409090909091503,0.004545454545457517,85,0.15000000000000002,0
544,62,84,45.15909090909091,45.211363636363636,0.05227272727272947,0.125,85,0.05,0.1
545,74,73,45.28409090909091,45.402272727272724,0.11818181818181728,0.1272727272727252,75,0.1,0.15000000000000002
546,65,79,45.41136363636363,45.486363636363635,0.07500000000000284,0.002272727272732311,80,0.1,0
547,69,73,45.413636363636364,45.53181818181818,0.11818181818181728,0.12045454545454248,75,0.1,0.1
548,74,72,45.53409090909091,45.663636363636364,0.12954545454545752,0.125,70,0.15000000000000002,0.1
549,57,69,45.65909090909091,45.70227272727273,0.04318181818182154,0,70,0.05,0
550,77,85,45.65909090909091,45.77045454545454,0.11136363636363455,0.12045454545454248,85,0.1,0.1
551,74,75,45.77954545454545,45.89090909090909,0.11136363636364166,0.125,75,0.1,0.1
552,69,72,45.90454545454545,46.018181818181816,0.11363636363636687,0,70,0.1,0
553,62,79,45.90454545454545,45.949999999999996,0.045454545454546746,0.11363636363636687,80,0.05,0.1
554,74,72,46.018181818181816,46.14545454545454,0.1272727272727252,0.12045454545454248,70,0.15000000000000002,0.1
555,50,77,46.13863636363636,46.19090909090909,0.05227272727272947,0.002272727272732311,75,0.05,0
556,77,86,46.14090909090909,46.28409090909091,0.14318181818181586,0.14318181818181586,85,0.15000000000000002,0.15000000000000002
557,74,76,46.28409090909091,46.39545454545454,0.11136363636363455,0.11136363636363455,75,0.1,0.1
558,59,94,46.39545454545454,46.45227272727273,0.056818181818186986,0.009090909090907928,95,0.05,0
559,69,78,46.40454545454545,46.53181818181818,0.1272727272727323,0.11363636363636687,80,0.15000000000000002,0.1
560,74,76,46.518181818181816,46.61363636363636,0.0954545454545439,0.125,75,0.1,0.1
561,60,74,46.643181818181816,46.68636363636364,0.04318181818182154,0.0022727272727252057,75,0.05,0
562,76,72,46.64545454545454,46.74772727272727,0.10227272727272663,0.11136363636364166,70,0.1,0.1
563,74,67,46.75681818181818,46.85681818181818,0.09999999999999432,0.14318181818181586,65,0.1,0.15000000000000002
564,69,57,46.9,47.043181818181814,0.14318181818181586,0.009090909090907928,55,0.15000000000000002,0
565,64,59,46.90909090909091,46.961363636363636,0.05227272727272947,0.1227272727272748,60,0.05,0.1
566,74,52,47.03181818181818,47.12045454545454,0.08863636363636118,0.10909090909090935,50,0.1,0.1
567,76,59,47.14090909090909,47.24545454545454,0.10454545454545183,0.004545454545450411,60,0.1,0
568,57,58,47.14545454545454,47.19090909090909,0.045454545454546746,0.13181818181818272,60,0.05,0.15000000000000002
569,72,58,47.277272727272724,47.37272727272727,0.0954545454545439,0.125,60,0.1,0.1
570,60,65,47.402272727272724,47.44090909090909,0.038636363636364024,0.0068181818181827225,65,0.05,0
571,69,56,47.40909090909091,47.51136363636363,0.10227272727272663,0.12045454545454248,55,0.1,0.1
572,72,58,47.52954545454545,47.59772727272727,0.06818181818182012,0.1272727272727323,60,0.05,0.15000000000000002
573,76,57,47.65681818181818,47.76363636363636,0.10681818181817704,0.0022727272727252057,55,0.1,0
574,48,52,47.65909090909091,47.70454545454545,0.045454545454546746,0.125,50,0.05,0.1
575,72,52,47.78409090909091,47.88636363636363,0.10227272727272663,0.10909090909090935,50,0.1,0.1
576,57,69,47.893181818181816,47.93863636363636,0.045454545454546746,0.018181818181815856,70,0.05,0
577,69,59,47.91136363636363,47.99772727272727,0.08636363636363598,0.1227272727272748,60,0.1,0.1
578,72,58,48.03409090909091,48.09318181818182,0.05909090909091219,0.09772727272727622,60,0.05,0.1
579,59,64,48.13181818181818,48.175,0.043181818181814435,0.022727272727266268,65,0.05,0
580,74,66,48.15454545454545,48.25909090909091,0.10454545454545894,0.13409090909091503,65,0.1,0.15000000000000002
581,71,62,48.288636363636364,48.377272727272725,0.08863636363636118,0.10681818181817704,60,0.1,0.1
582,62,58,48.39545454545454,48.445454545454545,0.05000000000000426,0.018181818181822962,60,0.05,0
583,69,59,48.413636363636364,48.47954545454545,0.06590909090908781,0.10227272727272663,60,0.05,0.1
584,71,58,48.51590909090909,48.611363636363635,0.0954545454545439,0.11363636363635976,60,0.1,0.1
585,74,61,48.62954545454545,48.72954545454545,0.10000000000000142,0.01136363636364024,60,0.1,0
586,56,59,48.64090909090909,48.68636363636364,0.045454545454546746,0.11363636363635976,60,0.05,0.1
587,71,57,48.75454545454545,48.845454545454544,0.09090909090909349,0.13181818181818272,55,0.1,0.15000000000000002
588,68,53,48.88636363636363,48.959090909090904,0.07272727272727053,0.01136363636364024,55,0.05,0
589,59,51,48.89772727272727,48.93181818181818,0.03409090909090651,0.08863636363636118,50,0.05,0.1
590,71,50,48.986363636363635,49.074999999999996,0.08863636363636118,0.13409090909090793,50,0.1,0.15000000000000002
591,74,65,49.12045454545454,49.21818181818182,0.09772727272727622,0.004545454545457517,65,0.1,0
592,64,58,49.125,49.17272727272727,0.04772727272727195,0.1295454545454504,60,0.05,0.15000000000000002
593,71,59,49.25454545454545,49.34318181818182,0.08863636363636829,0.11590909090909207,60,0.1,0.1
594,52,55,49.37045454545454,49.425,0.054545454545454675,0.01136363636364024,55,0.05,0
595,68,59,49.38181818181818,49.44318181818181,0.06136363636363029,0.12272727272726769,60,0.05,0.1
596,71,57,49.50454545454545,49.55681818181818,0.05227272727272947,0.12045454545454959,55,0.05,0.1
597,72,65,49.625,51.40454545454545,1.779545454545449,0.0022727272727252057,65,1.8,0
598,57,63,49.627272727272725,50.19772727272727,0.5704545454545453,0.125,65,0.55,0.1
599,69,74,49.752272727272725,50.19772727272727,0.4454545454545453,0.10227272727272663,75,0.45,0.1
600,67,72,49.85454545454545,50.19772727272727,0.3431818181818187,0.12045454545454248,70,0.35000000000000003,0.1
601,65,82,49.974999999999994,50.19772727272727,0.22272727272727622,0.11136363636364166,80,0.2,0.1
602,64,74,50.086363636363636,50.19772727272727,0.11136363636363455,0.10454545454545183,75,0.1,0.1
603,62,77,50.19090909090909,50.324999999999996,0.13409090909090793,0.14318181818181586,75,0.15000000000000002,0.15000000000000002
604,60,66,50.334090909090904,50.459090909090904,0.125,0.09090909090909349,65,0.1,0.1
605,59,64,50.425,50.55681818181818,0.13181818181818272,0.13863636363636545,65,0.15000000000000002,0.15000000000000002
606,57,64,50.56363636363636,50.63181818181818,0.06818181818182012,0.11363636363635976,65,0.05,0.1
607,60,59,50.67727272727272,50.80227272727272,0.125,0.13409090909091503,60,0.1,0.15000000000000002
608,52,60,50.81136363636364,50.918181818181814,0.10681818181817704,0.12272727272726769,60,0.1,0.1
609,55,54,50.934090909090905,51.04545454545454,0.11136363636363455,0.125,55,0.1,0.1
610,54,62,51.059090909090905,51.40454545454545,0.3454545454545439,0.12954545454545752,60,0.35000000000000003,0.15000000000000002
611,75,59,51.18863636363636,51.40454545454545,0.2159090909090864,0.14318181818181586,60,0.2,0.15000000000000002
612,74,57,51.33181818181818,51.418181818181814,0.08636363636363598,0.0022727272727252057,55,0.1,0
613,69,62,51.334090909090904,51.40454545454545,0.07045454545454533,0.11590909090909207,60,0.05,0.1
614,72,56,51.449999999999996,51.502272727272725,0.05227272727272947,0.1227272727272748,55,0.05,0.1
615,78,63,51.57272727272727,51.66136363636363,0.08863636363636118,0.018181818181815856,65,0.1,0
616,72,42,51.590909090909086,51.62954545454545,0.038636363636364024,0.1272727272727323,40,0.05,0.15000000000000002
617,75,41,51.71818181818182,51.79772727272727,0.07954545454545325,0.10681818181817704,40,0.1,0.1
618,74,51,51.824999999999996,51.88636363636363,0.0613636363636374,0.002272727272732311,50,0.05,0
619,69,57,51.82727272727273,51.87045454545454,0.043181818181814435,0.10681818181817704,55,0.05,0.1
620,72,53,51.934090909090905,51.99545454545454,0.0613636363636374,0.1227272727272748,55,0.05,0.1
621,81,69,52.05681818181818,52.15454545454545,0.09772727272726911,0.018181818181815856,70,0.1,0
622,66,55,52.074999999999996,52.115909090909085,0.04090909090908923,0.12954545454545752,55,0.05,0.15000000000000002
623,75,42,52.20454545454545,52.3,0.0954545454545439,0.14772727272727337,40,0.1,0.15000000000000002
624,62,56,52.35227272727273,52.40454545454545,0.052272727272722364,0.09772727272726911,55,0.05,0.1
625,72,43,52.449999999999996,52.52272727272727,0.07272727272727764,0.11363636363636687,45,0.05,0.1
626,70,62,52.56363636363636,52.62045454545454,0.05681818181817988,0.020454545454541062,60,0.05,0
627,67,64,52.584090909090904,52.62045454545454,0.03636363636363882,0.10909090909090935,65,0.05,0.1
628,79,59,52.69318181818181,52.81590909090909,0.1227272727272748,0.12954545454545752,60,0.1,0.15000000000000002
629,77,65,52.82272727272727,52.93181818181818,0.10909090909090935,0.009090909090907928,65,0.1,0
630,55,64,52.83181818181818,52.88636363636363,0.054545454545454675,0.12045454545454959,65,0.05,0.1
631,75,64,52.95227272727273,53.10227272727273,0.14999999999999858,0.12045454545454248,65,0.15000000000000002,0.1
632,58,70,53.07272727272727,53.127272727272725,0.054545454545454675,0.01590909090909065,70,0.05,0
633,74,58,53.08863636363636,53.18181818181818,0.0931818181818187,0.125,60,0.1,0.1
634,72,56,53.21363636363636,53.320454545454545,0.10681818181818414,0.13181818181818272,55,0.1,0.15000000000000002
635,62,61,53.345454545454544,53.38863636363636,0.043181818181814435,0.004545454545450411,60,0.05,0
636,70,55,53.349999999999994,53.434090909090905,0.08409090909091077,0.10000000000000142,55,0.1,0.1
637,69,65,53.449999999999996,53.525,0.07500000000000284,0.13863636363636545,65,0.1,0.15000000000000002
638,72,67,53.58863636363636,53.684090909090905,0.0954545454545439,0.004545454545457517,65,0.1,0
639,67,66,53.59318181818182,53.643181818181816,0.04999999999999716,0.11590909090908497,65,0.05,0.1
640,70,59,53.709090909090904,53.82954545454545,0.12045454545454959,0.12045454545454959,60,0.1,0.1
641,69,64,53.82954545454545,53.91590909090909,0.08636363636363598,0.018181818181815856,65,0.1,0
642,65,55,53.84772727272727,53.88863636363636,0.04090909090908923,0.09090909090909349,55,0.05,0.1
643,67,60,53.93863636363636,54.03409090909091,0.0954545454545439,0.125,60,0.1,0.1
644,72,73,54.06363636363636,54.10454545454545,0.04090909090908923,0.0022727272727252057,75,0.05,0
645,64,59,54.06590909090909,54.22727272727273,0.16136363636363882,0.13863636363636545,60,0.15000000000000002,0.15000000000000002
646,61,57,54.20454545454545,54.42727272727272,0.2227272727272691,0.1272727272727252,55,0.2,0.15000000000000002
647,76,78,54.33181818181818,54.37954545454545,0.04772727272727195,0,80,0.05,0
648,60,57,54.33181818181818,54.461363636363636,0.12954545454545752,0.12954545454545752,55,0.15000000000000002,0.15000000000000002
649,58,63,54.461363636363636,54.56818181818181,0.10681818181817704,0.12272727272726769,65,0.1,0.1
650,65,73,54.584090909090904,54.74318181818182,0.1590909090909136,0.01136363636364024,75,0.15000000000000002,0
651,71,86,54.595454545454544,54.65454545454545,0.059090909090905086,0.13636363636363313,85,0.05,0.15000000000000002
652,61,68,54.73181818181818,54.913636363636364,0.18181818181818699,0.10227272727272663,70,0.2,0.1
653,77,93,54.834090909090904,54.902272727272724,0.06818181818182012,0.018181818181822962,95,0.05,0
654,60,70,54.85227272727273,55.00454545454545,0.15227272727272378,0.14090909090909065,70,0.15000000000000002,0.15000000000000002
655,58,68,54.99318181818182,55.10681818181818,0.11363636363635976,0.10227272727272663,70,0.1,0.1
656,70,94,55.095454545454544,55.15681818181818,0.0613636363636374,0.02499999999999858,95,0.05,0
657,67,76,55.12045454545454,55.25454545454545,0.13409090909090793,0.1272727272727252,75,0.15000000000000002,0.15000000000000002
658,61,69,55.24772727272727,55.45227272727273,0.20454545454546036,0.125,70,0.2,0.1
659,60,66,55.37272727272727,55.527272727272724,0.1545454545454561,0.009090909090907928,65,0.15000000000000002,0
660,79,89,55.381818181818176,55.78181818181818,0.4000000000000057,0.08863636363636829,90,0.4,0.1
661,58,74,55.470454545454544,55.68181818181818,0.21136363636363598,0.14090909090909065,75,0.2,0.15000000000000002
662,57,73,55.611363636363635,55.74772727272727,0.13636363636363313,0.13409090909090793,75,0.15000000000000002,0.15000000000000002
663,74,73,55.74545454545454,55.85454545454545,0.10909090909090935,0.004545454545457517,75,0.1,0
664,65,75,55.75,55.86363636363636,0.11363636363635976,0.11590909090908497,75,0.1,0.1
665,64,73,55.865909090909085,55.97272727272727,0.10681818181818414,0.0068181818181827225,75,0.1,0
666,72,83,55.87272727272727,55.98863636363636,0.11590909090909207,0.11363636363636687,85,0.1,0.1
667,70,85,55.986363636363635,56.111363636363635,0.125,0.009090909090907928,85,0.1,0
668,62,78,55.99545454545454,56.125,0.12954545454545752,0.10909090909090935,80,0.15000000000000002,0.1
669,69,86,56.10454545454545,56.215909090909086,0.11136363636363455,0.018181818181815856,85,0.1,0
670,60,70,56.12272727272727,56.25909090909091,0.13636363636364024,0.10227272727272663,70,0.15000000000000002,0.1
671,79,89,56.224999999999994,56.39090909090909,0.16590909090909634,0.002272727272732311,90,0.15000000000000002,0
672,58,73,56.22727272727273,56.39772727272727,0.17045454545454675,0.125,75,0.15000000000000002,0.1
673,57,73,56.35227272727273,56.559090909090905,0.20681818181817846,0.004545454545450411,75,0.2,0
674,77,86,56.35681818181818,56.51363636363636,0.1568181818181813,0.11363636363636687,85,0.15000000000000002,0.1
675,76,87,56.470454545454544,56.61363636363636,0.14318181818181586,0.01590909090909065,85,0.15000000000000002,0
676,55,72,56.486363636363635,56.60227272727273,0.11590909090909207,0.10454545454545183,70,0.1,0.1
677,58,75,56.590909090909086,56.68636363636363,0.0954545454545439,0.002272727272732311,75,0.1,0
678,74,88,56.59318181818182,56.71818181818182,0.125,0.10909090909090935,90,0.1,0.1
679,57,83,56.70227272727273,56.836363636363636,0.13409090909090793,0.004545454545450411,85,0.15000000000000002,0
680,77,94,56.70681818181818,56.85227272727273,0.14545454545454817,0.125,95,0.15000000000000002,0.1
681,55,72,56.83181818181818,56.961363636363636,0.12954545454545752,0.0022727272727252057,70,0.15000000000000002,0
682,76,89,56.834090909090904,56.94090909090909,0.10681818181818414,0.11818181818182438,90,0.1,0.1
683,74,87,56.95227272727273,57.070454545454545,0.11818181818181728,0.009090909090907928,85,0.1,0
684,53,76,56.961363636363636,57.06136363636363,0.09999999999999432,0.125,75,0.1,0.1
685,73,86,57.086363636363636,57.345454545454544,0.25909090909090793,0.0068181818181827225,85,0.25,0
686,52,79,57.09318181818182,57.345454545454544,0.2522727272727252,0.13181818181817562,80,0.25,0.15000000000000002
687,70,77,57.224999999999994,57.349999999999994,0.125,0.0318181818181813,75,0.1,0.05
688,67,71,57.256818181818176,57.361363636363635,0.10454545454545894,0.11590909090909207,70,0.1,0.1
689,69,58,57.37272727272727,57.43181818181818,0.05909090909091219,0.03409090909091361,60,0.05,0.05
690,65,59,57.40681818181818,57.51590909090909,0.10909090909090935,0.059090909090905086,60,0.1,0.05
691,67,51,57.465909090909086,57.525,0.05909090909091219,0.05909090909091219,50,0.05,0.05
692,64,48,57.525,57.59772727272727,0.07272727272727053,0.08636363636363598,50,0.05,0.1
693,74,58,57.611363636363635,57.69318181818181,0.08181818181817846,0.027272727272723785,60,0.1,0.05
694,62,54,57.63863636363636,57.695454545454545,0.056818181818186986,0.08636363636363598,55,0.05,0.1
695,70,52,57.724999999999994,57.840909090909086,0.11590909090909207,0.04318181818182154,50,0.1,0.05
696,67,58,57.768181818181816,57.840909090909086,0.07272727272727053,0.10227272727272663,60,0.05,0.1
697,69,47,57.87045454545454,57.92727272727272,0.05681818181817988,0.02499999999999858,45,0.05,0
698,65,55,57.89545454545454,57.99545454545454,0.10000000000000142,0.07500000000000284,55,0.1,0.1
699,67,53,57.970454545454544,58.03181818181818,0.0613636363636374,0.045454545454546746,55,0.05,0.05
700,64,49,58.01590909090909,58.10454545454545,0.08863636363636118,0.08636363636363598,50,0.1,0.1
701,76,65,58.10227272727273,58.211363636363636,0.10909090909090935,0.043181818181814435,65,0.1,0.05
702,61,55,58.14545454545454,58.20681818181818,0.0613636363636374,0.10000000000000142,55,0.05,0.1
703,70,51,58.24545454545454,58.36363636363636,0.11818181818181728,0.009090909090907928,50,0.1,0
704,67,55,58.25454545454545,58.35454545454545,0.10000000000000142,0.13409090909090793,55,0.1,0.15000000000000002
705,69,52,58.38863636363636,58.45227272727272,0.0636363636363626,0.009090909090915034,50,0.05,0
706,65,50,58.39772727272727,58.445454545454545,0.04772727272727195,0.10681818181817704,50,0.05,0.1
707,67,59,58.50454545454545,58.55,0.045454545454546746,0.0068181818181827225,60,0.05,0
708,64,49,58.51136363636363,58.543181818181814,0.0318181818181813,0.10227272727272663,50,0.05,0.1
709,50,74,58.61363636363636,58.86363636363636,0.25,0.0068181818181827225,75,0.25,0
710,65,57,58.62045454545454,58.86363636363636,0.24318181818181728,0.14999999999999858,55,0.25,0.15000000000000002
711,63,75,58.77045454545454,58.86363636363636,0.0931818181818187,0.11818181818181728,75,0.1,0.1
712,66,57,58.88863636363636,58.925,0.03636363636363882,0.002272727272732311,55,0.05,0
713,62,68,58.89090909090909,59.00909090909091,0.11818181818181728,0.125,70,0.1,0.1
714,60,62,59.01590909090909,59.125,0.10909090909090935,0.125,60,0.1,0.1
715,67,58,59.14090909090909,59.175,0.03409090909090651,0.0022727272727252057,60,0.05,0
716,58,58,59.143181818181816,59.20454545454545,0.0613636363636374,0.14999999999999858,60,0.05,0.15000000000000002
717,60,50,59.293181818181814,59.393181818181816,0.10000000000000142,0.09772727272727622,50,0.1,0.1
718,58,56,59.39090909090909,59.506818181818176,0.11590909090908497,0.027272727272723785,55,0.1,0.05
719,69,48,59.418181818181814,59.449999999999996,0.0318181818181813,0.12045454545454959,50,0.05,0.1
720,57,45,59.538636363636364,59.61818181818182,0.07954545454545325,0.09999999999999432,45,0.1,0.1
721,55,57,59.63863636363636,59.76136363636363,0.1227272727272748,0.013636363636365445,55,0.1,0
722,70,57,59.652272727272724,59.69772727272727,0.045454545454546746,0.14318181818181586,55,0.05,0.15000000000000002
723,57,60,59.79545454545454,59.9,0.10454545454545894,0.09772727272727622,60,0.1,0.1
724,71,70,59.893181818181816,59.92727272727272,0.03409090909090651,0.022727272727273373,70,0.05,0
725,55,61,59.91590909090909,60.038636363636364,0.1227272727272748,0.13181818181818272,60,0.1,0.15000000000000002
726,53,56,60.04772727272727,60.179545454545455,0.13181818181818272,0.0954545454545439,55,0.15000000000000002,0.1
727,72,76,60.143181818181816,60.19772727272727,0.054545454545454675,0.0022727272727252057,75,0.05,0
728,52,63,60.14545454545454,60.22954545454545,0.08409090909091077,0.13409090909090793,65,0.1,0.15000000000000002
729,58,76,60.27954545454545,60.37272727272727,0.0931818181818187,0.11136363636364166,75,0.1,0.1
730,57,75,60.39090909090909,60.52954545454545,0.13863636363635834,0,75,0.15000000000000002,0
731,73,83,60.39090909090909,60.45227272727272,0.06136363636363029,0.13409090909090793,85,0.05,0.15000000000000002
732,55,69,60.525,60.643181818181816,0.11818181818181728,0.11136363636363455,70,0.1,0.1
733,53,75,60.63636363636363,60.74545454545454,0.10909090909090935,0.009090909090907928,75,0.1,0
734,74,87,60.64545454545454,60.695454545454545,0.05000000000000426,0.11136363636363455,85,0.05,0.1
735,55,77,60.756818181818176,60.89090909090909,0.13409090909091503,0.1227272727272748,75,0.15000000000000002,0.1
736,53,80,60.87954545454545,61.03181818181818,0.1522727272727309,0.018181818181815856,80,0.15000000000000002,0
737,76,103,60.897727272727266,60.961363636363636,0.06363636363636971,0.11818181818182438,105,0.05,0.1
738,52,74,61.01590909090909,61.15454545454545,0.13863636363635834,0.13409090909090793,75,0.15000000000000002,0.15000000000000002
739,50,78,61.15,61.3,0.14999999999999858,0.004545454545450411,80,0.15000000000000002,0
740,77,104,61.15454545454545,61.211363636363636,0.056818181818186986,0.13636363636364024,105,0.05,0.15000000000000002
741,51,86,61.29090909090909,61.39545454545454,0.10454545454545183,0.1227272727272748,85,0.1,0.1
742,50,88,61.413636363636364,61.56818181818181,0.154545454545449,0.009090909090907928,90,0.15000000000000002,0
743,78,104,61.42272727272727,61.49318181818182,0.07045454545454533,0.12045454545454248,105,0.05,0.1
744,48,81,61.543181818181814,61.71818181818182,0.17500000000000426,0.1590909090909065,80,0.2,0.15000000000000002
745,46,92,61.70227272727272,61.76590909090909,0.06363636363636971,0.004545454545457517,90,0.05,0
746,79,100,61.70681818181818,61.84318181818182,0.13636363636364024,0.1568181818181813,100,0.15000000000000002,0.15000000000000002
747,74,84,61.86363636363636,62.02045454545454,0.1568181818181813,0.16590909090908923,85,0.15000000000000002,0.15000000000000002
748,43,82,62.02954545454545,62.10454545454545,0.07500000000000284,0.0068181818181827225,80,0.1,0
749,82,99,62.03636363636363,62.20227272727272,0.16590909090908923,0.14318181818182296,100,0.15000000000000002,0.15000000000000002
750,81,85,62.179545454545455,62.34772727272727,0.16818181818181444,0.14772727272726627,85,0.15000000000000002,0.15000000000000002
751,46,84,62.32727272727272,62.4,0.07272727272727764,0.002272727272732311,85,0.05,0
752,79,90,62.32954545454545,62.449999999999996,0.12045454545454248,0.1272727272727252,90,0.1,0.15000000000000002
753,77,88,62.45681818181818,62.53409090909091,0.07727272727272805,0.11590909090909207,90,0.1,0.1
754,50,84,62.57272727272727,62.62954545454545,0.05681818181817988,0.004545454545450411,85,0.05,0
755,76,87,62.57727272727272,62.699999999999996,0.1227272727272748,0.1227272727272748,85,0.1,0.1
756,74,80,62.699999999999996,62.845454545454544,0.14545454545454817,0.13181818181818272,80,0.15000000000000002,0.15000000000000002
757,55,87,62.83181818181818,63.30227272727272,0.4704545454545439,0,85,0.45,0
758,73,91,62.83181818181818,62.95681818181818,0.125,0.1227272727272748,90,0.1,0.1
759,74,86,62.95454545454545,63.12272727272727,0.16818181818181444,0.12045454545454248,85,0.15000000000000002,0.1
760,76,87,63.074999999999996,63.21818181818181,0.14318181818181586,0.125,85,0.15000000000000002,0.1
761,73,85,63.199999999999996,63.324999999999996,0.125,0.13636363636364024,85,0.1,0.15000000000000002
762,69,95,63.336363636363636,63.397727272727266,0.06136363636363029,0.13409090909090793,95,0.05,0.15000000000000002
763,55,75,63.470454545454544,63.59318181818181,0.12272727272726769,0.12272727272726769,75,0.1,0.1
764,45,76,63.59318181818181,63.71363636363636,0.12045454545454959,0.004545454545457517,75,0.1,0
765,64,88,63.59772727272727,63.647727272727266,0.04999999999999716,0.1545454545454561,90,0.05,0.15000000000000002
766,43,73,63.752272727272725,63.85909090909091,0.10681818181818414,0.08863636363636118,75,0.1,0.1
767,69,90,63.840909090909086,63.88863636363636,0.04772727272727195,0.0068181818181827225,90,0.05,0
768,45,73,63.84772727272727,63.94318181818181,0.0954545454545439,0.1227272727272748,75,0.1,0.1
769,55,73,63.970454545454544,64.07727272727273,0.10681818181818414,0.12045454545454959,75,0.1,0.1
770,45,69,64.0909090909091,64.19318181818181,0.10227272727271952,0.020454545454541062,70,0.1,0
771,73,87,64.11136363636363,64.15681818181818,0.045454545454546746,0.10681818181818414,85,0.05,0.1
772,55,71,64.21818181818182,64.33636363636363,0.11818181818181017,0.13636363636362603,70,0.1,0.15000000000000002
773,45,71,64.35454545454544,64.44772727272726,0.0931818181818187,0.018181818181830067,70,0.1,0
774,76,83,64.37272727272727,64.425,0.052272727272722364,0.056818181818172775,85,0.05,0.05
775,75,84,64.42954545454545,64.51818181818182,0.08863636363636829,0.04318181818182154,85,0.1,0.05
776,55,71,64.47272727272727,64.5840909090909,0.11136363636363455,0.02727272727273089,70,0.1,0.05
777,76,82,64.5,64.99318181818181,0.49318181818181017,0.0931818181818187,80,0.5,0.1
778,45,69,64.59318181818182,64.69090909090909,0.09772727272726911,0.125,70,0.1,0.1
779,55,74,64.71818181818182,64.83181818181818,0.11363636363635976,0.1272727272727252,75,0.1,0.15000000000000002
780,45,74,64.84545454545454,64.94772727272726,0.10227272727271952,0.1227272727272748,75,0.1,0.1
781,53,72,64.96818181818182,65.10454545454544,0.13636363636362603,0.006818181818175617,70,0.15000000000000002,0
782,69,61,64.975,65.1,0.125,0.004545454545450411,60,0.1,0
783,71,65,64.97954545454544,65.06818181818181,0.08863636363636829,0.10681818181818414,65,0.1,0.1
784,45,72,65.08636363636363,65.21363636363635,0.1272727272727252,0.018181818181815856,70,0.15000000000000002,0
785,65,75,65.10454545454544,65.22727272727272,0.1227272727272748,0.11590909090909918,75,0.1,0.1
786,69,86,65.22045454545454,65.35454545454544,0.13409090909090082,0,85,0.15000000000000002,0
787,43,75,65.22045454545454,65.36136363636363,0.14090909090909065,0.13409090909090082,75,0.15000000000000002,0.15000000000000002
788,45,78,65.35454545454544,65.46818181818182,0.11363636363637397,0.006818181818189828,80,0.1,0
789,74,87,65.36136363636363,65.48181818181818,0.12045454545454959,0.1227272727272748,85,0.1,0.1
790,69,85,65.48409090909091,65.57727272727273,0.0931818181818187,0.0022727272727252057,85,0.1,0
791,53,69,65.48636363636363,65.59772727272727,0.11136363636363455,0.1227272727272748,70,0.1,0.1
792,45,74,65.60909090909091,65.7090909090909,0.09999999999999432,0.004545454545450411,75,0.1,0
793,65,77,65.61363636363636,65.69318181818181,0.07954545454545325,0.09772727272726911,75,0.1,0.1
794,69,83,65.71136363636363,65.76818181818182,0.056818181818186986,0.0318181818181813,85,0.05,0.05
795,53,70,65.74318181818181,65.83636363636363,0.0931818181818187,0.10681818181818414,70,0.1,0.1
796,74,80,65.85,65.91818181818182,0.06818181818182723,0.009090909090915034,80,0.05,0
797,45,77,65.85909090909091,65.95,0.09090909090909349,0.05454545454544757,75,0.1,0.05
798,73,85,65.91363636363636,66.00227272727273,0.08863636363636829,0.0636363636363626,85,0.1,0.05
799,53,75,65.97727272727272,66.09318181818182,0.11590909090909918,0.006818181818189828,75,0.1,0
800,74,78,65.98409090909091,66.48636363636363,0.5022727272727252,0.10909090909090935,80,0.5,0.1
801,45,70,66.09318181818182,66.2,0.10681818181818414,0.13181818181817562,70,0.1,0.15000000000000002
802,53,70,66.225,66.34545454545454,0.12045454545454959,0.13181818181818983,70,0.1,0.15000000000000002
803,45,74,66.35681818181818,66.45454545454545,0.09772727272726911,0.10909090909090935,75,0.1,0.1
804,67,73,66.4659090909091,66.5909090909091,0.125,0.009090909090900823,75,0.1,0
805,52,74,66.475,66.60227272727272,0.1272727272727252,0.11363636363635976,75,0.15000000000000002,0.1
806,45,70,66.58863636363635,66.72954545454544,0.14090909090909065,0.013636363636365445,70,0.15000000000000002,0
807,64,75,66.60227272727272,66.725,0.1227272727272748,0.11590909090909918,75,0.1,0.1
808,67,87,66.71818181818182,66.825,0.10681818181818414,0.006818181818175617,85,0.1,0
809,43,75,66.725,66.86818181818181,0.14318181818181586,0.125,75,0.15000000000000002,0.1
810,72,91,66.85,66.96818181818182,0.11818181818182438,0.009090909090915034,90,0.1,0
811,45,75,66.85909090909091,66.96363636363635,0.10454545454544473,0.11590909090908497,75,0.1,0.1
812,67,80,66.975,67.07727272727273,0.10227272727273373,0.009090909090915034,80,0.1,0
813,52,66,66.98409090909091,67.1,0.11590909090908497,0.125,65,0.1,0.1
814,64,75,67.10909090909091,67.2090909090909,0.09999999999999432,0.004545454545450411,75,0.1,0
815,45,72,67.11363636363636,67.2159090909091,0.10227272727273373,0.0931818181818187,70,0.1,0.1
816,67,84,67.20681818181818,67.27954545454546,0.07272727272727764,0.03636363636363171,85,0.05,0.05
817,52,69,67.24318181818181,67.34545454545454,0.10227272727273373,0.10909090909090935,70,0.1,0.1
818,72,84,67.35227272727272,67.42727272727272,0.07500000000000284,0.01590909090909065,85,0.1,0
819,45,74,67.36818181818181,67.45681818181818,0.08863636363636829,0.0636363636363626,75,0.1,0.05
820,71,84,67.43181818181817,67.50454545454545,0.07272727272727764,0.04318181818182154,85,0.05,0.05
821,52,69,67.475,67.5840909090909,0.10909090909090935,0.025000000000005684,70,0.1,0.05
822,72,77,67.5,68.07272727272726,0.5727272727272634,0.0954545454545439,75,0.55,0.1
823,45,66,67.59545454545454,67.69545454545454,0.09999999999999432,0.13409090909090082,65,0.1,0.15000000000000002
824,52,64,67.72954545454544,67.87954545454545,0.15000000000000568,0.14545454545455527,65,0.15000000000000002,0.15000000000000002
825,45,53,67.875,68.04772727272727,0.17272727272727195,0.1295454545454504,55,0.15000000000000002,0.15000000000000002
826,65,56,68.00454545454545,68.13181818181818,0.1272727272727252,0.01136363636364024,55,0.15000000000000002,0
827,50,52,68.01590909090909,68.13863636363637,0.1227272727272748,0.1295454545454504,50,0.1,0.15000000000000002
828,62,63,68.14545454545454,68.28863636363636,0.14318181818181586,0.020454545454541062,65,0.15000000000000002,0
829,53,57,68.16590909090908,68.3,0.13409090909091503,0.11590909090909918,55,0.15000000000000002,0.1
830,65,67,68.28181818181818,68.40681818181818,0.125,0.02727272727273089,65,0.1,0.05
831,50,55,68.30909090909091,68.3840909090909,0.07499999999998863,0.10454545454544473,55,0.05,0.1
832,45,61,68.41363636363636,68.55,0.13636363636364024,0.004545454545464622,60,0.15000000000000002,0
833,70,74,68.41818181818182,68.55909090909091,0.14090909090909065,0.12272727272726058,75,0.15000000000000002,0.1
834,50,68,68.54090909090908,68.66590909090908,0.125,0.009090909090915034,70,0.1,0
835,65,74,68.55,68.65454545454546,0.10454545454545894,0.11818181818182438,75,0.1,0.1
836,53,64,68.66818181818182,68.77045454545454,0.10227272727271952,0.009090909090900823,65,0.1,0
837,62,68,68.67727272727272,68.81590909090909,0.13863636363636545,0.08636363636364308,70,0.15000000000000002,0.1
838,57,68,68.76363636363637,68.86136363636363,0.09772727272726911,0.011363636363626028,70,0.1,0
839,65,71,68.77499999999999,68.8840909090909,0.10909090909090935,0.11818181818182438,70,0.1,0.1
840,70,82,68.89318181818182,69.01590909090909,0.1227272727272748,0.0022727272727252057,80,0.1,0
841,43,70,68.89545454545454,69.03181818181818,0.13636363636364024,0.11136363636363455,70,0.15000000000000002,0.1
842,67,77,69.00681818181818,69.11818181818181,0.11136363636363455,0.036363636363645924,75,0.1,0.05
843,52,71,69.04318181818182,69.12272727272727,0.07954545454545325,0.09090909090907928,70,0.1,0.1
844,55,74,69.1340909090909,69.27272727272727,0.13863636363636545,0.004545454545464622,75,0.15000000000000002,0
845,64,69,69.13863636363637,69.22272727272727,0.08409090909090366,0.10909090909090935,70,0.1,0.1
846,67,73,69.24772727272727,69.35909090909091,0.11136363636363455,0.02727272727271668,75,0.1,0.05
847,58,76,69.27499999999999,69.37727272727273,0.10227272727273373,0.10681818181818414,75,0.1,0.1
848,61,78,69.38181818181818,69.48863636363636,0.10681818181818414,0.01136363636364024,80,0.1,0
849,55,75,69.39318181818182,69.42954545454545,0.03636363636363171,0.1227272727272748,75,0.05,0.1
850,69,72,69.51590909090909,69.64090909090909,0.125,0.1295454545454504,70,0.1,0.15000000000000002
851,49,69,69.64545454545454,69.68409090909091,0.03863636363637113,0.006818181818189828,70,0.05,0
852,70,71,69.65227272727273,69.75454545454545,0.10227272727271952,0.13636363636362603,70,0.1,0.15000000000000002
853,69,72,69.78863636363636,69.87954545454545,0.09090909090909349,0.11363636363637397,70,0.1,0.1
854,52,73,69.90227272727273,69.94090909090909,0.03863636363635692,0.01590909090909065,75,0.05,0
855,61,69,69.91818181818182,69.97954545454544,0.061363636363623186,0.1272727272727252,70,0.05,0.15000000000000002
856,69,67,70.04545454545455,70.31590909090909,0.27045454545454106,0.10681818181818414,65,0.25,0.1
857,43,77,70.15227272727273,70.40681818181818,0.2545454545454504,0.024999999999991473,75,0.25,0
858,70,79,70.17727272727272,70.40681818181818,0.22954545454545894,0.13863636363636545,80,0.25,0.15000000000000002
859,69,69,70.31590909090909,70.40681818181818,0.09090909090909349,0.10227272727273373,70,0.1,0.1
860,61,87,70.41818181818182,70.47727272727272,0.05909090909089798,0.14090909090909065,85,0.05,0.15000000000000002
861,46,73,70.55909090909091,70.70681818181818,0.14772727272726627,0.13636363636362603,75,0.15000000000000002,0.15000000000000002
862,45,73,70.69545454545454,70.85,0.1545454545454561,0.004545454545464622,75,0.15000000000000002,0
863,64,87,70.7,71.07954545454545,0.3795454545454504,0.13409090909090082,85,0.4,0.15000000000000002
864,43,69,70.8340909090909,70.96363636363635,0.1295454545454504,0.11590909090909918,70,0.15000000000000002,0.1
865,41,76,70.95,71.05227272727272,0.10227272727271952,0.14545454545454106,75,0.1,0.15000000000000002
866,53,65,71.09545454545454,71.20681818181818,0.11136363636363455,0.004545454545450411,65,0.1,0
867,69,70,71.1,71.20454545454545,0.10454545454545894,0.11590909090909918,70,0.1,0.1
868,70,71,71.2159090909091,71.34318181818182,0.1272727272727252,0.004545454545450411,70,0.15000000000000002,0
869,52,63,71.22045454545454,71.32727272727273,0.10681818181818414,0.13863636363636545,65,0.1,0.15000000000000002
870,69,69,71.35909090909091,71.4659090909091,0.10681818181818414,0.004545454545450411,70,0.1,0
871,53,65,71.36363636363636,71.46136363636363,0.09772727272726911,0.12045454545454959,65,0.1,0.1
872,62,79,71.48409090909091,71.60454545454544,0.12045454545453538,0.0022727272727252057,80,0.1,0
873,41,73,71.48636363636363,71.575,0.08863636363636829,0.13409090909090082,75,0.1,0.15000000000000002
874,69,74,71.62045454545454,71.73409090909091,0.11363636363637397,0.01136363636364024,75,0.1,0
875,53,60,71.63181818181818,71.73636363636363,0.10454545454545894,0.11590909090909918,60,0.1,0.1
876,52,61,71.74772727272727,71.85227272727272,0.10454545454544473,0.009090909090900823,60,0.1,0
877,70,73,71.75681818181818,71.87272727272727,0.11590909090909918,0.1227272727272748,75,0.1,0.1
878,69,71,71.87954545454545,71.98409090909091,0.10454545454545894,0.013636363636365445,70,0.1,0
879,53,63,71.89318181818182,71.98409090909091,0.09090909090909349,0.09999999999999432,65,0.1,0.1
880,62,87,71.99318181818181,72.05,0.056818181818186986,0.009090909090915034,85,0.05,0
881,41,74,72.00227272727273,72.1,0.09772727272726911,0.13636363636364024,75,0.1,0.15000000000000002
882,53,72,72.13863636363637,72.27954545454546,0.14090909090909065,0.12272727272726058,70,0.15000000000000002,0.1
883,52,71,72.26136363636363,72.38636363636363,0.125,0.020454545454555273,70,0.1,0
884,65,86,72.28181818181818,72.64090909090909,0.35909090909090935,0.12045454545453538,85,0.35000000000000003,0.1
885,50,72,72.40227272727272,72.5340909090909,0.13181818181818983,0.12727272727273942,70,0.15000000000000002,0.15000000000000002
886,49,87,72.52954545454546,72.57272727272726,0.04318181818180733,0.125,85,0.05,0.1
887,67,72,72.65454545454546,72.74772727272727,0.0931818181818187,0.11818181818181017,70,0.1,0.1
888,40,81,72.77272727272727,72.81818181818181,0.045454545454546746,0.020454545454555273,80,0.05,0
889,69,79,72.79318181818182,72.9090909090909,0.11590909090908497,0.12045454545453538,80,0.1,0.1
890,67,75,72.91363636363636,73.01363636363637,0.10000000000000853,0.125,75,0.1,0.1
891,43,80,73.03863636363636,73.08636363636363,0.04772727272727195,0.006818181818189828,80,0.05,0
892,64,82,73.04545454545455,73.12954545454545,0.08409090909090366,0.11590909090908497,80,0.1,0.1
893,67,78,73.16136363636363,73.25227272727273,0.09090909090909349,0.14545454545454106,80,0.1,0.15000000000000002
894,37,84,73.30681818181817,73.34318181818182,0.036363636363645924,0.0022727272727394165,85,0.05,0
895,69,82,73.30909090909091,73.54318181818182,0.23409090909090935,0.09772727272726911,80,0.25,0.1
896,67,77,73.40681818181818,73.54318181818182,0.13636363636364024,0.13636363636364024,75,0.15000000000000002,0.15000000000000002
897,57,90,73.54318181818182,73.6,0.056818181818172775,0.15227272727271668,90,0.05,0.15000000000000002
898,49,80,73.69545454545454,73.83863636363635,0.14318181818181586,0.125,80,0.15000000000000002,0.1
899,47,77,73.82045454545454,74.00227272727273,0.18181818181818699,0.0022727272727252057,75,0.2,0
900,67,92,73.82272727272726,74.18409090909091,0.36136363636364877,0.13181818181818983,90,0.35000000000000003,0.15000000000000002
901,45,76,73.95454545454545,74.075,0.12045454545454959,0.1272727272727252,75,0.1,0.15000000000000002
902,50,89,74.08181818181818,74.14545454545454,0.0636363636363626,0.029545454545456096,90,0.05,0.05
903,48,48,74.11136363636363,74.11363636363636,0.0022727272727252057,0.09772727272726911,50,0,0.1
904,58,76,74.2090909090909,74.33636363636363,0.1272727272727252,0.14545454545454106,75,0.15000000000000002,0.15000000000000002
905,57,79,74.35454545454544,74.4659090909091,0.11136363636364877,0.018181818181830067,80,0.1,0
906,38,79,74.37272727272727,74.43409090909091,0.0613636363636374,0.0318181818181813,80,0.05,0.05
907,40,31,74.40454545454546,74.46136363636363,0.056818181818172775,0.0931818181818187,30,0.05,0.1
908,55,75,74.49772727272727,74.62272727272727,0.125,0.13181818181817562,75,0.1,0.15000000000000002
909,41,89,74.62954545454545,74.68181818181817,0.052272727272722364,0.018181818181815856,90,0.05,0
910,57,77,74.64772727272727,74.74545454545454,0.09772727272726911,0.125,75,0.1,0.1
911,64,81,74.77272727272727,74.95681818181818,0.1840909090909122,0.14772727272728048,80,0.2,0.15000000000000002
912,45,89,74.92045454545455,74.975,0.05454545454544757,0.013636363636365445,90,0.05,0
913,62,80,74.93409090909091,75.07272727272726,0.13863636363635123,0.14090909090909065,80,0.15000000000000002,0.15000000000000002
914,61,78,75.075,75.23636363636363,0.1613636363636317,0.1568181818181813,80,0.15000000000000002,0.15000000000000002
915,50,83,75.23181818181818,75.3409090909091,0.10909090909090935,0.013636363636351234,85,0.1,0
916,62,81,75.24545454545454,75.39545454545454,0.15000000000000568,0.07727272727272805,80,0.15000000000000002,0.1
917,49,82,75.32272727272726,75.43636363636364,0.11363636363637397,0.05909090909091219,80,0.1,0.05
918,67,80,75.38181818181818,75.52045454545454,0.13863636363636545,0.04999999999999716,80,0.15000000000000002,0.05
919,50,71,75.43181818181817,75.97727272727272,0.5454545454545467,0.08863636363636829,70,0.55,0.1
920,65,70,75.52045454545454,75.65454545454546,0.13409090909091503,0.13636363636364024,70,0.15000000000000002,0.15000000000000002
921,64,65,75.65681818181818,75.8,0.14318181818181586,0.14545454545454106,65,0.15000000000000002,0.15000000000000002
922,65,66,75.80227272727272,75.92272727272727,0.12045454545454959,0.14545454545454106,65,0.1,0.15000000000000002
923,58,65,75.94772727272726,76.08181818181818,0.13409090909091503,0.036363636363645924,65,0.15000000000000002,0.05
924,55,50,75.98409090909091,76.09318181818182,0.10909090909090935,0.09772727272726911,50,0.1,0.1
925,60,60,76.08181818181818,76.20681818181818,0.125,0.020454545454541062,60,0.1,0
926,57,58,76.10227272727272,76.20454545454545,0.10227272727273373,0.1227272727272748,60,0.1,0.1
927,62,55,76.225,76.33181818181818,0.10681818181818414,0.020454545454541062,55,0.1,0
928,58,52,76.24545454545454,76.35454545454544,0.10909090909090935,0.12727272727273942,50,0.1,0.15000000000000002
929,63,54,76.37272727272727,76.47272727272727,0.09999999999999432,0.022727272727266268,55,0.1,0
930,48,55,76.39545454545454,76.52045454545454,0.125,0.08863636363636829,55,0.1,0.1
931,57,58,76.48409090909091,76.63636363636363,0.15227272727271668,0.04999999999999716,60,0.15000000000000002,0.05
932,54,58,76.5340909090909,76.65681818181818,0.1227272727272748,0.0954545454545439,60,0.1,0.1
933,58,59,76.62954545454545,76.75454545454545,0.125,0.045454545454546746,60,0.1,0.05
934,55,49,76.675,76.75454545454545,0.07954545454545325,0.0954545454545439,50,0.1,0.1
935,60,53,76.77045454545454,76.93636363636364,0.16590909090909634,0.03636363636363171,55,0.15000000000000002,0.05
936,57,50,76.80681818181817,76.88636363636363,0.07954545454545325,0.10454545454545894,50,0.1,0.1
937,62,56,76.91136363636363,77.04545454545455,0.13409090909091503,0.020454545454541062,55,0.15000000000000002,0
938,46,55,76.93181818181817,77.07272727272726,0.14090909090909065,0.1227272727272748,55,0.15000000000000002,0.1
939,58,61,77.05454545454545,77.16363636363636,0.10909090909090935,0.004545454545464622,60,0.1,0
940,55,52,77.05909090909091,77.13181818181818,0.07272727272726343,0.125,50,0.05,0.1
941,57,57,77.18409090909091,77.3409090909091,0.1568181818181813,0.006818181818175617,55,0.15000000000000002,0
942,60,60,77.19090909090909,77.35,0.1590909090909065,0.1272727272727252,60,0.15000000000000002,0.15000000000000002
943,62,64,77.31818181818181,77.4590909090909,0.14090909090909065,0.013636363636365445,65,0.15000000000000002,0
944,58,64,77.33181818181818,77.44318181818181,0.11136363636363455,0.11818181818182438,65,0.1,0.1
945,63,75,77.45,77.54772727272727,0.09772727272726911,0.006818181818175617,75,0.1,0
946,48,62,77.45681818181818,77.60681818181818,0.15000000000000568,0.11818181818182438,60,0.15000000000000002,0.1
947,57,76,77.575,77.70227272727273,0.1272727272727252,0.022727272727266268,75,0.15000000000000002,0
948,54,66,77.59772727272727,77.71818181818182,0.12045454545454959,0.10909090909090935,65,0.1,0.1
949,58,80,77.70681818181818,77.82272727272726,0.11590909090908497,0.01136363636364024,80,0.1,0
950,55,63,77.71818181818182,77.83181818181818,0.11363636363635976,0.09999999999999432,65,0.1,0.1
951,60,78,77.81818181818181,77.99090909090908,0.17272727272727195,0.02727272727273089,80,0.15000000000000002,0.05
952,57,72,77.84545454545454,77.96136363636363,0.11590909090908497,0.11363636363635976,70,0.1,0.1
953,62,85,77.9590909090909,78.09318181818182,0.13409090909091503,0.0022727272727252057,85,0.15000000000000002,0
954,46,73,77.96136363636363,78.11818181818181,0.1568181818181813,0.1227272727272748,75,0.15000000000000002,0.1
955,58,88,78.0840909090909,78.19772727272726,0.11363636363635976,0.006818181818189828,90,0.1,0
956,55,77,78.0909090909091,78.20681818181818,0.11590909090908497,0.125,75,0.1,0.1
957,60,89,78.2159090909091,78.37045454545454,0.15454545454544188,0.004545454545450411,90,0.15000000000000002,0
958,57,82,78.22045454545454,78.36818181818181,0.14772727272726627,0.1295454545454504,80,0.15000000000000002,0.15000000000000002
959,58,82,78.35,78.41818181818181,0.06818181818181301,0.0022727272727252057,80,0.05,0
960,62,88,78.35227272727272,78.51136363636363,0.1590909090909065,0.14090909090909065,90,0.15000000000000002,0.15000000000000002
961,60,90,78.49318181818181,78.61136363636363,0.11818181818182438,0.013636363636365445,90,0.1,0
962,45,74,78.50681818181818,78.68863636363636,0.18181818181818699,0.12045454545454959,75,0.2,0.1
963,54,84,78.62727272727273,78.76136363636363,0.13409090909090082,0.0318181818181813,85,0.15000000000000002,0.05
964,50,69,78.6590909090909,78.79545454545455,0.13636363636364024,0.1227272727272748,70,0.15000000000000002,0.1
965,55,80,78.78181818181818,78.95,0.16818181818182154,0.01590909090909065,80,0.15000000000000002,0
966,52,80,78.79772727272727,78.93636363636364,0.13863636363636545,0.14318181818181586,80,0.15000000000000002,0.15000000000000002
967,57,87,78.94090909090909,79.19090909090909,0.25,0.004545454545450411,85,0.25,0
968,54,81,78.94545454545454,79.12954545454545,0.1840909090909122,0.2227272727272691,80,0.2,0.2
969,58,90,79.16818181818181,79.4090909090909,0.24090909090909918,0.009090909090915034,90,0.25,0
970,43,79,79.17727272727272,80.22045454545454,1.0431818181818215,0.2227272727272691,80,1.05,0.2
971,50,78,79.39999999999999,80.22045454545454,0.8204545454545524,0.16363636363637113,80,0.8,0.15000000000000002
972,52,71,79.56363636363636,80.22045454545454,0.6568181818181813,0.13636363636364024,70,0.65,0.15000000000000002
973,54,78,79.7,80.22045454545454,0.5204545454545411,0.11818181818181017,80,0.5,0.1
974,55,82,79.81818181818181,80.22045454545454,0.4022727272727309,0.11590909090909918,80,0.4,0.1
975,57,82,79.93409090909091,80.22045454545454,0.2863636363636317,0.11590909090908497,80,0.30000000000000004,0.1
976,58,84,80.05,80.22045454545454,0.17045454545454675,0.1227272727272748,85,0.15000000000000002,0.1
977,60,86,80.17272727272727,80.32272727272726,0.14999999999999147,0.1295454545454504,85,0.15000000000000002,0.15000000000000002
978,62,86,80.30227272727272,80.42272727272727,0.12045454545454959,0.13181818181818983,85,0.1,0.15000000000000002
979,58,90,80.43409090909091,80.53181818181818,0.09772727272726911,0.13636363636362603,90,0.1,0.15000000000000002
980,67,90,80.57045454545454,80.7090909090909,0.13863636363636545,0.1545454545454561,90,0.15000000000000002,0.15000000000000002
981,62,85,80.725,80.9090909090909,0.1840909090909122,0.18181818181818699,85,0.2,0.2
982,70,85,80.90681818181818,81.09318181818182,0.1863636363636374,0.17727272727272236,85,0.2,0.2
983,67,83,81.0840909090909,81.2159090909091,0.13181818181818983,0.14090909090909065,85,0.15000000000000002,0.15000000000000002
984,65,78,81.225,81.35454545454544,0.1295454545454504,0.1227272727272748,80,0.15000000000000002,0.1
985,63,79,81.34772727272727,81.48636363636363,0.13863636363636545,0.11363636363635976,80,0.15000000000000002,0.1
986,62,82,81.46136363636363,81.56818181818181,0.10681818181818414,0.10681818181818414,80,0.1,0.1
987,60,81,81.56818181818181,81.7159090909091,0.14772727272728048,0.12045454545454959,80,0.15000000000000002,0.1
988,58,80,81.68863636363636,81.81136363636364,0.1227272727272748,0.10681818181818414,80,0.1,0.1
989,57,82,81.79545454545455,81.91818181818181,0.12272727272726058,0.12272727272726058,80,0.1,0.1
990,55,80,81.91818181818181,82.05681818181817,0.13863636363636545,0.11590909090909918,80,0.15000000000000002,0.1
991,58,84,82.0340909090909,82.14090909090909,0.10681818181818414,0.14545454545454106,85,0.1,0.15000000000000002
992,52,83,82.17954545454545,82.34318181818182,0.16363636363637113,0.1590909090909065,85,0.15000000000000002,0.15000000000000002
993,55,86,82.33863636363635,82.56590909090909,0.22727272727273373,0.19772727272727764,85,0.25,0.2
994,49,87,82.53636363636363,83.07954545454545,0.5431818181818215,0.1568181818181813,85,0.55,0.15000000000000002
995,70,74,82.69318181818181,82.85909090909091,0.16590909090909634,0.13409090909091503,75,0.15000000000000002,0.15000000000000002
996,69,74,82.82727272727273,82.93181818181817,0.10454545454544473,0.1295454545454504,75,0.1,0.15000000000000002
997,67,68,82.95681818181818,83.04772727272727,0.09090909090909349,0.125,70,0.1,0.1
998,76,76,83.08181818181818,83.22727272727272,0.14545454545454106,0.13636363636364024,75,0.15000000000000002,0.15000000000000002
999,74,61,83.21818181818182,83.34545454545454,0.1272727272727252,0.11818181818181017,60,0.15000000000000002,0.1
1000,45,60,83.33636363636363,83.39318181818182,0.056818181818186986,0.01136363636364024,60,0.05,0
1001,73,67,83.34772727272727,83.48409090909091,0.13636363636364024,0.14090909090909065,65,0.15000000000000002,0.15000000000000002
1002,71,63,83.48863636363636,83.57727272727273,0.08863636363636829,0.11136363636363455,65,0.1,0.1
1003,47,65,83.6,83.64090909090909,0.040909090909096335,0.004545454545450411,65,0.05,0
1004,69,64,83.60454545454544,83.66818181818181,0.0636363636363626,0.12045454545454959,65,0.05,0.1
1005,67,57,83.725,83.83181818181818,0.10681818181818414,0.11818181818182438,55,0.1,0.1
1006,65,64,83.84318181818182,83.91590909090908,0.07272727272726343,0.01590909090909065,65,0.05,0
1007,49,60,83.85909090909091,83.89999999999999,0.040909090909082124,0.12045454545453538,60,0.05,0.1
1008,64,56,83.97954545454544,84.03181818181818,0.052272727272736574,0.12045454545454959,55,0.05,0.1
1009,50,65,84.1,84.1340909090909,0.03409090909090651,0.0022727272727252057,65,0.05,0
1010,65,67,84.10227272727272,84.18636363636364,0.08409090909091788,0.1227272727272748,65,0.1,0.1
1011,62,60,84.225,84.29090909090908,0.06590909090908781,0.1295454545454504,60,0.05,0.15000000000000002
1012,52,72,84.35454545454544,84.39772727272727,0.04318181818182154,0.004545454545464622,70,0.05,0
1013,67,73,84.35909090909091,84.46136363636363,0.10227272727271952,0.1272727272727252,75,0.1,0.15000000000000002
1014,62,63,84.48636363636363,84.58181818181818,0.0954545454545439,0.11363636363635976,65,0.1,0.1
1015,53,80,84.6,84.63636363636363,0.03636363636363171,0,80,0.05,0
1016,69,84,84.6,84.69772727272726,0.09772727272726911,0.13409090909091503,85,0.1,0.15000000000000002
1017,62,74,84.73409090909091,84.83636363636363,0.10227272727271952,0.10909090909090935,75,0.1,0.1
1018,55,82,84.84318181818182,84.89090909090909,0.04772727272727195,0.01590909090909065,80,0.05,0
1019,70,85,84.85909090909091,84.95454545454545,0.0954545454545439,0.10681818181818414,85,0.1,0.1
1020,62,72,84.9659090909091,85.00454545454545,0.03863636363635692,0.12045454545453538,70,0.05,0.1
1021,57,90,85.08636363636363,85.14772727272727,0.0613636363636374,0.08636363636364308,90,0.05,0.1
1022,62,73,85.17272727272727,85.2840909090909,0.11136363636363455,0.1613636363636317,75,0.1,0.15000000000000002
1023,64,76,85.3340909090909,85.45227272727273,0.11818181818182438,0.0022727272727252057,75,0.1,0
1024,45,76,85.33636363636363,85.38636363636363,0.04999999999999716,0.1272727272727252,75,0.05,0.15000000000000002
1025,61,73,85.46363636363635,85.59545454545454,0.13181818181818983,0.13636363636364024,75,0.15000000000000002,0.15000000000000002
1026,62,81,85.6,85.71136363636363,0.11136363636363455,0.013636363636365445,80,0.1,0
1027,48,58,85.61363636363636,85.64999999999999,0.03636363636363171,0.013636363636365445,60,0.05,0
1028,50,59,85.62727272727273,85.6590909090909,0.0318181818181813,0.08863636363636829,60,0.05,0.1
1029,60,78,85.7159090909091,85.84545454545454,0.1295454545454504,0.1272727272727252,80,0.15000000000000002,0.15000000000000002
1030,54,72,85.84318181818182,85.9590909090909,0.11590909090908497,0.009090909090900823,70,0.1,0
1031,57,71,85.85227272727272,85.89772727272727,0.045454545454546746,0.12954545454546462,70,0.05,0.15000000000000002
1032,60,64,85.98181818181818,86.09318181818182,0.11136363636363455,0.10909090909090935,65,0.1,0.1
1033,62,78,86.0909090909091,86.20227272727273,0.11136363636363455,0.004545454545450411,80,0.1,0
1034,50,76,86.09545454545454,86.13636363636363,0.040909090909082124,0.10909090909090935,75,0.05,0.1
1035,60,63,86.20454545454545,86.33636363636363,0.13181818181817562,0.13181818181817562,65,0.15000000000000002,0.15000000000000002
1036,54,75,86.33636363636363,86.45454545454545,0.11818181818182438,0.013636363636365445,75,0.1,0
1037,57,70,86.35,86.39090909090909,0.040909090909096335,0.11818181818182438,70,0.05,0.1
1038,60,66,86.46818181818182,86.55454545454545,0.08636363636362887,0.11590909090908497,65,0.1,0.1
1039,62,79,86.5840909090909,86.70227272727273,0.11818181818182438,0.0022727272727252057,80,0.1,0
1040,50,77,86.58636363636363,86.64090909090909,0.05454545454546178,0.1227272727272748,75,0.05,0.1
1041,60,76,86.7090909090909,86.82272727272726,0.11363636363635976,0.11818181818182438,75,0.1,0.1
1042,54,72,86.82727272727273,86.93181818181817,0.10454545454544473,0.006818181818175617,70,0.1,0
1043,57,73,86.8340909090909,86.875,0.040909090909096335,0.10681818181818414,75,0.05,0.1
1044,60,65,86.94090909090909,87.06590909090909,0.125,0.14772727272726627,65,0.1,0.15000000000000002
1045,50,63,87.08863636363635,87.14318181818182,0.05454545454546178,0.006818181818189828,65,0.05,0
1046,58,61,87.09545454545454,87.19772727272726,0.10227272727271952,0.125,60,0.1,0.1
1047,62,55,87.22045454545454,87.34318181818182,0.1227272727272748,0.13409090909090082,55,0.1,0.15000000000000002
1048,55,51,87.35454545454544,87.39999999999999,0.045454545454546746,0.01590909090909065,50,0.05,0
1049,58,59,87.37045454545454,87.4340909090909,0.0636363636363626,0.10681818181818414,60,0.05,0.1
1050,54,54,87.47727272727272,87.59318181818182,0.11590909090909918,0.11590909090909918,55,0.1,0.1
1051,58,60,87.59318181818182,87.70227272727273,0.10909090909090935,0.01590909090909065,60,0.1,0
1052,50,50,87.60909090909091,87.66136363636363,0.052272727272722364,0.11590909090908497,50,0.05,0.1
1053,62,53,87.725,87.85,0.125,0.13409090909091503,55,0.1,0.15000000000000002
1054,55,38,87.85909090909091,87.89772727272727,0.03863636363635692,0.013636363636365445,40,0.05,0
1055,58,54,87.87272727272727,87.92727272727272,0.05454545454544757,0.08409090909090366,55,0.05,0.1
1056,54,58,87.95681818181818,88.04090909090908,0.08409090909090366,0.1295454545454504,60,0.1,0.15000000000000002
1057,58,59,88.08636363636363,88.19090909090909,0.10454545454545894,0.018181818181815856,60,0.1,0
1058,50,45,88.10454545454544,88.1590909090909,0.05454545454546178,0.11818181818182438,45,0.05,0.1
1059,62,52,88.22272727272727,88.33636363636363,0.11363636363635976,0.11818181818182438,50,0.1,0.1
1060,55,60,88.3409090909091,88.39545454545454,0.05454545454544757,0.020454545454541062,60,0.05,0
1061,58,57,88.36136363636363,88.41136363636363,0.04999999999999716,0.08181818181817846,55,0.05,0.1
1062,52,67,88.44318181818181,88.57272727272726,0.1295454545454504,0.1272727272727252,65,0.15000000000000002,0.15000000000000002
1063,53,69,88.57045454545454,88.6590909090909,0.08863636363636829,0.013636363636365445,70,0.1,0
1064,50,55,88.5840909090909,88.65681818181818,0.07272727272727764,0.12045454545454959,55,0.05,0.1
1065,62,54,88.70454545454545,88.77499999999999,0.07045454545453822,0.11818181818181017,55,0.05,0.1
1066,57,54,88.82272727272726,88.87727272727273,0.05454545454546178,0.006818181818189828,55,0.05,0
1067,53,58,88.82954545454545,88.92727272727272,0.09772727272726911,0.1295454545454504,60,0.1,0.15000000000000002
1068,62,48,88.9590909090909,89.0340909090909,0.07500000000000284,0.11590909090908497,50,0.1,0.1
1069,50,50,89.07499999999999,89.13863636363637,0.06363636363637681,0.01136363636364024,50,0.05,0
1070,53,56,89.08636363636363,89.15454545454546,0.06818181818182723,0.1227272727272748,55,0.05,0.1
1071,62,51,89.2090909090909,89.2840909090909,0.07500000000000284,0.125,50,0.1,0.1
1072,53,50,89.3340909090909,89.39545454545454,0.0613636363636374,0.0022727272727252057,50,0.05,0
1073,57,49,89.33636363636363,89.38863636363637,0.052272727272736574,0.11818181818182438,50,0.05,0.1
1074,62,52,89.45454545454545,89.51363636363637,0.05909090909091219,0.11363636363635976,50,0.05,0.1
1075,53,46,89.56818181818181,89.64318181818182,0.07500000000000284,0.0318181818181813,45,0.1,0.05
1076,50,45,89.6,89.66590909090908,0.06590909090908781,0.07954545454545325,45,0.05,0.1
1077,62,49,89.67954545454545,89.74545454545454,0.06590909090908781,0.13409090909091503,50,0.05,0.15000000000000002
1078,53,46,89.81363636363636,89.89545454545454,0.08181818181817846,0.020454545454541062,45,0.1,0
1079,57,40,89.8340909090909,89.87954545454545,0.045454545454546746,0.09772727272726911,40,0.05,0.1
1080,62,49,89.93181818181817,90.01590909090909,0.08409090909091788,0.1272727272727252,50,0.1,0.15000000000000002
1081,55,55,90.0590909090909,90.15454545454546,0.09545454545455812,0.01590909090909065,55,0.1,0
1082,50,41,90.07499999999999,90.13181818181818,0.056818181818186986,0.13409090909091503,40,0.05,0.15000000000000002
1083,61,45,90.2090909090909,90.33636363636363,0.1272727272727252,0.09999999999999432,45,0.15000000000000002,0.1
1084,58,50,90.3090909090909,90.36136363636363,0.052272727272736574,0.045454545454546746,50,0.05,0.05
1085,55,40,90.35454545454544,90.44772727272726,0.0931818181818187,0.125,40,0.1,0.1
1086,52,37,90.47954545454544,90.65454545454546,0.17500000000001137,0.0954545454545439,35,0.2,0.1
1087,50,42,90.57499999999999,90.63636363636363,0.0613636363636374,0.036363636363645924,40,0.05,0.05
1088,55,50,90.61136363636363,90.69090909090909,0.07954545454545325,0.125,50,0.1,0.1
1089,61,50,90.73636363636363,90.87954545454545,0.14318181818181586,0.14090909090909065,50,0.15000000000000002,0.15000000000000002
1090,58,49,90.87727272727273,90.94999999999999,0.07272727272726343,0.01136363636364024,50,0.05,0
1091,55,48,90.88863636363637,91.01590909090909,0.1272727272727252,0.15454545454544188,50,0.15000000000000002,0.15000000000000002
1092,52,42,91.04318181818181,91.29772727272727,0.2545454545454646,0.16818181818182154,40,0.25,0.15000000000000002
1093,50,39,91.21136363636363,91.29318181818181,0.08181818181817846,0.004545454545464622,40,0.1,0
1094,55,40,91.2159090909091,91.37954545454545,0.16363636363635692,0.19772727272726343,40,0.15000000000000002,0.2
1095,61,45,91.41363636363636,91.67272727272727,0.25909090909091503,0.24090909090909918,45,0.25,0.25
1096,58,45,91.65454545454546,91.77499999999999,0.12045454545453538,0.013636363636351234,45,0.1,0
1097,55,36,91.66818181818181,91.98409090909091,0.315909090909102,0.306818181818187,35,0.30000000000000004,0.30000000000000004
1098,52,40,91.975,92.6840909090909,0.7090909090909037,0.6545454545454561,40,0.7000000000000001,0.65
1099,62,46,92.62954545454545,95.69772727272726,3.068181818181813,0.006818181818175617,45,3.0500000000000003,0
1100,57,34,92.63636363636363,95.69772727272726,3.0613636363636374,0.0022727272727394165,35,3.0500000000000003,0
1101,54,37,92.63863636363637,95.69772727272726,3.059090909090898,0.004545454545450411,35,3.0500000000000003,0
1102,50,21,92.64318181818182,95.73863636363636,3.095454545454544,6.959090909090904,20,3.1,6.95
1103,62,38,99.60227272727272,99.90454545454546,0.3022727272727366,0.20681818181817846,40,0.30000000000000004,0.2
1104,64,51,99.8090909090909,100.00681818181818,0.19772727272727764,0.16818181818182154,50,0.2,0.15000000000000002
1105,65,52,99.97727272727272,100.14090909090909,0.16363636363637113,0.17272727272727195,50,0.15000000000000002,0.15000000000000002
1106,67,52,100.14999999999999,100.35227272727272,0.20227272727272805,0.18181818181818699,50,0.2,0.2
1107,65,54,100.33181818181818,100.52272727272727,0.1909090909090878,0.17499999999999716,55,0.2,0.15000000000000002
1108,64,66,100.50681818181818,100.67045454545455,0.16363636363637113,0.17045454545454675,65,0.15000000000000002,0.15000000000000002
1109,65,68,100.67727272727272,100.86818181818181,0.1909090909090878,0.1568181818181813,70,0.2,0.15000000000000002
1110,67,70,100.8340909090909,101.00681818181818,0.17272727272727195,0.1613636363636317,70,0.15000000000000002,0.15000000000000002
1111,69,74,100.99545454545454,101.175,0.17954545454546178,0.16363636363637113,75,0.2,0.15000000000000002
1112,70,75,101.1590909090909,101.36818181818181,0.20909090909090366,0.16818181818182154,75,0.2,0.15000000000000002
1113,69,78,101.32727272727273,101.53181818181818,0.20454545454545325,0.17954545454544757,80,0.2,0.2
1114,67,75,101.50681818181818,101.77272727272727,0.26590909090909065,0.2477272727272748,75,0.25,0.25
1115,69,80,101.75454545454545,102.425,0.6704545454545467,0.6136363636363598,80,0.65,0.6000000000000001
1116,74,73,102.36818181818181,103.06590909090909,0.6977272727272776,0.5931818181818187,75,0.7000000000000001,0.6000000000000001
1117,73,72,102.96136363636363,103.60454545454544,0.6431818181818159,0.5886363636363683,70,0.65,0.6000000000000001
1118,72,60,103.55,104.1840909090909,0.6340909090909008,0.577272727272728,60,0.65,0.6000000000000001
1119,71,55,104.12727272727273,104.82954545454545,0.702272727272728,0.6045454545454447,55,0.7000000000000001,0.6000000000000001
1120,70,65,104.73181818181817,105.425,0.6931818181818272,0.6181818181818244,65,0.7000000000000001,0.6000000000000001
1121,69,73,105.35,106.10227272727272,0.7522727272727252,0.702272727272728,75,0.75,0.7000000000000001
1122,67,63,106.05227272727272,107.36363636363636,1.3113636363636374,1.2340909090909093,65,1.3,1.25
1123,65,51,107.28636363636363,107.89999999999999,0.6136363636363598,0.5863636363636289,50,0.6000000000000001,0.6000000000000001
1124,64,45,107.87272727272726,108.54318181818181,0.6704545454545467,0.6568181818181955,45,0.65,0.65
1125,69,48,108.52954545454546,109.15454545454546,0.625,0.625,50,0.6000000000000001,0.6000000000000001
1126,69,45,109.15454545454546,109.46136363636363,0.3068181818181728,0.009090909090900823,45,0.30000000000000004,0
1127,65,41,109.16363636363636,109.81363636363636,0.6500000000000057,0.2136363636363683,40,0.65,0.2
1128,71,55,109.37727272727273,109.56818181818181,0.1909090909090878,0.18181818181817277,55,0.2,0.2
1129,72,56,109.5590909090909,109.71590909090908,0.1568181818181813,0.17045454545454675,55,0.15000000000000002,0.15000000000000002
1130,62,46,109.72954545454544,110.24545454545454,0.5159090909090907,0.009090909090915034,45,0.5,0
1131,74,57,109.73863636363636,109.92272727272727,0.1840909090909122,0.17954545454544757,55,0.2,0.2
1132,72,63,109.91818181818181,110.09318181818182,0.17500000000001137,0.17272727272727195,65,0.2,0.15000000000000002
1133,71,67,110.09090909090908,110.27272727272727,0.18181818181818699,0.19090909090910202,65,0.2,0.2
1134,69,54,110.28181818181818,110.78636363636363,0.5045454545454504,0.011363636363626028,55,0.5,0
1135,72,63,110.29318181818181,110.48181818181817,0.1886363636363626,0.17272727272727195,65,0.2,0.15000000000000002
1136,74,72,110.46590909090908,110.6590909090909,0.19318181818182723,0.17272727272727195,70,0.2,0.15000000000000002
1137,76,75,110.63863636363635,110.81136363636364,0.17272727272728616,0.16136363636364592,75,0.15000000000000002,0.15000000000000002
1138,77,77,110.8,111.0340909090909,0.23409090909090935,0.16818181818182154,75,0.25,0.15000000000000002
1139,76,75,110.96818181818182,111.17272727272727,0.20454545454545325,0.17499999999999716,75,0.2,0.15000000000000002
1140,74,78,111.14318181818182,111.39999999999999,0.2568181818181756,0.23181818181818414,80,0.25,0.25
1141,76,80,111.375,111.94772727272726,0.5727272727272634,0.2545454545454504,80,0.55,0.25
1142,59,63,111.62954545454545,111.98863636363636,0.35909090909090935,0.29772727272727195,65,0.35000000000000003,0.30000000000000004
1143,81,76,111.92727272727272,112.54318181818181,0.615909090909085,0.006818181818175617,75,0.6000000000000001,0
1144,60,62,111.9340909090909,112.21136363636363,0.2772727272727309,0.24318181818182438,60,0.30000000000000004,0.25
1145,62,61,112.17727272727272,112.44999999999999,0.27272727272726627,0.2818181818181813,60,0.25,0.30000000000000004
1146,64,55,112.4590909090909,112.75454545454545,0.29545454545454675,0.01136363636364024,55,0.30000000000000004,0
1147,80,74,112.47045454545454,113.08181818181818,0.6113636363636346,0.2590909090909008,75,0.6000000000000001,0.25
1148,66,50,112.72954545454544,113.04318181818181,0.3136363636363626,0.2818181818181813,50,0.30000000000000004,0.30000000000000004
1149,79,59,113.01136363636363,113.61136363636363,0.6000000000000085,0.0022727272727252057,60,0.6000000000000001,0
1150,67,48,113.01363636363635,113.27954545454546,0.26590909090910486,0.2750000000000057,50,0.25,0.30000000000000004
1151,64,55,113.28863636363636,113.56136363636364,0.2727272727272805,0.2727272727272805,55,0.25,0.25
1152,69,56,113.56136363636364,113.87045454545454,0.309090909090898,0.0022727272727252057,55,0.30000000000000004,0
1153,78,72,113.56363636363636,114.13863636363635,0.5749999999999886,0.2522727272727252,70,0.55,0.25
1154,68,70,113.81590909090909,114.11590909090908,0.29999999999999716,0.2772727272727309,70,0.30000000000000004,0.30000000000000004
1155,77,80,114.09318181818182,114.69545454545454,0.6022727272727195,0.01590909090909065,80,0.6000000000000001,0
1156,69,63,114.10909090909091,114.41590909090908,0.3068181818181728,0.27045454545454106,65,0.30000000000000004,0.25
1157,71,74,114.37954545454545,114.65454545454544,0.2749999999999915,0.2840909090909065,75,0.25,0.30000000000000004
1158,76,82,114.66363636363636,115.37272727272726,0.7090909090909037,0.004545454545450411,80,0.7000000000000001,0
1159,72,70,114.66818181818181,115.01136363636363,0.3431818181818187,0.29318181818182154,70,0.35000000000000003,0.30000000000000004
1160,66,71,114.96136363636363,115.37272727272726,0.4113636363636317,0.35454545454545894,70,0.4,0.35000000000000003
1161,71,63,115.31590909090909,115.71590909090908,0.3999999999999915,0.024999999999991473,65,0.4,0
1162,74,76,115.34090909090908,116.5340909090909,1.1931818181818272,0.3045454545454618,75,1.2000000000000002,0.30000000000000004
1163,69,69,115.64545454545454,115.94090909090909,0.29545454545454675,0.27272727272726627,70,0.30000000000000004,0.25
1164,68,66,115.91818181818181,116.23636363636363,0.3181818181818272,0.2750000000000057,65,0.30000000000000004,0.30000000000000004
1165,64,58,116.19318181818181,116.58636363636363,0.39318181818181586,0.3204545454545382,60,0.4,0.30000000000000004
1166,69,54,116.51363636363635,117.70227272727273,1.1886363636363768,0.006818181818189828,55,1.2000000000000002,0
1167,72,67,116.52045454545454,117.12045454545454,0.5999999999999943,0.5704545454545382,65,0.6000000000000001,0.55
1168,71,61,117.09090909090908,117.73181818181817,0.6409090909090907,0.5931818181818187,60,0.65,0.6000000000000001
1169,67,44,117.6840909090909,118.51363636363635,0.8295454545454533,0.004545454545464622,45,0.8500000000000001,0
1170,76,59,117.68863636363636,118.8,1.1113636363636346,0.5409090909090821,60,1.1,0.55
1171,69,55,118.22954545454544,118.82499999999999,0.5954545454545439,0.2136363636363683,55,0.6000000000000001,0.2
1172,65,50,118.44318181818181,118.61136363636363,0.16818181818182154,0.1545454545454561,50,0.15000000000000002,0.15000000000000002
1173,64,54,118.59772727272727,118.7840909090909,0.1863636363636374,0.20000000000000284,55,0.2,0.2
1174,62,53,118.79772727272727,118.97954545454544,0.18181818181817277,0.01590909090909065,55,0.2,0
1175,71,63,118.81363636363636,119.37272727272726,0.559090909090898,0.16363636363635692,65,0.55,0.15000000000000002
1176,64,57,118.97727272727272,119.14772727272727,0.17045454545454675,0.17272727272727195,55,0.15000000000000002,0.15000000000000002
1177,65,68,119.14999999999999,119.35227272727272,0.20227272727272805,0.20000000000000284,70,0.2,0.2
1178,72,74,119.35,119.89999999999999,0.5499999999999972,0.004545454545450411,75,0.55,0
1179,64,58,119.35454545454544,119.56136363636364,0.20681818181819267,0.19318181818182723,60,0.2,0.2
1180,62,68,119.54772727272727,119.72727272727272,0.17954545454544757,0.1613636363636317,70,0.2,0.15000000000000002
1181,60,72,119.7090909090909,119.9090909090909,0.20000000000000284,0.1840909090909122,70,0.2,0.2
1182,68,80,119.89318181818182,120.49090909090908,0.5977272727272691,0.013636363636365445,80,0.6000000000000001,0
1183,59,65,119.90681818181818,120.07727272727273,0.17045454545454675,0.16590909090908212,65,0.15000000000000002,0.15000000000000002
1184,60,70,120.07272727272726,120.2840909090909,0.21136363636364308,0.21136363636364308,70,0.2,0.2
1185,62,70,120.2840909090909,120.48636363636363,0.20227272727272805,0.1840909090909122,70,0.2,0.2
1186,69,77,120.46818181818182,120.69318181818181,0.22499999999999432,0.009090909090900823,75,0.2,0
1187,60,68,120.47727272727272,121.02499999999999,0.547727272727272,0.17727272727272236,70,0.55,0.2
1188,67,75,120.65454545454544,120.82727272727273,0.17272727272728616,0.17727272727273657,75,0.15000000000000002,0.2
1189,65,74,120.83181818181818,121.02954545454544,0.19772727272726343,0.17499999999999716,75,0.2,0.15000000000000002
1190,61,59,121.00681818181818,121.54772727272727,0.5409090909090963,0.006818181818175617,60,0.55,0
1191,64,69,121.01363636363635,121.17727272727272,0.16363636363637113,0.18181818181818699,70,0.15000000000000002,0.2
1192,65,65,121.19545454545454,121.34090909090908,0.14545454545454106,0.16818181818182154,65,0.15000000000000002,0.15000000000000002
1193,67,64,121.36363636363636,121.57727272727273,0.2136363636363683,0.19545454545453822,65,0.2,0.2
1194,65,55,121.5590909090909,121.77272727272727,0.2136363636363683,0.006818181818189828,55,0.2,0
1195,62,48,121.56590909090909,121.82272727272726,0.2568181818181756,0.18181818181817277,50,0.25,0.2
1196,64,60,121.74772727272726,121.89999999999999,0.1522727272727309,0.17500000000001137,60,0.15000000000000002,0.2
1197,62,50,121.92272727272727,122.11363636363636,0.1909090909090878,0.19999999999998863,50,0.2,0.2
1198,61,57,122.12272727272726,122.29772727272727,0.17500000000001137,0.009090909090915034,55,0.2,0
1199,55,47,122.13181818181818,122.58863636363635,0.45681818181817846,0.17272727272727195,45,0.45,0.15000000000000002
1200,62,52,122.30454545454545,122.4590909090909,0.1545454545454561,0.20681818181817846,50,0.15000000000000002,0.2
1201,64,49,122.51136363636363,122.66363636363636,0.1522727272727309,0.18181818181818699,50,0.15000000000000002,0.2
1202,62,59,122.69318181818181,123.23409090909091,0.5409090909090963,0.013636363636365445,60,0.55,0
1203,50,55,122.70681818181818,122.90681818181818,0.20000000000000284,0.0318181818181813,55,0.2,0.05
1204,53,50,122.73863636363636,122.87954545454545,0.14090909090909065,0.16363636363635692,50,0.15000000000000002,0.15000000000000002
1205,52,62,122.90227272727272,123.08636363636363,0.1840909090909122,0.16818181818182154,60,0.2,0.15000000000000002
1206,53,61,123.07045454545454,123.23636363636363,0.16590909090909634,0.1840909090909122,60,0.15000000000000002,0.2
1207,55,55,123.25454545454545,123.44999999999999,0.19545454545453822,0,55,0.2,0
1208,61,59,123.25454545454545,123.91818181818181,0.6636363636363569,0.045454545454546746,60,0.65,0.05
1209,58,41,123.3,123.71818181818182,0.41818181818182154,0.14318181818181586,40,0.4,0.15000000000000002
1210,53,63,123.44318181818181,123.61590909090908,0.17272727272727195,0.16590909090909634,65,0.15000000000000002,0.15000000000000002
1211,52,63,123.60909090909091,123.81818181818181,0.20909090909090366,0.19318181818181301,65,0.2,0.2
1212,53,64,123.80227272727272,123.97045454545454,0.16818181818182154,0.01136363636364024,65,0.15000000000000002,0
1213,62,69,123.81363636363636,124.09318181818182,0.2795454545454561,0.024999999999991473,70,0.30000000000000004,0
1214,57,54,123.83863636363635,124.00454545454545,0.16590909090909634,0.14772727272728048,55,0.15000000000000002,0.15000000000000002
1215,55,71,123.98636363636363,124.175,0.1886363636363626,0.17499999999999716,70,0.2,0.15000000000000002
1216,57,71,124.16136363636363,124.36818181818181,0.20681818181817846,0.20681818181817846,70,0.2,0.2
1217,58,74,124.36818181818181,124.58636363636363,0.2181818181818187,0.0022727272727252057,75,0.2,0
1218,67,74,124.37045454545454,125.25,0.8795454545454646,0.006818181818189828,75,0.9,0
1219,62,60,124.37727272727273,124.84318181818182,0.4659090909090935,0.17727272727272236,60,0.45,0.2
1220,57,76,124.55454545454545,124.76590909090909,0.21136363636364308,0.19318181818181301,75,0.2,0.2
1221,55,78,124.74772727272726,125.00681818181818,0.25909090909091503,0.2136363636363683,80,0.25,0.2
1222,57,79,124.96136363636363,125.54090909090908,0.5795454545454533,0.01136363636364024,80,0.6000000000000001,0
1223,61,65,124.97272727272727,125.28181818181818,0.3090909090909122,0.2568181818181756,65,0.30000000000000004,0.25
1224,64,76,125.22954545454544,125.51363636363635,0.2840909090909065,0.29999999999999716,75,0.30000000000000004,0.30000000000000004
1225,62,76,125.52954545454544,126.09772727272727,0.5681818181818272,0.0022727272727394165,75,0.55,0
1226,65,70,125.53181818181818,125.81136363636362,0.2795454545454419,0.25,70,0.30000000000000004,0.25
1227,67,72,125.78181818181818,126.05454545454545,0.27272727272726627,0.26590909090909065,70,0.25,0.25
1228,61,64,126.04772727272727,126.62272727272726,0.5749999999999886,0.011363636363626028,65,0.55,0
1229,69,69,126.0590909090909,126.3340909090909,0.2750000000000057,0.01590909090909065,70,0.30000000000000004,0
1230,64,49,126.07499999999999,127.17272727272727,1.0977272727272833,0.22954545454545894,50,1.1,0.25
1231,71,65,126.30454545454545,126.56818181818181,0.26363636363636545,0.2818181818181813,65,0.25,0.30000000000000004
1232,60,51,126.58636363636363,127.09090909090908,0.5045454545454504,0,50,0.5,0
1233,72,62,126.58636363636363,126.85681818181817,0.27045454545454106,0.2772727272727309,60,0.25,0.30000000000000004
1234,69,61,126.86363636363636,127.11590909090908,0.2522727272727252,0.2454545454545496,60,0.25,0.25
1235,62,42,127.10909090909091,128.24545454545455,1.1363636363636402,0.020454545454541062,40,1.1500000000000001,0
1236,74,64,127.12954545454545,127.43863636363636,0.3090909090909122,0.004545454545450411,65,0.30000000000000004,0
1237,59,50,127.1340909090909,127.71818181818182,0.5840909090909179,0.2818181818181813,50,0.6000000000000001,0.30000000000000004
1238,73,73,127.41590909090908,127.75,0.3340909090909179,0.26363636363636545,75,0.35000000000000003,0.25
1239,58,58,127.67954545454545,128.28863636363636,0.6090909090909093,0.0022727272727252057,60,0.6000000000000001,0
1240,74,79,127.68181818181817,128.00681818181818,0.32500000000000284,0.26363636363636545,80,0.35000000000000003,0.25
1241,76,81,127.94545454545454,128.22045454545454,0.2750000000000057,0.2704545454545553,80,0.30000000000000004,0.25
1242,77,74,128.2159090909091,128.60681818181817,0.39090909090907644,0.006818181818175617,75,0.4,0
1243,57,70,128.22272727272727,128.9,0.6772727272727366,0.3159090909090878,70,0.7000000000000001,0.30000000000000004
1244,71,77,128.53863636363636,128.89090909090908,0.3522727272727195,0.306818181818187,75,0.35000000000000003,0.30000000000000004
1245,55,59,128.84545454545454,130.07272727272726,1.2272727272727195,0.009090909090900823,60,1.25,0
1246,76,75,128.85454545454544,129.18636363636364,0.33181818181819267,0.2840909090909065,75,0.35000000000000003,0.30000000000000004
1247,74,74,129.13863636363635,129.4590909090909,0.3204545454545382,0.2863636363636317,75,0.30000000000000004,0.30000000000000004
1248,73,72,129.42499999999998,129.66363636363636,0.23863636363637397,0.2454545454545496,70,0.25,0.25
1249,69,65,129.67045454545453,129.9340909090909,0.26363636363637966,0.25909090909092924,65,0.25,0.25
1250,53,48,129.92954545454546,130.575,0.6454545454545269,0.011363636363626028,50,0.65,0
1251,74,60,129.9409090909091,130.99772727272727,1.056818181818187,0.004545454545450411,60,1.05,0
1252,70,52,129.94545454545454,130.1931818181818,0.2477272727272748,0.2522727272727252,50,0.25,0.25
1253,69,61,130.19772727272726,130.45681818181816,0.2590909090909008,0.2727272727272805,60,0.25,0.25
1254,67,55,130.47045454545454,130.6772727272727,0.20681818181816425,0.006818181818175617,55,0.2,0
1255,52,46,130.47727272727272,131.0568181818182,0.5795454545454675,0.2477272727272748,45,0.6000000000000001,0.25
1256,70,52,130.725,131.0181818181818,0.29318181818180733,0.2727272727272805,50,0.30000000000000004,0.25
1257,72,61,130.99772727272727,132.25454545454545,1.2568181818181756,0.0022727272727252057,60,1.25,0
1258,69,40,131,131.29090909090908,0.2909090909090821,0.013636363636351234,40,0.30000000000000004,0
1259,57,42,131.01363636363635,131.6,0.5863636363636431,0.2750000000000057,40,0.6000000000000001,0.30000000000000004
1260,67,48,131.28863636363636,131.57272727272726,0.2840909090909065,0.2840909090909065,50,0.30000000000000004,0.30000000000000004
1261,66,49,131.57272727272726,132.1931818181818,0.6204545454545496,0.02272727272728048,50,0.6000000000000001,0
1262,50,28,131.59545454545454,131.85227272727272,0.2568181818181756,0.2727272727272805,30,0.25,0.25
1263,62,58,131.86818181818182,132.17045454545453,0.30227272727270815,0.26363636363635123,60,0.30000000000000004,0.25
1264,63,54,132.13181818181818,132.41363636363636,0.2818181818181813,0.006818181818175617,55,0.30000000000000004,0
1265,70,57,132.13863636363635,132.72272727272727,0.5840909090909179,0.004545454545450411,55,0.6000000000000001,0
1266,67,44,132.1431818181818,133.39772727272725,1.2545454545454504,0.26363636363637966,45,1.25,0.25
1267,62,59,132.40681818181818,132.71136363636364,0.3045454545454618,0.2772727272727309,60,0.30000000000000004,0.30000000000000004
1268,60,54,132.6840909090909,132.94772727272726,0.26363636363635123,0,55,0.25,0
1269,69,62,132.6840909090909,133.76590909090908,1.0818181818181642,0.26590909090907644,60,1.1,0.25
1270,63,64,132.95,133.25227272727273,0.3022727272727366,0.2727272727272805,65,0.30000000000000004,0.25
1271,65,46,133.22272727272727,134.4181818181818,1.1954545454545382,0.011363636363626028,45,1.2000000000000002,0
1272,62,60,133.2340909090909,133.5090909090909,0.2750000000000057,0.2818181818181813,60,0.30000000000000004,0.30000000000000004
1273,60,55,133.51590909090908,133.78636363636363,0.2704545454545553,0.26818181818183007,55,0.25,0.25
1274,67,64,133.7840909090909,134.33636363636364,0.5522727272727366,0.029545454545456096,65,0.55,0.05
1275,59,54,133.81363636363636,134.10454545454544,0.2909090909090821,0.2863636363636317,55,0.30000000000000004,0.30000000000000004
1276,79,71,134.1,134.4272727272727,0.32727272727271384,0.01590909090907644,70,0.35000000000000003,0
1277,55,50,134.11590909090907,134.40681818181818,0.29090909090911055,0.29090909090911055,50,0.30000000000000004,0.30000000000000004
1278,60,50,134.40681818181818,135.44772727272726,1.0409090909090821,0.0022727272727252057,50,1.05,0
1279,81,71,134.4090909090909,134.72954545454544,0.3204545454545382,0.013636363636351234,70,0.30000000000000004,0
1280,64,51,134.42272727272726,134.98863636363635,0.5659090909090878,0.2522727272727252,50,0.55,0.25
1281,79,81,134.67499999999998,134.975,0.30000000000001137,0.25909090909092924,80,0.30000000000000004,0.25
1282,77,82,134.9340909090909,135.1840909090909,0.25,0.01590909090907644,80,0.25,0
1283,62,54,134.95,136.02954545454546,1.0795454545454675,0.24318181818182438,55,1.1,0.25
1284,81,74,135.1931818181818,135.52272727272725,0.32954545454543904,0.26136363636362603,75,0.35000000000000003,0.25
1285,58,47,135.45454545454544,136.58181818181816,1.1272727272727252,0.006818181818204039,45,1.1500000000000001,0
1286,79,70,135.46136363636364,135.7340909090909,0.27272727272725206,0.26590909090907644,70,0.25,0.25
1287,77,71,135.72727272727272,136.03181818181818,0.3045454545454618,0.2727272727272805,70,0.30000000000000004,0.25
1288,76,56,136,136.27954545454546,0.2795454545454561,0.004545454545450411,55,0.30000000000000004,0
1289,60,38,136.00454545454545,136.23636363636362,0.23181818181816993,0.2772727272727309,40,0.25,0.30000000000000004
1290,72,71,136.28181818181818,136.5590909090909,0.2772727272727309,0.26818181818180165,70,0.30000000000000004,0.25
1291,77,69,136.54999999999998,137.65,1.1000000000000227,0.009090909090929244,70,1.1,0
1292,74,58,136.5590909090909,136.8340909090909,0.27499999999997726,0.004545454545450411,60,0.25,0
1293,57,41,136.56363636363636,137.15,0.5863636363636431,0.2818181818181813,40,0.6000000000000001,0.30000000000000004
1294,72,58,136.84545454545454,137.10454545454544,0.2590909090909008,0.2545454545454504,60,0.25,0.25
1295,70,58,137.1,137.38636363636363,0.2863636363636317,0.020454545454555273,60,0.30000000000000004,0
1296,55,39,137.12045454545455,137.63636363636363,0.5159090909090764,0.26590909090907644,40,0.5,0.25
1297,74,53,137.38636363636363,137.6772727272727,0.2909090909090821,0.2704545454545553,55,0.30000000000000004,0.25
1298,76,61,137.65681818181818,138.39772727272725,0.7409090909090708,0.006818181818175617,60,0.75,0
1299,72,47,137.66363636363636,138.01136363636363,0.3477272727272691,0.004545454545450411,45,0.35000000000000003,0
1300,60,39,137.6681818181818,138.4090909090909,0.7409090909090992,0.2704545454545553,40,0.75,0.25
1301,70,54,137.93863636363636,138.16363636363636,0.22499999999999432,0.2545454545454504,55,0.2,0.25
1302,53,50,138.1931818181818,138.45681818181816,0.26363636363635123,0.009090909090900823,50,0.25,0
1303,69,63,138.2022727272727,138.61590909090907,0.4136363636363569,0.23409090909092356,65,0.4,0.25
1304,55,61,138.43636363636364,138.62727272727273,0.1909090909090878,0.05909090909091219,60,0.2,0.05
1305,77,71,138.49545454545455,139.03181818181818,0.5363636363636317,0.11363636363634555,70,0.55,0.1
1306,57,64,138.6090909090909,138.79772727272726,0.1886363636363626,0.17272727272728616,65,0.2,0.15000000000000002
1307,58,79,138.78181818181818,139.00227272727273,0.2204545454545439,0.01590909090907644,80,0.2,0
1308,67,75,138.79772727272726,139.0568181818182,0.25909090909092924,0.17727272727273657,75,0.25,0.2
1309,57,76,138.975,139.1818181818182,0.20681818181819267,0.029545454545456096,75,0.2,0.05
1310,76,80,139.00454545454545,139.50227272727273,0.4977272727272748,0.14090909090907644,80,0.5,0.15000000000000002
1311,55,77,139.14545454545453,139.3181818181818,0.17272727272728616,0.1886363636363626,75,0.15000000000000002,0.2
1312,57,87,139.3340909090909,139.85227272727272,0.5181818181818301,0.02272727272728048,85,0.5,0
1313,65,72,139.35681818181817,139.7022727272727,0.3454545454545439,0.20909090909091788,70,0.35000000000000003,0.2
1314,74,76,139.5659090909091,140.3840909090909,0.818181818181813,0.2795454545454561,75,0.8,0.30000000000000004
1315,45,77,139.84545454545454,140.46363636363637,0.6181818181818244,0.011363636363626028,75,0.6000000000000001,0
1316,64,77,139.85681818181817,140.3840909090909,0.5272727272727309,0.2454545454545496,75,0.55,0.25
1317,73,85,140.10227272727272,140.3840909090909,0.2818181818181813,0.29545454545453254,85,0.30000000000000004,0.30000000000000004
1318,50,63,140.39772727272725,140.93636363636364,0.5386363636363853,0.009090909090929244,65,0.55,0
1319,74,75,140.40681818181818,140.93636363636364,0.5295454545454561,0.004545454545450411,75,0.55,0
1320,65,60,140.41136363636363,140.93636363636364,0.5250000000000057,0.1909090909090878,60,0.55,0.2
1321,52,70,140.60227272727272,140.93636363636364,0.3340909090909179,0.17045454545453254,70,0.35000000000000003,0.15000000000000002
1322,53,76,140.77272727272725,140.99318181818182,0.22045454545457233,0.17954545454546178,75,0.2,0.2
1323,70,79,140.9522727272727,141.5590909090909,0.6068181818181984,0.01590909090910486,80,0.6000000000000001,0
1324,55,67,140.96818181818182,141.17272727272726,0.20454545454543904,0.006818181818175617,65,0.2,0
1325,61,44,140.975,141.5590909090909,0.5840909090909179,0.17500000000001137,45,0.6000000000000001,0.2
1326,53,72,141.15,141.52045454545453,0.37045454545452117,0.18181818181815856,70,0.35000000000000003,0.2
1327,52,67,141.33181818181816,141.5590909090909,0.22727272727274794,0.1886363636363626,65,0.25,0.2
1328,53,70,141.52045454545453,141.74090909090907,0.2204545454545439,0.020454545454555273,70,0.2,0
1329,69,71,141.54090909090908,141.74545454545455,0.20454545454546746,0.01590909090910486,70,0.2,0
1330,62,51,141.5568181818182,142.52272727272725,0.9659090909090651,0.15227272727270247,50,0.9500000000000001,0.15000000000000002
1331,55,69,141.7090909090909,141.8840909090909,0.17500000000001137,0.0022727272727536274,70,0.2,0
1332,67,75,141.71136363636364,141.92272727272726,0.21136363636361466,0.17272727272725774,75,0.2,0.15000000000000002
1333,65,76,141.8840909090909,142.0772727272727,0.19318181818181301,0.011363636363626028,75,0.2,0
1334,57,69,141.89545454545453,142.09545454545454,0.20000000000001705,0.16136363636366013,70,0.2,0.15000000000000002
1335,64,77,142.0568181818182,142.25454545454545,0.19772727272726343,0.006818181818175617,75,0.2,0
1336,58,70,142.06363636363636,142.23863636363635,0.17499999999998295,0.16818181818180733,70,0.15000000000000002,0.15000000000000002
1337,65,73,142.23181818181817,142.42272727272726,0.1909090909090878,0.009090909090900823,75,0.2,0
1338,57,73,142.24090909090907,142.40681818181818,0.16590909090911055,0.17045454545456096,75,0.15000000000000002,0.15000000000000002
1339,55,65,142.41136363636363,142.60454545454544,0.19318181818181301,0.006818181818175617,65,0.2,0
1340,67,73,142.4181818181818,142.63636363636363,0.2181818181818187,0.18181818181818699,75,0.2,0.2
1341,57,72,142.6,143.13181818181818,0.5318181818181813,0.004545454545450411,70,0.55,0
1342,65,72,142.60454545454544,142.8022727272727,0.19772727272726343,0.17045454545456096,70,0.2,0.15000000000000002
1343,64,66,142.775,142.92499999999998,0.14999999999997726,0.17727272727270815,65,0.15000000000000002,0.2
1344,62,59,142.9522727272727,143.13636363636363,0.1840909090909122,0.1886363636363626,60,0.2,0.2
1345,61,61,143.14090909090908,143.79772727272726,0.6568181818181813,0.004545454545450411,60,0.65,0
1346,58,58,143.14545454545453,143.79772727272726,0.6522727272727309,0.0318181818181813,60,0.65,0.05
1347,55,39,143.1772727272727,143.79772727272726,0.6204545454545496,0.13863636363637966,40,0.6000000000000001,0.15000000000000002
1348,62,62,143.3159090909091,143.67272727272726,0.35681818181816993,0.17272727272725774,60,0.35000000000000003,0.15000000000000002
1349,64,59,143.48863636363635,143.79772727272726,0.3090909090909122,0.1840909090909122,60,0.30000000000000004,0.2
1350,62,63,143.67272727272726,143.9181818181818,0.2454545454545496,0.02727272727273089,65,0.25,0.05
1351,57,47,143.7,144.8409090909091,1.1409090909091049,0.0022727272727252057,45,1.1500000000000001,0
1352,53,46,143.7022727272727,143.88636363636363,0.1840909090909122,0.1590909090909065,45,0.2,0.15000000000000002
1353,64,58,143.86136363636362,144.04772727272726,0.1863636363636374,0.0022727272727252057,60,0.2,0
1354,52,53,143.86363636363635,144.06136363636364,0.19772727272729185,0.17727272727273657,55,0.2,0.2
1355,65,64,144.04090909090908,144.20681818181816,0.16590909090908212,0.011363636363626028,65,0.15000000000000002,0
1356,50,56,144.0522727272727,144.2340909090909,0.18181818181818699,0.17727272727273657,55,0.2,0.2
1357,67,65,144.22954545454544,144.42499999999998,0.19545454545453822,0.004545454545450411,65,0.2,0
1358,49,56,144.2340909090909,144.41136363636363,0.17727272727273657,0.17045454545456096,55,0.2,0.15000000000000002
1359,65,69,144.40454545454546,144.60454545454544,0.19999999999998863,0.013636363636351234,70,0.2,0
1360,50,61,144.4181818181818,144.58636363636364,0.16818181818183575,0.1613636363636317,60,0.15000000000000002,0.15000000000000002
1361,52,63,144.57954545454544,144.7840909090909,0.20454545454546746,0.01136363636365445,65,0.2,0
1362,64,75,144.5909090909091,144.76363636363635,0.17272727272725774,0.17499999999998295,75,0.15000000000000002,0.15000000000000002
1363,65,75,144.76590909090908,145.00454545454545,0.23863636363637397,0.01590909090910486,75,0.25,0
1364,50,59,144.78181818181818,146.16590909090908,1.3840909090909008,0.17045454545453254,60,1.4000000000000001,0.15000000000000002
1365,55,68,144.9522727272727,145.17045454545453,0.2181818181818187,0.004545454545450411,70,0.2,0
1366,67,77,144.95681818181816,145.15,0.19318181818184144,0.16818181818183575,75,0.2,0.15000000000000002
1367,53,70,145.125,145.31363636363636,0.1886363636363626,0.0022727272727252057,70,0.2,0
1368,69,84,145.12727272727273,145.3409090909091,0.2136363636363683,0.1840909090909122,85,0.2,0.2
1369,70,81,145.31136363636364,145.53636363636363,0.22499999999999432,0.009090909090900823,80,0.2,0
1370,52,68,145.32045454545454,145.51136363636363,0.1909090909090878,0.15000000000000568,70,0.2,0.15000000000000002
1371,69,87,145.47045454545454,145.6931818181818,0.2227272727272691,0.011363636363626028,85,0.2,0
1372,53,69,145.48181818181817,145.65454545454546,0.17272727272728616,0.17727272727273657,70,0.15000000000000002,0.2
1373,55,73,145.6590909090909,145.9340909090909,0.2750000000000057,0.0022727272727252057,75,0.30000000000000004,0
1374,67,85,145.66136363636363,145.89545454545453,0.23409090909089514,0.22954545454544473,85,0.25,0.25
1375,69,86,145.89090909090908,146.52954545454546,0.6386363636363797,0.006818181818175617,85,0.65,0
1376,53,72,145.89772727272725,146.71818181818182,0.8204545454545666,0.2750000000000057,70,0.8,0.30000000000000004
1377,48,72,146.17272727272726,146.47954545454544,0.306818181818187,0.3022727272727366,70,0.30000000000000004,0.30000000000000004
1378,74,85,146.475,147.0909090909091,0.6159090909090992,0.004545454545450411,85,0.6000000000000001,0
1379,46,64,146.47954545454544,147.04999999999998,0.5704545454545382,0.23636363636364877,65,0.55,0.25
1380,55,79,146.7159090909091,147.0090909090909,0.29318181818180733,0.2840909090909065,80,0.30000000000000004,0.30000000000000004
1381,45,64,147,147.8022727272727,0.8022727272727082,0.011363636363626028,65,0.8,0
1382,73,86,147.01136363636363,147.6,0.5886363636363683,0.26818181818183007,85,0.6000000000000001,0.25
1383,55,79,147.27954545454546,147.6,0.3204545454545382,0.26818181818180165,80,0.30000000000000004,0.25
1384,54,65,147.54772727272726,148.0659090909091,0.5181818181818301,0.009090909090929244,65,0.5,0
1385,72,83,147.5568181818182,148.10227272727272,0.5454545454545325,0.24545454545452117,85,0.55,0.25
1386,50,68,147.8022727272727,148.10227272727272,0.30000000000001137,0.2727272727272805,70,0.30000000000000004,0.25
1387,71,85,148.075,148.6431818181818,0.568181818181813,0.006818181818175617,85,0.55,0
1388,43,65,148.08181818181816,148.85,0.7681818181818301,0.25454545454547883,65,0.75,0.25
1389,53,80,148.33636363636364,148.66590909090908,0.32954545454543904,0.2590909090909008,80,0.35000000000000003,0.25
1390,52,60,148.59545454545454,149.14545454545453,0.549999999999983,0.0318181818181813,60,0.55,0.05
1391,70,88,148.62727272727273,149.1681818181818,0.5409090909090821,0.23181818181816993,90,0.55,0.25
1392,48,74,148.8590909090909,149.16363636363636,0.3045454545454618,0.2818181818181813,75,0.30000000000000004,0.30000000000000004
1393,41,59,149.14090909090908,150.02954545454546,0.8886363636363797,0.006818181818175617,60,0.9,0
1394,69,85,149.14772727272725,150.34545454545454,1.1977272727272918,0.28409090909093493,85,1.2000000000000002,0.30000000000000004
1395,51,83,149.4318181818182,149.78863636363636,0.35681818181816993,0.318181818181813,85,0.35000000000000003,0.30000000000000004
1396,81,87,149.75,150.36136363636362,0.6113636363636203,0.004545454545450411,85,0.6000000000000001,0
1397,50,63,149.75454545454545,150.27727272727273,0.5227272727272805,0.2590909090909008,65,0.5,0.25
1398,46,75,150.01363636363635,150.33636363636364,0.32272727272729185,0.29318181818183575,75,0.30000000000000004,0.30000000000000004
1399,80,91,150.3068181818182,150.90454545454546,0.5977272727272691,0.006818181818175617,90,0.6000000000000001,0
1400,40,68,150.31363636363636,151.1,0.7863636363636317,0.2454545454545496,70,0.8,0.25
1401,50,79,150.5590909090909,150.89090909090908,0.33181818181816425,0.2909090909090821,80,0.35000000000000003,0.30000000000000004
1402,49,70,150.85,151.42499999999998,0.5749999999999886,0.009090909090900823,70,0.55,0
1403,79,85,150.8590909090909,151.51136363636363,0.6522727272727309,0.2568181818181756,85,0.65,0.25
1404,45,69,151.11590909090907,151.45454545454544,0.3386363636363683,0.3409090909090935,70,0.35000000000000003,0.35000000000000003
1405,50,71,151.45681818181816,152.1340909090909,0.6772727272727366,0.004545454545478833,70,0.7000000000000001,0
1406,38,56,151.46136363636364,152.15454545454546,0.693181818181813,0,55,0.7000000000000001,0
1407,78,87,151.46136363636364,152.15454545454546,0.693181818181813,0.3545454545454447,85,0.7000000000000001,0.35000000000000003
1408,69,79,151.8159090909091,152.15454545454546,0.3386363636363683,0.306818181818187,80,0.35000000000000003,0.30000000000000004
1409,77,84,152.12272727272727,153.1931818181818,1.0704545454545382,0.009090909090900823,85,1.05,0
1410,70,66,152.13181818181818,152.9431818181818,0.8113636363636374,0.0022727272727252057,65,0.8,0
1411,50,63,152.1340909090909,153.29090909090908,1.1568181818181813,0.2750000000000057,65,1.1500000000000001,0.30000000000000004
1412,69,58,152.4090909090909,153.1931818181818,0.7840909090909065,0.27045454545452685,60,0.8,0.25
1413,76,63,152.67954545454543,154.39090909090908,1.711363636363643,0.020454545454555273,65,1.7000000000000002,0
1414,67,57,152.7,153.1931818181818,0.4931818181818244,0.24318181818182438,55,0.5,0.25
1415,70,67,152.9431818181818,153.1931818181818,0.25,0.2590909090909008,65,0.25,0.25
1416,49,53,153.2022727272727,153.78181818181818,0.5795454545454675,0.006818181818175617,55,0.6000000000000001,0
1417,69,65,153.2090909090909,153.45681818181816,0.2477272727272748,0.2704545454545553,65,0.25,0.25
1418,67,62,153.47954545454544,153.73636363636362,0.2568181818181756,0.2568181818181756,60,0.25,0.25
1419,50,45,153.73636363636362,154.2340909090909,0.4977272727272748,0.01590909090910486,45,0.5,0
1420,65,61,153.75227272727273,155.41590909090908,1.663636363636357,0.2522727272727252,60,1.6500000000000001,0.25
1421,57,74,154.00454545454545,154.35681818181817,0.3522727272727195,0.318181818181813,75,0.35000000000000003,0.30000000000000004
1422,74,70,154.32272727272726,155.47727272727272,1.154545454545456,0.009090909090900823,70,1.1500000000000001,0
1423,58,61,154.33181818181816,154.63863636363635,0.306818181818187,0.26818181818183007,60,0.30000000000000004,0.25
1424,57,68,154.6,154.87954545454545,0.2795454545454561,0.2772727272727309,70,0.30000000000000004,0.30000000000000004
1425,64,60,154.87727272727273,156.5568181818182,1.6795454545454618,0.02045454545452685,60,1.7000000000000002,0
1426,55,51,154.89772727272725,155.17272727272726,0.2750000000000057,0.26590909090910486,50,0.30000000000000004,0.25
1427,58,49,155.16363636363636,155.45681818181816,0.29318181818180733,0.2772727272727309,50,0.30000000000000004,0.30000000000000004
1428,57,49,155.4409090909091,155.7022727272727,0.26136363636362603,0.009090909090900823,50,0.25,0
1429,73,57,155.45,155.95454545454544,0.5045454545454504,0.2772727272727309,55,0.5,0.30000000000000004
1430,55,42,155.72727272727272,156.1,0.3727272727272748,0.32499999999998863,40,0.35000000000000003,0.30000000000000004
1431,53,39,156.0522727272727,157.15454545454546,1.102272727272748,0.25681818181820404,40,1.1,0.25
1432,81,56,156.3090909090909,156.57272727272726,0.26363636363635123,0.26818181818180165,55,0.25,0.25
1433,62,46,156.5772727272727,157.74318181818182,1.1659090909091105,0.013636363636379656,45,1.1500000000000001,0
1434,82,66,156.5909090909091,156.86136363636362,0.27045454545452685,0.26363636363635123,65,0.25,0.25
1435,81,64,156.85454545454544,157.12727272727273,0.2727272727272805,0.2909090909090821,65,0.25,0.30000000000000004
1436,79,59,157.14545454545453,157.42499999999998,0.2795454545454561,0.006818181818204039,60,0.30000000000000004,0
1437,52,38,157.15227272727273,158.91590909090908,1.7636363636363512,0.2818181818181813,40,1.75,0.30000000000000004
1438,82,58,157.4340909090909,157.72954545454544,0.29545454545453254,0.2886363636363569,60,0.30000000000000004,0.30000000000000004
1439,61,38,157.72272727272727,158.91590909090908,1.193181818181813,0.013636363636351234,40,1.2000000000000002,0
1440,81,52,157.73636363636362,158.91590909090908,1.1795454545454618,0.2750000000000057,50,1.2000000000000002,0.30000000000000004
1441,79,52,158.01136363636363,158.91590909090908,0.9045454545454561,0.29772727272728616,50,0.9,0.30000000000000004
1442,50,44,158.3090909090909,158.91590909090908,0.6068181818181699,0.006818181818175617,45,0.6000000000000001,0
1443,77,58,158.3159090909091,158.91590909090908,0.5999999999999943,0.029545454545456096,60,0.6000000000000001,0.05
1444,62,32,158.34545454545454,158.91590909090908,0.5704545454545382,0.22954545454544473,30,0.55,0.25
1445,76,59,158.575,158.91590909090908,0.3409090909090935,0.05909090909091219,60,0.35000000000000003,0.05
1446,64,54,158.6340909090909,158.91590909090908,0.2818181818181813,0.12045454545454959,55,0.30000000000000004,0.1
1447,74,54,158.75454545454545,158.9181818181818,0.16363636363635692,0.020454545454555273,55,0.15000000000000002,0
1448,65,54,158.775,158.9340909090909,0.1590909090909065,0.17727272727270815,55,0.15000000000000002,0.2
1449,73,61,158.9522727272727,159.11363636363635,0.1613636363636317,0.018181818181830067,60,0.15000000000000002,0
1450,67,57,158.97045454545454,159.12727272727273,0.1568181818181813,0.1590909090909065,55,0.15000000000000002,0.15000000000000002
1451,74,47,159.12954545454545,159.29090909090908,0.1613636363636317,0.0318181818181813,45,0.15000000000000002,0.05
1452,65,44,159.16136363636363,159.32045454545454,0.1590909090909065,0.17499999999998295,45,0.15000000000000002,0.15000000000000002
1453,76,57,159.33636363636361,159.50681818181818,0.17045454545456096,0.020454545454555273,55,0.15000000000000002,0
1454,64,48,159.35681818181817,159.52954545454546,0.17272727272728616,0.17500000000001137,50,0.15000000000000002,0.2
1455,69,65,159.53181818181818,159.7159090909091,0.1840909090909122,0.009090909090900823,65,0.2,0
1456,65,56,159.54090909090908,159.7159090909091,0.17500000000001137,0.17500000000001137,55,0.2,0.2
1457,71,65,159.7159090909091,159.89545454545453,0.17954545454543336,0,65,0.2,0
1458,67,58,159.7159090909091,159.87954545454545,0.16363636363635692,0.17272727272725774,60,0.15000000000000002,0.15000000000000002
1459,73,71,159.88863636363635,160.075,0.1863636363636374,0.004545454545450411,70,0.2,0
1460,69,59,159.8931818181818,160.09545454545454,0.20227272727274226,0.17045454545456096,60,0.2,0.15000000000000002
1461,74,72,160.06363636363636,160.28863636363636,0.22499999999999432,0.013636363636351234,70,0.2,0
1462,70,65,160.0772727272727,160.23636363636362,0.1590909090909065,0.1613636363636317,65,0.15000000000000002,0.15000000000000002
1463,73,73,160.23863636363635,160.4431818181818,0.20454545454546746,0.004545454545478833,75,0.2,0
1464,69,71,160.24318181818182,160.41136363636363,0.16818181818180733,0.16590909090908212,70,0.15000000000000002,0.15000000000000002
1465,67,71,160.4090909090909,160.61818181818182,0.20909090909091788,0.004545454545450411,70,0.2,0
1466,71,79,160.41363636363636,160.61363636363635,0.19999999999998863,0.1840909090909122,80,0.2,0.2
1467,73,78,160.59772727272727,160.75681818181818,0.1590909090909065,0.006818181818175617,80,0.15000000000000002,0
1468,69,81,160.60454545454544,161.10454545454544,0.5,0.16590909090908212,80,0.5,0.15000000000000002
1469,74,79,160.77045454545453,160.9340909090909,0.16363636363638534,0.1568181818181813,80,0.15000000000000002,0.15000000000000002
1470,76,81,160.9272727272727,161.0840909090909,0.1568181818181813,0.19090909090911623,80,0.15000000000000002,0.2
1471,77,86,161.11818181818182,161.34545454545454,0.22727272727271952,0.0022727272727252057,85,0.25,0
1472,74,74,161.12045454545455,161.3181818181818,0.19772727272726343,0.1863636363636374,75,0.2,0.2
1473,76,85,161.3068181818182,161.4659090909091,0.1590909090909065,0.18181818181815856,85,0.15000000000000002,0.2
1474,74,83,161.48863636363635,161.7022727272727,0.2136363636363683,0.2136363636363683,85,0.2,0.2
1475,76,83,161.7022727272727,162.3068181818182,0.6045454545454731,0.006818181818175617,85,0.6000000000000001,0
1476,73,74,161.7090909090909,162.25454545454545,0.545454545454561,0.2772727272727309,75,0.55,0.30000000000000004
1477,47,71,161.98636363636362,162.3409090909091,0.35454545454547315,0.3159090909090878,70,0.35000000000000003,0.30000000000000004
1478,81,81,162.3022727272727,162.875,0.5727272727272918,0.004545454545478833,80,0.55,0
1479,48,70,162.3068181818182,162.60227272727272,0.29545454545453254,0.0022727272727252057,70,0.30000000000000004,0
1480,72,73,162.3090909090909,162.7159090909091,0.4068181818181813,0.2545454545454504,75,0.4,0.25
1481,50,76,162.56363636363636,162.84545454545454,0.2818181818181813,0.26363636363635123,75,0.30000000000000004,0.25
1482,52,62,162.8272727272727,163.10227272727272,0.2750000000000057,0.0022727272727252057,60,0.30000000000000004,0
1483,80,85,162.82954545454544,163.24772727272727,0.41818181818183575,0.020454545454555273,85,0.4,0
1484,71,64,162.85,163.45681818181816,0.6068181818181699,0.23181818181816993,65,0.6000000000000001,0.25
1485,54,67,163.08181818181816,163.39772727272725,0.3159090909090878,0.2840909090909065,65,0.30000000000000004,0.30000000000000004
1486,55,54,163.36590909090907,163.64090909090908,0.2750000000000057,0.02727272727273089,55,0.30000000000000004,0.05
1487,70,56,163.3931818181818,163.93636363636364,0.5431818181818358,0,55,0.55,0
1488,79,73,163.3931818181818,163.98636363636362,0.5931818181818187,0.2477272727272748,75,0.6000000000000001,0.25
1489,52,61,163.64090909090908,163.93636363636364,0.29545454545456096,0.2704545454545553,60,0.30000000000000004,0.25
1490,78,73,163.91136363636363,164.52045454545453,0.6090909090908951,0.006818181818175617,75,0.6000000000000001,0
1491,69,50,163.9181818181818,165.87954545454545,1.961363636363643,0,50,1.9500000000000002,0
1492,57,52,163.9181818181818,164.4590909090909,0.5409090909090821,0.25,50,0.55,0.25
1493,56,72,164.1681818181818,164.52045454545453,0.3522727272727195,0.2863636363636317,70,0.35000000000000003,0.30000000000000004
1494,77,88,164.45454545454544,165.00681818181818,0.5522727272727366,0.004545454545450411,90,0.55,0
1495,57,68,164.4590909090909,164.73636363636362,0.2772727272727309,0.2477272727272748,70,0.30000000000000004,0.25
1496,59,80,164.70681818181816,164.9590909090909,0.2522727272727252,0.25681818181820404,80,0.25,0.25
1497,60,67,164.96363636363637,165.87954545454545,0.9159090909090821,0.0022727272727252057,65,0.9,0
1498,76,86,164.9659090909091,165.87954545454545,0.9136363636363569,0.27727272727270247,85,0.9,0.30000000000000004
1499,54,76,165.2431818181818,165.87954545454545,0.6363636363636545,0.35227272727274794,75,0.65,0.35000000000000003
1500,74,82,165.59545454545454,166.37272727272727,0.7772727272727309,0.0022727272727252057,80,0.8,0
1501,59,64,165.59772727272727,165.97045454545454,0.3727272727272748,0.3363636363636431,65,0.35000000000000003,0.35000000000000003
1502,57,62,165.9340909090909,166.19772727272726,0.26363636363635123,0.009090909090900823,60,0.25,0
1503,65,76,165.9431818181818,166.46363636363637,0.5204545454545553,0.23863636363637397,75,0.5,0.25
1504,56,71,166.1818181818182,166.45681818181816,0.27499999999997726,0.02727272727270247,70,0.25,0.05
1505,64,77,166.2090909090909,166.9409090909091,0.7318181818181984,0.22272727272729753,75,0.75,0.2
1506,52,72,166.4318181818182,167.78181818181818,1.3499999999999943,0.24090909090907076,70,1.35,0.25
1507,72,86,166.67272727272726,167.78181818181818,1.1090909090909236,0.018181818181830067,85,1.1,0
1508,57,65,166.6909090909091,167.78181818181818,1.0909090909090935,0.25,65,1.1,0.25
1509,64,76,166.9409090909091,167.78181818181818,0.8409090909090935,0.29318181818180733,75,0.8500000000000001,0.30000000000000004
1510,71,83,167.2340909090909,167.87727272727273,0.6431818181818301,0.018181818181830067,85,0.65,0
1511,62,68,167.25227272727273,167.97272727272727,0.7204545454545439,0.23636363636362034,70,0.7000000000000001,0.25
1512,50,71,167.48863636363635,167.87727272727273,0.38863636363637966,0.32045454545456664,70,0.4,0.30000000000000004
1513,70,85,167.8090909090909,168.8409090909091,1.0318181818181813,0.004545454545450411,85,1.05,0
1514,55,64,167.81363636363636,168.8409090909091,1.027272727272731,0.318181818181813,65,1.05,0.30000000000000004
1515,62,79,168.13181818181818,168.8409090909091,0.7090909090909179,0.006818181818175617,80,0.7000000000000001,0
1516,53,67,168.13863636363635,168.8409090909091,0.7022727272727423,0.26363636363637966,65,0.7000000000000001,0.25
1517,60,76,168.40227272727273,168.9272727272727,0.5249999999999773,0.0022727272727252057,75,0.5,0
1518,52,70,168.40454545454546,168.8409090909091,0.4363636363636374,0.24090909090907076,70,0.45,0.25
1519,48,81,168.64545454545453,168.9409090909091,0.29545454545456096,0.24318181818182438,80,0.30000000000000004,0.25
1520,69,92,168.88863636363635,169.9409090909091,1.0522727272727366,0.01590909090910486,90,1.05,0
1521,53,71,168.90454545454546,169.9409090909091,1.0363636363636317,0.2477272727272748,70,1.05,0.25
1522,60,79,169.15227272727273,169.9409090909091,0.7886363636363569,0.27272727272725206,80,0.8,0.25
1523,68,87,169.42499999999998,169.9409090909091,0.5159090909091049,0.009090909090929244,85,0.5,0
1524,59,75,169.4340909090909,170.29545454545453,0.8613636363636203,0.2590909090909008,75,0.8500000000000001,0.25
1525,47,76,169.6931818181818,170.05454545454543,0.36136363636362034,0.2863636363636317,75,0.35000000000000003,0.30000000000000004
1526,67,85,169.97954545454544,170.86363636363635,0.8840909090909008,0,85,0.9,0
1527,52,67,169.97954545454544,170.3068181818182,0.32727272727274226,0.26818181818183007,65,0.35000000000000003,0.25
1528,50,70,170.24772727272727,170.58863636363637,0.3409090909090935,0,70,0.35000000000000003,0
1529,58,82,170.24772727272727,170.59318181818182,0.3454545454545439,0.3113636363636374,80,0.35000000000000003,0.30000000000000004
1530,49,70,170.5590909090909,171.5181818181818,0.9590909090908895,0.013636363636351234,70,0.9500000000000001,0
1531,57,79,170.57272727272726,171.5181818181818,0.9454545454545382,0.3363636363636431,80,0.9500000000000001,0.35000000000000003
1532,45,78,170.9090909090909,171.5181818181818,0.6090909090908951,0.3363636363636431,80,0.6000000000000001,0.35000000000000003
1533,50,72,171.24545454545455,172.63636363636363,1.3909090909090764,0.01590909090907644,70,1.4000000000000001,0
1534,67,61,171.26136363636363,171.3931818181818,0.13181818181817562,0.07499999999998863,60,0.15000000000000002,0.05
1535,65,73,171.33636363636361,171.46818181818182,0.13181818181820404,0.056818181818186986,75,0.15000000000000002,0.05
1536,67,72,171.3931818181818,171.5181818181818,0.125,0.07500000000001705,70,0.1,0.1
1537,65,82,171.46818181818182,172.00681818181818,0.5386363636363569,0.4954545454545496,80,0.55,0.5
1538,69,72,171.96363636363637,172.6181818181818,0.6545454545454277,0.0022727272727252057,70,0.65,0
1539,64,59,171.9659090909091,172.5840909090909,0.618181818181796,0.23181818181816993,60,0.6000000000000001,0.25
1540,67,77,172.19772727272726,172.6181818181818,0.42045454545453254,0.19318181818181301,75,0.4,0.2
1541,65,71,172.39090909090908,172.6181818181818,0.22727272727271952,0.1840909090909122,70,0.25,0.2
1542,49,66,172.575,173.36136363636362,0.7863636363636317,0.009090909090900823,65,0.8,0
1543,64,68,172.5840909090909,173.35,0.7659090909091049,0.17954545454546178,70,0.75,0.2
1544,65,68,172.76363636363635,173.15681818181818,0.39318181818183007,0.1886363636363626,70,0.4,0.2
1545,67,70,172.9522727272727,173.36136363636362,0.4090909090909065,0.19772727272729185,70,0.4,0.2
1546,50,61,173.15,173.37954545454545,0.22954545454544473,0.006818181818175617,60,0.25,0
1547,65,68,173.15681818181818,173.36136363636362,0.20454545454543904,0.1886363636363626,70,0.2,0.2
1548,48,62,173.34545454545454,173.5522727272727,0.20681818181816425,0.004545454545450411,60,0.2,0
1549,64,69,173.35,173.57272727272726,0.2227272727272691,0.17954545454546178,70,0.2,0.2
1550,62,66,173.52954545454546,173.71136363636361,0.18181818181815856,0.0022727272727252057,65,0.2,0
1551,46,59,173.53181818181818,173.73636363636362,0.20454545454543904,0.1863636363636374,60,0.2,0.2
1552,61,68,173.71818181818182,173.91363636363636,0.19545454545453822,0.0022727272727252057,70,0.2,0
1553,45,57,173.72045454545454,173.9090909090909,0.1886363636363626,0.17499999999998295,55,0.2,0.15000000000000002
1554,62,62,173.89545454545453,174.075,0.17954545454546178,0.0022727272727252057,60,0.2,0
1555,46,64,173.89772727272725,174.0840909090909,0.1863636363636374,0.17727272727273657,65,0.2,0.2
1556,64,64,174.075,174.3022727272727,0.22727272727271952,0.01590909090910486,65,0.25,0
1557,48,58,174.0909090909091,174.3090909090909,0.2181818181818187,0.1909090909090878,60,0.2,0.2
1558,62,62,174.28181818181818,174.8931818181818,0.6113636363636203,0.02045454545452685,60,0.6000000000000001,0
1559,46,58,174.3022727272727,174.47954545454544,0.17727272727273657,0.1840909090909122,60,0.2,0.2
1560,45,58,174.48636363636362,174.69772727272726,0.21136363636364308,0.1909090909090878,60,0.2,0.2
1561,43,56,174.6772727272727,174.86363636363635,0.1863636363636374,0.19318181818184144,55,0.2,0.2
1562,42,59,174.87045454545455,175.07272727272726,0.20227272727271384,0.018181818181801646,60,0.2,0
1563,57,67,174.88863636363635,175.525,0.6363636363636545,0.1886363636363626,65,0.65,0.2
1564,43,53,175.0772727272727,175.2431818181818,0.16590909090908212,0.19545454545453822,55,0.15000000000000002,0.2
1565,45,57,175.27272727272725,175.51590909090908,0.24318181818182438,0.20681818181819267,55,0.25,0.2
1566,43,54,175.47954545454544,176.15227272727273,0.6727272727272862,0.013636363636351234,55,0.65,0
1567,58,63,175.4931818181818,176.0772727272727,0.5840909090909179,0.2159090909090935,65,0.6000000000000001,0.2
1568,62,57,175.7090909090909,175.95,0.24090909090909918,0.17272727272728616,55,0.25,0.15000000000000002
1569,64,55,175.88181818181818,176.07272727272726,0.1909090909090878,0.1863636363636374,55,0.2,0.2
1570,38,56,176.0681818181818,176.7090909090909,0.6409090909090764,0.004545454545450411,55,0.65,0
1571,59,48,176.07272727272726,176.39090909090908,0.318181818181813,0.020454545454555273,50,0.30000000000000004,0
1572,65,59,176.09318181818182,176.31363636363636,0.2204545454545439,0.17954545454543336,60,0.2,0.2
1573,64,56,176.27272727272725,176.47272727272727,0.20000000000001705,0.19545454545456664,55,0.2,0.2
1574,62,61,176.46818181818182,176.62727272727273,0.1590909090909065,0.17954545454543336,60,0.15000000000000002,0.2
1575,39,65,176.64772727272725,177.34545454545454,0.6977272727272918,0.01590909090910486,65,0.7000000000000001,0
1576,60,63,176.66363636363636,176.97272727272727,0.3090909090909122,0.19999999999998863,65,0.30000000000000004,0.2
1577,69,66,176.86363636363635,177.225,0.36136363636364877,0.3659090909090992,65,0.35000000000000003,0.35000000000000003
1578,40,69,177.22954545454544,177.83863636363637,0.6090909090909236,0.009090909090900823,70,0.6000000000000001,0
1579,67,67,177.23863636363635,177.48863636363635,0.25,0.004545454545450411,65,0.25,0
1580,61,56,177.2431818181818,177.51363636363635,0.2704545454545553,0.1863636363636374,55,0.25,0.2
1581,69,75,177.42954545454543,177.63636363636363,0.20681818181819267,0.1863636363636374,75,0.2,0.2
1582,70,78,177.61590909090907,177.77954545454546,0.16363636363638534,0.16363636363638534,80,0.15000000000000002,0.15000000000000002
1583,41,66,177.77954545454546,178.36363636363635,0.5840909090908895,0.03863636363635692,65,0.6000000000000001,0.05
1584,62,65,177.8181818181818,179.86136363636362,2.0431818181818073,0.1840909090909122,65,2.0500000000000003,0.2
1585,69,76,178.00227272727273,178.19545454545454,0.19318181818181301,0.17499999999998295,75,0.2,0.15000000000000002
1586,70,69,178.1772727272727,178.36363636363635,0.1863636363636374,0.20454545454546746,70,0.2,0.2
1587,42,56,178.38181818181818,179.4590909090909,1.0772727272727138,0,55,1.1,0
1588,72,64,178.38181818181818,179.4590909090909,1.0772727272727138,0.19318181818181301,65,1.1,0.2
1589,70,60,178.575,178.9409090909091,0.3659090909090992,0.17954545454546178,60,0.35000000000000003,0.2
1590,69,59,178.75454545454545,179.4590909090909,0.704545454545439,0.1863636363636374,60,0.7000000000000001,0.2
1591,70,57,178.9409090909091,179.60454545454544,0.6636363636363569,0.03409090909090651,55,0.65,0.05
1592,43,50,178.975,179.4590909090909,0.48409090909089514,0.20227272727271384,50,0.5,0.2
1593,45,53,179.1772727272727,179.4590909090909,0.2818181818181813,0.19545454545456664,55,0.30000000000000004,0.2
1594,46,65,179.37272727272727,179.5431818181818,0.17045454545453254,0.19318181818181301,65,0.15000000000000002,0.2
1595,48,54,179.5659090909091,179.76590909090908,0.19999999999998863,0.011363636363626028,55,0.2,0
1596,66,61,179.5772727272727,180.12954545454545,0.5522727272727366,0.16818181818183575,60,0.55,0.15000000000000002
1597,46,55,179.74545454545455,179.95454545454544,0.20909090909088945,0.19545454545453822,55,0.2,0.2
1598,45,59,179.9409090909091,180.1590909090909,0.2181818181818187,0.19545454545453822,60,0.2,0.2
1599,67,68,180.13636363636363,180.375,0.23863636363637397,0.0022727272727252057,70,0.25,0
1600,46,60,180.13863636363635,180.35227272727272,0.2136363636363683,0.17954545454546178,60,0.2,0.2
1601,48,64,180.3181818181818,180.47727272727272,0.1590909090909065,0.02272727272728048,65,0.15000000000000002,0
1602,69,72,180.3409090909091,180.5568181818182,0.2159090909090935,0.1568181818181813,70,0.2,0.15000000000000002
1603,50,68,180.49772727272727,180.72727272727272,0.22954545454544473,0.02045454545452685,70,0.25,0
1604,70,78,180.5181818181818,180.72954545454544,0.21136363636364308,0.17272727272728616,80,0.2,0.15000000000000002
1605,51,76,180.6909090909091,180.88863636363635,0.19772727272726343,0.013636363636351234,75,0.2,0
1606,72,78,180.70454545454544,180.89999999999998,0.19545454545453822,0.17272727272728616,80,0.2,0.15000000000000002
1607,50,77,180.87727272727273,181.07045454545454,0.19318181818181301,0,75,0.2,0
1608,70,78,180.87727272727273,181.0840909090909,0.20681818181816425,0.17045454545453254,80,0.2,0.15000000000000002
1609,48,75,181.04772727272726,181.27272727272725,0.22499999999999432,0.01136363636365445,75,0.2,0
1610,69,78,181.0590909090909,181.2840909090909,0.22499999999999432,0.18181818181815856,80,0.2,0.2
1611,50,80,181.24090909090907,181.85681818181817,0.6159090909090992,0,80,0.6000000000000001,0
1612,70,79,181.24090909090907,181.41590909090908,0.17500000000001137,0.1840909090909122,80,0.2,0.2
1613,72,82,181.42499999999998,181.64772727272725,0.2227272727272691,0.1886363636363626,80,0.2,0.2
1614,74,81,181.61363636363635,181.81136363636364,0.19772727272729185,0.20000000000001705,80,0.2,0.2
1615,75,82,181.81363636363636,182.02499999999998,0.21136363636361466,0,80,0.2,0
1616,55,75,181.81363636363636,182.9318181818182,1.1181818181818244,0.17954545454543336,75,1.1,0.2
1617,74,75,181.9931818181818,182.1840909090909,0.19090909090911623,0.17500000000001137,75,0.2,0.2
1618,73,72,182.1681818181818,182.39090909090908,0.2227272727272691,0.20681818181819267,70,0.2,0.2
1619,74,70,182.375,183.27499999999998,0.8999999999999773,0.19999999999998863,70,0.9,0.2
1620,72,56,182.575,182.72954545454544,0.1545454545454561,0.17045454545456096,55,0.15000000000000002,0.15000000000000002
1621,70,56,182.74545454545455,182.9090909090909,0.16363636363635692,0.14318181818180165,55,0.15000000000000002,0.15000000000000002
1622,54,53,182.88863636363635,183.45,0.5613636363636374,0.03409090909090651,55,0.55,0.05
1623,69,61,182.92272727272726,183.15227272727273,0.22954545454547315,0.16363636363635692,60,0.25,0.15000000000000002
1624,70,55,183.08636363636361,183.27954545454546,0.19318181818184144,0.1886363636363626,55,0.2,0.2
1625,72,60,183.27499999999998,183.47727272727272,0.20227272727274226,0.1840909090909122,60,0.2,0.2
1626,70,63,183.4590909090909,183.59318181818182,0.13409090909092924,0.03409090909090651,65,0.15000000000000002,0.05
1627,55,47,183.4931818181818,183.64772727272725,0.1545454545454561,0.15909090909093493,45,0.15000000000000002,0.15000000000000002
1628,53,56,183.65227272727273,183.81136363636364,0.1590909090909065,0.16363636363635692,55,0.15000000000000002,0.15000000000000002
1629,52,53,183.8159090909091,183.97045454545454,0.1545454545454561,0.17954545454546178,55,0.15000000000000002,0.2
1630,50,50,183.99545454545455,184.15681818181818,0.1613636363636317,0.018181818181801646,50,0.15000000000000002,0
1631,74,66,184.01363636363635,184.17499999999998,0.1613636363636317,0.1568181818181813,65,0.15000000000000002,0.15000000000000002
1632,52,52,184.17045454545453,184.33636363636361,0.16590909090908212,0.20000000000001705,50,0.15000000000000002,0.2
1633,53,54,184.37045454545455,184.56363636363636,0.19318181818181301,0.19545454545453822,55,0.2,0.2
1634,52,49,184.5659090909091,184.85227272727272,0.2863636363636317,0.0022727272727252057,50,0.30000000000000004,0
1635,79,64,184.5681818181818,184.83181818181816,0.26363636363635123,0.025000000000005684,65,0.25,0.05
1636,67,48,184.59318181818182,184.73863636363635,0.14545454545452685,0.16590909090908212,50,0.15000000000000002,0.15000000000000002
1637,77,70,184.7590909090909,184.93863636363636,0.17954545454546178,0.17500000000001137,70,0.2,0.2
1638,76,66,184.9340909090909,185.10227272727272,0.16818181818180733,0.19772727272726343,65,0.15000000000000002,0.2
1639,74,63,185.13181818181818,185.36136363636362,0.22954545454544473,0.006818181818175617,65,0.25,0
1640,71,49,185.13863636363635,185.37272727272727,0.23409090909092356,0,50,0.25,0
1641,55,52,185.13863636363635,185.3681818181818,0.22954545454544473,0.1863636363636374,50,0.25,0.2
1642,76,64,185.325,185.49772727272727,0.17272727272728616,0.17954545454546178,65,0.15000000000000002,0.2
1643,77,71,185.50454545454545,185.6909090909091,0.1863636363636374,0.1863636363636374,70,0.2,0.2
1644,76,69,185.6909090909091,185.88863636363635,0.19772727272726343,0.01590909090907644,70,0.2,0
1645,60,47,185.70681818181816,185.9272727272727,0.2204545454545439,0.01136363636365445,45,0.2,0
1646,72,53,185.71818181818182,185.85454545454544,0.13636363636362603,0.1568181818181813,55,0.15000000000000002,0.15000000000000002
1647,58,61,185.875,186.0568181818182,0.18181818181818699,0.17272727272725774,60,0.2,0.15000000000000002
1648,57,61,186.04772727272726,186.24090909090907,0.19318181818181301,0.20000000000001705,60,0.2,0.2
1649,55,58,186.24772727272727,186.44545454545454,0.19772727272726343,0,60,0.2,0
1650,79,79,186.24772727272727,186.44772727272726,0.19999999999998863,0.19545454545453822,80,0.2,0.2
1651,57,60,186.4431818181818,186.61363636363635,0.17045454545453254,0.17727272727273657,60,0.15000000000000002,0.2
1652,58,70,186.62045454545455,186.88636363636363,0.26590909090907644,0.20227272727271384,70,0.25,0.2
1653,57,62,186.82272727272726,187.15681818181818,0.3340909090909179,0.004545454545450411,60,0.35000000000000003,0
1654,72,75,186.8272727272727,187.02954545454546,0.20227272727274226,0.1886363636363626,75,0.2,0.2
1655,70,74,187.01590909090908,187.22045454545454,0.20454545454546746,0.16363636363635692,75,0.2,0.15000000000000002
1656,69,78,187.17954545454543,187.37045454545455,0.19090909090911623,0.20000000000001705,80,0.2,0.2
1657,67,76,187.37954545454545,187.58863636363637,0.20909090909091788,0.004545454545450411,75,0.2,0
1658,60,74,187.3840909090909,187.60454545454544,0.2204545454545439,0.1568181818181813,75,0.2,0.15000000000000002
1659,69,81,187.54090909090908,187.75227272727273,0.21136363636364308,0.17272727272728616,80,0.2,0.15000000000000002
1660,70,82,187.71363636363637,187.95681818181816,0.24318181818179596,0.19545454545453822,80,0.25,0.2
1661,69,82,187.9090909090909,188.0772727272727,0.16818181818180733,0.011363636363626028,80,0.15000000000000002,0
1662,53,66,187.92045454545453,188.15681818181818,0.23636363636364877,0.1568181818181813,65,0.25,0.15000000000000002
1663,51,74,188.0772727272727,188.29772727272726,0.2204545454545439,0.20227272727274226,75,0.2,0.2
1664,50,72,188.27954545454546,188.47045454545454,0.1909090909090878,0.17954545454543336,70,0.2,0.2
1665,48,70,188.4590909090909,188.65681818181818,0.19772727272729185,0.0022727272727252057,70,0.2,0
1666,72,87,188.46136363636361,188.64090909090908,0.17954545454546178,0.17500000000001137,85,0.2,0.2
1667,50,73,188.63636363636363,188.8272727272727,0.1909090909090878,0.18181818181818699,75,0.2,0.2
1668,51,83,188.8181818181818,189.0431818181818,0.22499999999999432,0.18181818181818699,85,0.2,0.2
1669,50,79,189,189.31363636363636,0.3136363636363626,0.0022727272727252057,80,0.30000000000000004,0
1670,77,93,189.00227272727273,189.27272727272725,0.27045454545452685,0.004545454545450411,95,0.25,0
1671,65,77,189.00681818181818,189.18181818181816,0.17499999999998295,0.17954545454546178,75,0.15000000000000002,0.2
1672,75,88,189.18636363636364,189.41363636363636,0.22727272727271952,0.1863636363636374,90,0.25,0.2
1673,74,84,189.37272727272727,189.5840909090909,0.21136363636361466,0.17727272727270815,85,0.2,0.2
1674,53,77,189.54999999999998,189.8181818181818,0.26818181818183007,0.006818181818175617,75,0.25,0
1675,69,73,189.55681818181816,189.8090909090909,0.2522727272727536,0.006818181818204039,75,0.25,0
1676,72,85,189.56363636363636,189.79999999999998,0.23636363636362034,0.17954545454543336,85,0.25,0.2
1677,74,83,189.7431818181818,189.9659090909091,0.22272727272729753,0.18181818181818699,85,0.2,0.2
1678,75,90,189.92499999999998,190.1909090909091,0.26590909090910486,0.2227272727272691,90,0.25,0.2
1679,74,84,190.14772727272725,191.35454545454544,1.2068181818181927,0.0022727272727252057,85,1.2000000000000002,0
1680,58,72,190.14999999999998,190.38636363636363,0.23636363636364877,0.004545454545478833,70,0.25,0
1681,70,78,190.15454545454546,190.7,0.5454545454545325,0.2204545454545439,80,0.55,0.2
1682,57,75,190.375,190.57954545454544,0.20454545454543904,0.16818181818180733,75,0.2,0.15000000000000002
1683,55,73,190.5431818181818,190.75,0.20681818181819267,0.17727272727273657,75,0.2,0.2
1684,69,85,190.72045454545454,193.7931818181818,3.0727272727272634,0.006818181818175617,85,3.0500000000000003,0
1685,54,75,190.72727272727272,190.92499999999998,0.19772727272726343,0.17954545454546178,75,0.2,0.2
1686,55,75,190.90681818181818,191.1,0.19318181818181301,0.1909090909090878,75,0.2,0.2
1687,57,76,191.09772727272727,191.34545454545454,0.2477272727272748,0.23636363636362034,75,0.25,0.25
1688,73,87,191.3340909090909,191.64999999999998,0.3159090909090878,0.006818181818204039,85,0.30000000000000004,0
1689,55,72,191.3409090909091,191.59545454545454,0.2545454545454504,0.2545454545454504,70,0.25,0.25
1690,53,68,191.59545454545454,191.83181818181816,0.23636363636362034,0.0022727272727252057,70,0.25,0
1691,74,83,191.59772727272727,191.875,0.2772727272727309,0.2159090909090935,85,0.30000000000000004,0.2
1692,52,64,191.81363636363636,192.00454545454545,0.1909090909090878,0.0022727272727252057,65,0.2,0
1693,76,87,191.8159090909091,192.0181818181818,0.20227272727271384,0.1886363636363626,85,0.2,0.2
1694,50,69,192.00454545454545,192.1931818181818,0.1886363636363626,0.0022727272727252057,70,0.2,0
1695,77,90,192.00681818181818,192.22272727272727,0.2159090909090935,0.1590909090909065,90,0.2,0.15000000000000002
1696,52,67,192.16590909090908,192.33636363636361,0.17045454545453254,0.020454545454555273,65,0.15000000000000002,0
1697,76,86,192.18636363636364,192.40681818181818,0.2204545454545439,0.1613636363636317,85,0.2,0.15000000000000002
1698,53,69,192.34772727272727,192.53863636363636,0.1909090909090878,0.025000000000005684,70,0.2,0.05
1699,74,90,192.37272727272727,192.65681818181818,0.2840909090909065,0.1568181818181813,90,0.30000000000000004,0.15000000000000002
1700,52,71,192.52954545454546,192.68181818181816,0.15227272727270247,0.004545454545450411,70,0.15000000000000002,0
1701,76,91,192.5340909090909,192.73863636363635,0.20454545454543904,0.1590909090909065,90,0.2,0.15000000000000002
1702,77,95,192.6931818181818,192.85,0.1568181818181813,0.006818181818175617,95,0.15000000000000002,0
1703,50,81,192.7,192.92954545454543,0.22954545454544473,0.16818181818180733,80,0.25,0.15000000000000002
1704,79,90,192.8681818181818,193.10454545454544,0.23636363636364877,0.006818181818204039,90,0.25,0
1705,49,74,192.875,193.08181818181816,0.20681818181816425,0.1886363636363626,75,0.2,0.2
1706,47,77,193.06363636363636,193.2840909090909,0.2204545454545439,0.004545454545450411,75,0.2,0
1707,81,92,193.0681818181818,193.3272727272727,0.2590909090909008,0.1840909090909122,90,0.25,0.2
1708,49,77,193.25227272727273,193.4659090909091,0.2136363636363683,0.0022727272727252057,75,0.2,0
1709,79,91,193.25454545454545,193.49772727272727,0.24318181818182438,0.21136363636364308,90,0.25,0.2
1710,77,100,193.4659090909091,193.72727272727272,0.26136363636362603,0,100,0.25,0
1711,50,77,193.4659090909091,193.77272727272725,0.30681818181815856,0.2545454545454504,75,0.30000000000000004,0.25
1712,49,74,193.72045454545454,194.0772727272727,0.35681818181816993,0.011363636363626028,75,0.35000000000000003,0
1713,79,93,193.73181818181817,194.37954545454545,0.6477272727272805,0.29772727272728616,95,0.65,0.30000000000000004
1714,45,75,194.02954545454546,194.39090909090908,0.36136363636362034,0.02727272727270247,75,0.35000000000000003,0.05
1715,69,88,194.05681818181816,194.4340909090909,0.3772727272727536,0.32954545454546746,90,0.4,0.35000000000000003
1716,50,65,194.38636363636363,195.50454545454545,1.1181818181818244,0.004545454545450411,65,1.1,0
1717,70,77,194.39090909090908,194.9931818181818,0.6022727272727195,0,75,0.6000000000000001,0
1718,77,90,194.39090909090908,194.9931818181818,0.6022727272727195,0.2909090909090821,90,0.6000000000000001,0.30000000000000004
1719,69,80,194.68181818181816,194.9931818181818,0.3113636363636374,0.26590909090910486,80,0.30000000000000004,0.25
1720,76,84,194.94772727272726,196.8340909090909,1.886363636363626,0.004545454545450411,85,1.9000000000000001,0
1721,67,76,194.9522727272727,195.41590909090908,0.4636363636363683,0.2454545454545496,75,0.45,0.25
1722,70,70,195.19772727272726,195.4522727272727,0.2545454545454504,0.2590909090909008,70,0.25,0.25
1723,49,58,195.45681818181816,195.975,0.5181818181818301,0.01136363636365445,60,0.5,0
1724,69,74,195.46818181818182,195.72954545454544,0.26136363636362603,0.26363636363635123,75,0.25,0.25
1725,67,70,195.73181818181817,196.01136363636363,0.2795454545454561,0.24318181818182438,70,0.30000000000000004,0.25
1726,50,48,195.975,196.8340909090909,0.8590909090908951,0.02727272727273089,50,0.8500000000000001,0.05
1727,65,65,196.00227272727273,196.8340909090909,0.8318181818181642,0.2454545454545496,65,0.8500000000000001,0.25
1728,74,70,196.24772727272727,196.7681818181818,0.5204545454545269,0.27727272727270247,70,0.5,0.30000000000000004
1729,75,76,196.52499999999998,196.8340909090909,0.3090909090909122,0.025000000000005684,75,0.30000000000000004,0.05
1730,58,59,196.54999999999998,197.01363636363635,0.4636363636363683,0.0022727272727252057,60,0.45,0
1731,55,53,196.5522727272727,197.6590909090909,1.1068181818181984,0.2159090909090935,55,1.1,0.2
1732,74,77,196.7681818181818,197.0590909090909,0.29090909090911055,0.2750000000000057,75,0.30000000000000004,0.30000000000000004
1733,73,76,197.0431818181818,197.3340909090909,0.2909090909090821,0.020454545454555273,75,0.30000000000000004,0
1734,57,61,197.06363636363636,198.37954545454545,1.3159090909090878,0.26136363636362603,60,1.3,0.25
1735,76,74,197.325,197.6590909090909,0.3340909090909179,0.26590909090910486,75,0.35000000000000003,0.25
1736,54,55,197.5909090909091,198.37954545454545,0.7886363636363569,0.018181818181801646,55,0.8,0
1737,74,72,197.6090909090909,198.37954545454545,0.7704545454545553,0.2795454545454561,70,0.75,0.30000000000000004
1738,72,77,197.88863636363635,198.37954545454545,0.4909090909090992,0.3136363636363626,75,0.5,0.30000000000000004
1739,71,73,198.2022727272727,198.85227272727272,0.6500000000000057,0,75,0.65,0
1740,55,67,198.2022727272727,198.62272727272727,0.42045454545456096,0.35681818181819835,65,0.4,0.35000000000000003
1741,53,73,198.5590909090909,198.89545454545453,0.33636363636361466,0.26818181818180165,75,0.35000000000000003,0.25
1742,70,72,198.8272727272727,199.44772727272726,0.6204545454545496,0.006818181818175617,70,0.6000000000000001,0
1743,67,60,198.8340909090909,199.6931818181818,0.8590909090909236,0.004545454545450411,60,0.8500000000000001,0
1744,52,65,198.83863636363634,199.12272727272727,0.28409090909093493,0.2704545454545553,65,0.30000000000000004,0.25
1745,50,70,199.1090909090909,199.4409090909091,0.33181818181819267,0.2818181818181813,70,0.35000000000000003,0.30000000000000004
1746,69,68,199.39090909090908,201.0659090909091,1.6750000000000114,0.009090909090900823,70,1.7000000000000002,0
1747,49,59,199.39999999999998,199.6681818181818,0.26818181818183007,0.25681818181820404,60,0.25,0.25
1748,52,57,199.65681818181818,199.97954545454544,0.3227272727272634,0.27499999999997726,55,0.30000000000000004,0.25
1749,50,57,199.93181818181816,200.24772727272727,0.31590909090911623,0.0022727272727536274,55,0.30000000000000004,0
1750,65,67,199.9340909090909,200.2090909090909,0.27499999999997726,0.26363636363635123,65,0.25,0.25
1751,48,59,200.19772727272726,200.50227272727273,0.3045454545454618,0.0022727272727252057,60,0.30000000000000004,0
1752,64,65,200.2,200.48863636363635,0.2886363636363569,0.2863636363636317,65,0.30000000000000004,0.30000000000000004
1753,62,64,200.48636363636362,200.78636363636363,0.30000000000001137,0.009090909090929244,65,0.30000000000000004,0
1754,47,60,200.49545454545455,201.04772727272726,0.5522727272727082,0.27045454545452685,60,0.55,0.25
1755,65,61,200.76590909090908,201.05681818181816,0.2909090909090821,0.2772727272727309,60,0.30000000000000004,0.30000000000000004
1756,67,61,201.0431818181818,202.42499999999998,1.3818181818181756,0.013636363636351234,60,1.4000000000000001,0
1757,64,44,201.05681818181816,201.36590909090907,0.3090909090909122,0.0022727272727536274,45,0.30000000000000004,0
1758,46,49,201.0590909090909,201.66363636363636,0.6045454545454447,0.30227272727270815,50,0.6000000000000001,0.30000000000000004
1759,62,56,201.36136363636362,201.63863636363635,0.2772727272727309,0.2795454545454561,55,0.30000000000000004,0.30000000000000004
1760,45,44,201.64090909090908,201.9590909090909,0.318181818181813,0.01136363636365445,45,0.30000000000000004,0
1761,61,48,201.65227272727273,202.2931818181818,0.6409090909090764,0.30909090909088377,50,0.65,0.30000000000000004
1762,57,60,201.96136363636361,202.2840909090909,0.32272727272729185,0.29545454545456096,60,0.30000000000000004,0.30000000000000004
1763,58,61,202.25681818181818,202.5681818181818,0.3113636363636374,0.009090909090900823,60,0.30000000000000004,0
1764,65,57,202.26590909090908,202.90227272727273,0.6363636363636545,0.01590909090910486,55,0.65,0
1765,62,39,202.28181818181818,203.49545454545455,1.2136363636363683,0.2818181818181813,40,1.2000000000000002,0.30000000000000004
1766,57,58,202.56363636363636,202.88181818181818,0.318181818181813,0.2886363636363569,60,0.30000000000000004,0.30000000000000004
1767,55,52,202.85227272727272,203.1931818181818,0.3409090909090935,0.011363636363626028,50,0.35000000000000003,0
1768,64,53,202.86363636363635,203.7931818181818,0.9295454545454618,0.3113636363636374,55,0.9500000000000001,0.30000000000000004
1769,58,57,203.17499999999998,203.47272727272727,0.29772727272728616,0.32045454545456664,55,0.30000000000000004,0.30000000000000004
1770,57,48,203.49545454545455,203.87045454545455,0.375,0.009090909090900823,50,0.4,0
1771,61,48,203.50454545454545,204.4590909090909,0.954545454545439,0.3477272727272691,50,0.9500000000000001,0.35000000000000003
1772,55,48,203.85227272727272,204.4590909090909,0.6068181818181699,0.3727272727272748,50,0.6000000000000001,0.35000000000000003
1773,53,48,204.225,204.62727272727273,0.4022727272727309,0.013636363636351234,50,0.4,0
1774,62,61,204.23863636363635,205.60454545454544,1.3659090909090992,0.38636363636365445,60,1.35,0.4
1775,60,56,204.625,204.9590909090909,0.33409090909088945,0.009090909090900823,55,0.35000000000000003,0
1776,57,43,204.6340909090909,204.90454545454546,0.2704545454545553,0.3022727272727366,45,0.25,0.30000000000000004
1777,55,43,204.93636363636364,205.18636363636364,0.25,0.004545454545450411,45,0.25,0
1778,58,53,204.9409090909091,205.20681818181816,0.26590909090907644,0.27272727272725206,55,0.25,0.25
1779,53,43,205.21363636363634,205.54999999999998,0.3363636363636431,0.004545454545478833,45,0.35000000000000003,0
1780,57,53,205.21818181818182,205.5659090909091,0.3477272727272691,0.29772727272725774,55,0.35000000000000003,0.30000000000000004
1781,52,43,205.51590909090908,205.80454545454543,0.2886363636363569,0.013636363636379656,45,0.30000000000000004,0
1782,55,44,205.52954545454546,205.81363636363636,0.2840909090909065,0.26818181818180165,45,0.30000000000000004,0.25
1783,50,48,205.79772727272726,206.0681818181818,0.2704545454545553,0.01590909090910486,50,0.25,0
1784,58,55,205.81363636363636,206.14090909090908,0.32727272727271384,0.26136363636362603,55,0.35000000000000003,0.25
1785,49,46,206.075,206.32954545454544,0.2545454545454504,0.004545454545450411,45,0.25,0
1786,57,54,206.07954545454544,206.34545454545454,0.26590909090910486,0.2704545454545553,55,0.25,0.25
1787,55,48,206.35,206.64090909090908,0.2909090909090821,0.013636363636351234,50,0.30000000000000004,0
1788,52,42,206.36363636363635,206.65227272727273,0.28863636363638534,0.2772727272727309,40,0.30000000000000004,0.30000000000000004
1789,50,47,206.64090909090908,206.9272727272727,0.2863636363636317,0.013636363636379656,45,0.30000000000000004,0
1790,53,50,206.65454545454546,206.90681818181818,0.2522727272727252,0.2568181818181756,50,0.25,0.25
1791,57,53,206.91136363636363,207.2159090909091,0.3045454545454618,0.0022727272727252057,55,0.30000000000000004,0
1792,48,53,206.91363636363636,207.21818181818182,0.3045454545454618,0.2750000000000057,55,0.30000000000000004,0.30000000000000004
1793,55,56,207.18863636363636,207.46136363636361,0.27272727272725206,0.0022727272727252057,55,0.25,0
1794,46,53,207.1909090909091,207.45681818181816,0.26590909090907644,0.27045454545452685,55,0.25,0.25
1795,45,46,207.46136363636361,207.74090909090907,0.2795454545454561,0.01590909090910486,45,0.30000000000000004,0
1796,53,59,207.47727272727272,207.7681818181818,0.2909090909090821,0.26363636363635123,60,0.30000000000000004,0.25
1797,43,46,207.74090909090907,208.02954545454546,0.28863636363638534,0.004545454545450411,45,0.30000000000000004,0
1798,52,53,207.74545454545452,208.02499999999998,0.2795454545454561,0.28409090909093493,55,0.30000000000000004,0.30000000000000004
1799,50,51,208.02954545454546,208.3590909090909,0.32954545454543904,0.013636363636351234,50,0.35000000000000003,0
1800,46,47,208.0431818181818,208.41363636363636,0.3704545454545496,0.306818181818187,45,0.35000000000000003,0.30000000000000004
1801,49,51,208.35,208.6840909090909,0.3340909090909179,0.02045454545452685,50,0.35000000000000003,0
1802,45,39,208.37045454545452,208.73181818181817,0.36136363636364877,0.29318181818183575,40,0.35000000000000003,0.30000000000000004
1803,52,48,208.66363636363636,209.02954545454546,0.3659090909090992,0.013636363636351234,50,0.35000000000000003,0
1804,43,44,208.6772727272727,209.1431818181818,0.4659090909090935,0.3681818181818244,45,0.45,0.35000000000000003
1805,41,45,209.04545454545453,209.67499999999998,0.6295454545454504,0.004545454545450411,45,0.65,0
1806,50,50,209.04999999999998,209.33181818181816,0.2818181818181813,0.2545454545454504,50,0.30000000000000004,0.25
1807,52,52,209.30454545454543,209.47727272727272,0.17272727272728616,0.19545454545456664,50,0.15000000000000002,0.2
1808,53,50,209.5,209.64999999999998,0.14999999999997726,0.19545454545453822,50,0.15000000000000002,0.2
1809,46,50,209.69545454545454,210.47272727272727,0.7772727272727309,0.0022727272727252057,50,0.8,0
1810,55,55,209.69772727272726,209.8931818181818,0.19545454545453822,0.19772727272726343,55,0.2,0.2
1811,53,55,209.89545454545453,210.27954545454546,0.38409090909092924,0.1886363636363626,55,0.4,0.2
1812,52,59,210.0840909090909,210.47272727272727,0.38863636363637966,0.19545454545456664,60,0.4,0.2
1813,53,58,210.27954545454546,210.50227272727273,0.2227272727272691,0.02045454545452685,60,0.2,0
1814,45,51,210.29999999999998,210.52045454545453,0.2204545454545439,0.17954545454546178,50,0.2,0.2
1815,55,58,210.47954545454544,210.6772727272727,0.19772727272726343,0.02727272727273089,60,0.2,0.05
1816,43,48,210.50681818181818,210.68636363636364,0.17954545454546178,0.17045454545453254,50,0.2,0.15000000000000002
1817,57,60,210.6772727272727,210.87727272727273,0.20000000000001705,0,60,0.2,0
1818,41,60,210.6772727272727,210.87727272727273,0.20000000000001705,0.20909090909091788,60,0.2,0.2
1819,58,64,210.88636363636363,211.0840909090909,0.19772727272726343,0.0022727272727252057,65,0.2,0
1820,40,53,210.88863636363635,211.05681818181816,0.16818181818180733,0.17045454545456096,55,0.15000000000000002,0.15000000000000002
1821,41,55,211.0590909090909,211.45681818181816,0.39772727272725206,0.004545454545450411,55,0.4,0
1822,57,64,211.06363636363636,211.24772727272727,0.1840909090909122,0.19318181818181301,65,0.2,0.2
1823,55,70,211.25681818181818,211.5909090909091,0.3340909090909179,0.01590909090907644,70,0.35000000000000003,0
1824,43,62,211.27272727272725,211.5909090909091,0.31818181818184144,0.1840909090909122,60,0.30000000000000004,0.2
1825,41,56,211.45681818181816,211.7159090909091,0.25909090909092924,0.025000000000005684,55,0.25,0.05
1826,62,74,211.48181818181817,211.70681818181816,0.22499999999999432,0.004545454545450411,75,0.2,0
1827,57,54,211.48636363636362,212.15227272727273,0.6659090909091105,0.17045454545456096,55,0.65,0.15000000000000002
1828,64,68,211.65681818181818,211.90227272727273,0.2454545454545496,0.02045454545452685,70,0.25,0
1829,40,59,211.6772727272727,211.87045454545452,0.19318181818181301,0.18181818181818699,60,0.2,0.2
1830,65,75,211.8590909090909,212.07045454545454,0.21136363636364308,0.013636363636379656,75,0.2,0
1831,38,61,211.87272727272727,212.08181818181816,0.20909090909088945,0.18409090909088377,60,0.2,0.2
1832,67,77,212.05681818181816,212.28863636363636,0.23181818181819835,0.01590909090910486,75,0.25,0
1833,37,62,212.07272727272726,212.27499999999998,0.20227272727271384,0.17272727272725774,60,0.2,0.15000000000000002
1834,65,74,212.24545454545452,212.45681818181816,0.21136363636364308,0.006818181818204039,75,0.2,0
1835,38,62,212.25227272727273,212.43636363636364,0.1840909090909122,0.1886363636363626,60,0.2,0.2
1836,64,79,212.4409090909091,212.66136363636363,0.2204545454545439,0.025000000000005684,80,0.2,0.05
1837,40,56,212.4659090909091,212.65454545454546,0.1886363636363626,0.17045454545453254,55,0.2,0.15000000000000002
1838,65,78,212.63636363636363,213.27954545454546,0.6431818181818301,0.004545454545450411,80,0.65,0
1839,38,70,212.64090909090908,213.27954545454546,0.6386363636363797,0.19772727272726343,70,0.65,0.2
1840,67,78,212.83863636363634,213.27954545454546,0.44090909090911623,0.006818181818204039,80,0.45,0
1841,55,74,212.84545454545454,213.27954545454546,0.4340909090909122,0.1863636363636374,75,0.45,0.2
1842,53,74,213.03181818181818,213.27954545454546,0.2477272727272748,0.006818181818175617,75,0.25,0
1843,69,81,213.03863636363636,213.27954545454546,0.24090909090909918,0.1886363636363626,80,0.25,0.2
1844,52,74,213.22727272727272,213.4522727272727,0.22499999999999432,0.006818181818175617,75,0.2,0
1845,70,86,213.2340909090909,213.48636363636362,0.2522727272727252,0.20000000000001705,85,0.25,0.2
1846,69,85,213.4340909090909,213.63863636363635,0.20454545454543904,0.0022727272727252057,85,0.2,0
1847,53,77,213.43636363636364,213.64090909090908,0.20454545454543904,0.19999999999998863,75,0.2,0.2
1848,67,84,213.63636363636363,214.1931818181818,0.556818181818187,0.0022727272727252057,85,0.55,0
1849,55,78,213.63863636363635,213.87045454545452,0.23181818181816993,0.2204545454545439,80,0.25,0.2
1850,53,74,213.8590909090909,214.37272727272727,0.5136363636363797,0.020454545454555273,75,0.5,0
1851,69,88,213.87954545454545,214.59772727272727,0.7181818181818187,0.33181818181816425,90,0.7000000000000001,0.35000000000000003
1852,40,81,214.21136363636361,214.6681818181818,0.45681818181819267,0.35454545454547315,80,0.45,0.35000000000000003
1853,74,82,214.5659090909091,215.18181818181816,0.6159090909090708,0.0022727272727252057,80,0.6000000000000001,0
1854,41,67,214.5681818181818,214.91363636363636,0.3454545454545439,0.009090909090900823,65,0.35000000000000003,0
1855,65,73,214.5772727272727,214.9840909090909,0.4068181818181813,0.2772727272727309,75,0.4,0.30000000000000004
1856,43,79,214.85454545454544,215.17954545454543,0.32499999999998863,0.2750000000000057,80,0.30000000000000004,0.30000000000000004
1857,73,83,215.12954545454545,215.62727272727273,0.4977272727272748,0.01590909090907644,85,0.5,0
1858,45,64,215.14545454545453,215.41590909090908,0.2704545454545553,0.006818181818204039,65,0.25,0
1859,64,58,215.15227272727273,215.72954545454544,0.5772727272727138,0.26363636363635123,60,0.6000000000000001,0.25
1860,47,65,215.41590909090908,215.76590909090908,0.3499999999999943,0.2568181818181756,65,0.35000000000000003,0.25
1861,72,68,215.67272727272726,216.2931818181818,0.6204545454545496,0.020454545454555273,70,0.6000000000000001,0
1862,69,51,215.6931818181818,217.37045454545452,1.6772727272727082,0.004545454545450411,50,1.7000000000000002,0
1863,48,58,215.69772727272726,215.98181818181817,0.2840909090909065,0.26363636363635123,60,0.30000000000000004,0.25
1864,45,65,215.96136363636361,216.28181818181818,0.32045454545456664,0.26818181818183007,65,0.30000000000000004,0.25
1865,50,54,216.22954545454544,216.5522727272727,0.3227272727272634,0.004545454545450411,55,0.30000000000000004,0
1866,71,74,216.2340909090909,216.84318181818182,0.6090909090909236,0.2750000000000057,75,0.6000000000000001,0.30000000000000004
1867,49,69,216.5090909090909,216.79999999999998,0.2909090909090821,0.2818181818181813,70,0.30000000000000004,0.30000000000000004
1868,50,62,216.79090909090908,217.6772727272727,0.886363636363626,0.006818181818175617,60,0.9,0
1869,70,88,216.79772727272726,217.6772727272727,0.8795454545454504,0.2545454545454504,90,0.9,0.25
1870,52,69,217.0522727272727,217.6772727272727,0.625,0.025000000000005684,70,0.6000000000000001,0.05
1871,67,77,217.0772727272727,217.6772727272727,0.5999999999999943,0.29318181818180733,75,0.6000000000000001,0.30000000000000004
1872,69,89,217.37045454545452,218.10454545454544,0.7340909090909236,0.01136363636365445,90,0.75,0
1873,53,68,217.38181818181818,217.73863636363635,0.35681818181816993,0.318181818181813,70,0.35000000000000003,0.30000000000000004
1874,47,69,217.7,218.07272727272726,0.3727272727272748,0.011363636363626028,70,0.35000000000000003,0
1875,65,80,217.71136363636361,218.51136363636363,0.8000000000000114,0.35227272727274794,80,0.8,0.35000000000000003
1876,52,70,218.06363636363636,218.77499999999998,0.7113636363636147,0,70,0.7000000000000001,0
1877,67,90,218.06363636363636,219.11590909090907,1.0522727272727082,0.42954545454543336,90,1.05,0.45
1878,50,68,218.4931818181818,218.825,0.33181818181819267,0.018181818181830067,70,0.35000000000000003,0
1879,65,83,218.51136363636363,218.8681818181818,0.35681818181816993,0.29545454545453254,85,0.35000000000000003,0.30000000000000004
1880,49,69,218.80681818181816,219.49772727272727,0.6909090909091162,0.004545454545478833,70,0.7000000000000001,0
1881,64,80,218.81136363636364,219.49772727272727,0.6863636363636374,0.30227272727270815,80,0.7000000000000001,0.30000000000000004
1882,45,69,219.11363636363635,219.54772727272726,0.4340909090909122,0.0022727272727252057,70,0.45,0
1883,67,83,219.11590909090907,219.51590909090908,0.4000000000000057,0.35909090909092356,85,0.4,0.35000000000000003
1884,50,68,219.475,219.9522727272727,0.4772727272727195,0,70,0.5,0
1885,65,86,219.475,219.9522727272727,0.4772727272727195,0.011363636363626028,85,0.5,0
1886,62,71,219.48636363636362,222.36136363636362,2.875,0.4272727272727366,70,2.9000000000000004,0.45
1887,55,74,219.91363636363636,220.53863636363636,0.625,0.0022727272727252057,75,0.6000000000000001,0
1888,64,85,219.91590909090908,220.53863636363636,0.6227272727272748,0.568181818181813,85,0.6000000000000001,0.55
1889,57,70,220.4840909090909,222.36136363636362,1.8772727272727252,0.011363636363626028,70,1.9000000000000001,0
1890,65,83,220.49545454545452,220.77272727272725,0.2772727272727309,0.26136363636365445,85,0.30000000000000004,0.25
1891,64,82,220.75681818181818,220.93636363636364,0.17954545454546178,0.17045454545453254,80,0.2,0.15000000000000002
1892,65,82,220.9272727272727,221.07045454545454,0.14318181818183007,0.15000000000000568,80,0.15000000000000002,0.15000000000000002
1893,64,77,221.0772727272727,221.17272727272726,0.0954545454545439,0.11590909090909918,75,0.1,0.1
1894,65,74,221.1931818181818,221.37727272727273,0.1840909090909122,0.09999999999999432,75,0.2,0.1
1895,64,69,221.2931818181818,221.4590909090909,0.16590909090908212,0.08409090909091788,70,0.15000000000000002,0.1
1896,65,74,221.37727272727273,221.51363636363635,0.13636363636362603,0.08181818181816425,75,0.15000000000000002,0.1
1897,64,64,221.4590909090909,221.6,0.14090909090910486,0.05454545454546178,65,0.15000000000000002,0.05
1898,65,69,221.51363636363635,221.65681818181818,0.14318181818183007,0.08636363636364308,70,0.15000000000000002,0.1
1899,64,74,221.6,221.72045454545454,0.12045454545454959,0.056818181818186986,75,0.1,0.05
1900,65,65,221.65681818181818,221.77954545454546,0.1227272727272748,0.0636363636363626,65,0.1,0.05
1901,64,65,221.72045454545454,221.87045454545452,0.14999999999997726,0.05909090909091219,65,0.15000000000000002,0.05
1902,65,62,221.77954545454546,222.36136363636362,0.5818181818181642,0.09090909090906507,60,0.6000000000000001,0.1
1903,64,86,221.87045454545452,225.49772727272727,3.6272727272727536,0.37954545454547883,85,3.6500000000000004,0.4
1904,61,76,222.25,225.49772727272727,3.247727272727275,0.0022727272727252057,75,3.25,0
1905,45,68,222.25227272727273,225.49772727272727,3.2454545454545496,1.0340909090909065,70,3.25,1.05
1906,62,78,223.28636363636363,225.08636363636361,1.799999999999983,1.799999999999983,80,1.8,1.8
1907,62,78,225.08636363636361,228.65454545454546,3.5681818181818414,0.004545454545478833,80,3.5500000000000003,0
1908,38,62,225.0909090909091,228.7340909090909,3.6431818181818016,0,60,3.6500000000000004,0
